# Blender v2.79 (sub 0) OBJ File: 'Block.blend'
# www.blender.org
mtllib Block.mtl
o Cube
v 1.000000 0.450000 -0.999999
v 0.999999 0.450000 1.000001
v -1.000000 0.450000 1.000000
v -1.000000 0.450000 -1.000000
v 0.950000 0.450000 -0.999999
v 0.949999 0.450000 1.000001
v -0.950000 0.450000 -1.000000
v -0.950000 0.450000 1.000000
v -1.000000 0.450000 0.950000
v 0.999999 0.450000 0.950000
v 0.949999 0.500000 0.950000
v 0.950000 -0.500000 0.950000
v -0.950000 0.500000 0.950000
v -0.950000 -0.500000 0.950000
v -1.000000 0.450000 -0.950000
v 0.950000 -0.500000 -0.950000
v -0.950000 -0.500000 -0.950000
v 1.000000 0.450000 -0.949999
v 0.950000 0.500000 -0.949999
v -0.950000 0.500000 -0.950000
v 1.000000 -0.450000 -1.000000
v 1.000000 -0.450000 1.000000
v -1.000000 -0.450000 1.000000
v -1.000000 -0.450000 -1.000000
v 0.950000 -0.450000 1.000000
v 0.950000 -0.450000 -1.000000
v -0.950000 -0.450000 1.000000
v -0.950000 -0.450000 -1.000000
v 1.000000 -0.450000 0.950000
v -1.000000 -0.450000 0.950000
v 1.000000 -0.450000 -0.950000
v -1.000000 -0.450000 -0.950000
vn 0.7071 -0.7071 0.0000
vn -0.7071 0.7071 0.0000
vn -0.7071 -0.7071 0.0000
vn -1.0000 -0.0000 0.0000
vn 0.0000 0.0000 1.0000
vn 1.0000 0.0000 0.0000
vn 0.0000 0.7071 0.7071
vn 0.0000 -0.7071 0.7071
vn 0.0000 0.7071 -0.7071
vn 0.7071 0.7071 0.0000
vn 0.0000 -1.0000 0.0000
vn 0.0000 1.0000 0.0000
vn 0.0000 -0.7071 -0.7071
vn 0.0000 0.0000 -1.0000
usemtl col1
s off
f 12//1 29//1 22//1
f 9//2 3//2 13//2
f 17//3 32//3 24//3
f 32//4 15//4 4//4 24//4
f 27//5 8//5 3//5 23//5
f 29//6 10//6 2//6 22//6
f 22//5 2//5 6//5 25//5
f 8//7 13//7 3//7
f 25//8 12//8 22//8
f 7//9 20//9 19//9 5//9
f 25//5 6//5 8//5 27//5
f 11//7 13//7 8//7 6//7
f 12//8 25//8 27//8 14//8
f 18//10 19//10 11//10 10//10
f 16//11 12//11 14//11 17//11
f 19//12 20//12 13//12 11//12
f 14//8 27//8 23//8
f 10//10 11//10 2//10
f 31//6 18//6 10//6 29//6
f 23//4 3//4 9//4 30//4
f 9//2 13//2 20//2 15//2
f 6//7 2//7 11//7
f 30//3 14//3 23//3
f 21//6 1//6 18//6 31//6
f 30//4 9//4 15//4 32//4
f 15//2 20//2 4//2
f 4//9 20//9 7//9
f 5//9 19//9 1//9
f 18//10 1//10 19//10
f 24//13 28//13 17//13
f 21//13 16//13 26//13
f 30//3 32//3 17//3 14//3
f 5//14 26//14 28//14 7//14
f 31//1 29//1 12//1 16//1
f 1//14 21//14 26//14 5//14
f 16//13 17//13 28//13 26//13
f 16//1 21//1 31//1
f 7//14 28//14 24//14 4//14
