# Blender v2.79 (sub 0) OBJ File: 'Grass.blend'
# www.blender.org
mtllib Grass.mtl
o Cube.003_Cube.004
v 0.271967 0.000021 0.278561
v 0.057350 0.564846 0.191586
v 0.184149 0.000021 0.331476
v 0.219096 0.000228 0.191882
v 0.131495 0.000228 0.244757
v 0.243419 0.204205 0.255032
v 0.164355 0.391344 0.208371
v 0.138943 0.391344 0.246165
v 0.185376 0.204205 0.302241
v 0.101786 0.381778 0.222912
v 0.137400 0.199731 0.248406
v 0.126941 0.381778 0.184568
v 0.194943 0.199731 0.198872
vn 0.7223 0.4924 0.4856
vn -0.5332 0.0153 0.8458
vn -0.8016 -0.2845 -0.5259
vn 0.4840 0.2165 -0.8478
vn -0.0011 -1.0000 -0.0017
vn 0.8116 0.0823 -0.5783
vn 0.6619 0.1422 -0.7360
vn -0.5765 -0.0046 -0.8171
vn -0.7009 -0.2716 -0.6596
vn -0.8128 0.0511 0.5803
vn -0.6724 0.0141 0.7400
vn 0.5601 0.1429 0.8160
vn 0.6552 0.3962 0.6432
usemtl Grass
s off
f 7//1 2//1 8//1
f 8//2 2//2 10//2
f 10//3 2//3 12//3
f 12//4 2//4 7//4
f 3//5 5//5 4//5 1//5
f 4//6 13//6 6//6 1//6
f 13//7 12//7 7//7 6//7
f 5//8 11//8 13//8 4//8
f 11//9 10//9 12//9 13//9
f 3//10 9//10 11//10 5//10
f 9//11 8//11 10//11 11//11
f 1//12 6//12 9//12 3//12
f 6//13 7//13 8//13 9//13
o Cube.002_Cube.003
v 0.324698 0.000000 0.043235
v 0.346720 0.607395 -0.126959
v 0.399456 0.000000 -0.027110
v 0.395043 0.000000 0.117994
v 0.469801 0.000000 0.047649
v 0.337586 0.200633 0.025788
v 0.331167 0.405553 -0.044980
v 0.373758 0.405553 -0.061850
v 0.398026 0.200633 -0.020466
v 0.391142 0.417056 -0.020621
v 0.447837 0.207289 0.039307
v 0.348949 0.417056 -0.003395
v 0.388905 0.207289 0.086422
vn -0.3477 -0.3297 -0.8777
vn 0.9216 -0.0017 -0.3881
vn 0.3233 0.5179 0.7920
vn -0.9189 0.2071 0.3356
vn 0.0000 -1.0000 0.0000
vn -0.7429 0.0920 0.6631
vn -0.8323 0.1168 0.5419
vn 0.6556 0.1163 0.7461
vn 0.4941 0.3910 0.7765
vn 0.7443 0.0399 -0.6667
vn 0.8301 0.0260 -0.5570
vn -0.6531 -0.0017 -0.7573
vn -0.5040 -0.2629 -0.8227
usemtl Gras2
s off
f 20//14 15//14 21//14
f 21//15 15//15 23//15
f 23//16 15//16 25//16
f 25//17 15//17 20//17
f 16//18 18//18 17//18 14//18
f 17//19 26//19 19//19 14//19
f 26//20 25//20 20//20 19//20
f 18//21 24//21 26//21 17//21
f 24//22 23//22 25//22 26//22
f 16//23 22//23 24//23 18//23
f 22//24 21//24 23//24 24//24
f 14//25 19//25 22//25 16//25
f 19//26 20//26 21//26 22//26
o Cube.001_Cube.002
v -0.149913 0.000000 0.066737
v -0.321907 0.541069 0.160389
v -0.048614 0.000000 0.088572
v -0.171337 0.000000 0.166267
v -0.070619 0.000000 0.188689
v -0.173006 0.183960 0.071300
v -0.254678 0.357135 0.095087
v -0.210566 0.369142 0.082367
v -0.090763 0.190915 0.078798
v -0.198335 0.369142 0.125940
v -0.096204 0.190915 0.152579
v -0.241459 0.357135 0.138757
v -0.175041 0.183960 0.146322
vn -0.3231 0.2095 -0.9229
vn 0.7717 0.5980 -0.2166
vn 0.2822 0.0106 0.9593
vn -0.8719 -0.4124 0.2639
vn 0.0000 -1.0000 0.0000
vn -0.9881 -0.0775 -0.1328
vn -0.9146 -0.3951 0.0862
vn -0.1614 0.1336 0.9778
vn 0.0357 0.1138 0.9929
vn 0.9697 0.1904 0.1530
vn 0.8493 0.5256 -0.0491
vn 0.1573 0.0137 -0.9875
vn -0.0487 0.0497 -0.9976
usemtl Gras2
s off
f 33//27 28//27 34//27
f 34//28 28//28 36//28
f 36//29 28//29 38//29
f 38//30 28//30 33//30
f 29//31 31//31 30//31 27//31
f 30//32 39//32 32//32 27//32
f 39//33 38//33 33//33 32//33
f 31//34 37//34 39//34 30//34
f 37//35 36//35 38//35 39//35
f 29//36 35//36 37//36 31//36
f 35//37 34//37 36//37 37//37
f 27//38 32//38 35//38 29//38
f 32//39 33//39 34//39 35//39
o Cube_Cube.001
v 0.129812 0.000000 -0.111015
v 0.141868 0.607395 -0.024217
v 0.133343 0.000000 -0.213605
v 0.232403 0.000000 -0.107484
v 0.235934 0.000000 -0.210074
v 0.133431 0.207646 -0.115703
v 0.130217 0.411550 -0.077716
v 0.131744 0.420192 -0.122079
v 0.135945 0.211011 -0.188728
v 0.177913 0.420069 -0.120253
v 0.213370 0.210575 -0.185006
v 0.176385 0.411482 -0.075875
v 0.210852 0.207379 -0.111857
vn -0.9976 0.0653 -0.0216
vn 0.0363 0.4614 -0.8864
vn 0.9856 0.1567 0.0642
vn -0.0389 -0.2612 0.9645
vn 0.0000 -1.0000 0.0000
vn -0.0409 0.0200 0.9990
vn -0.0457 -0.1823 0.9822
vn 0.9940 0.1031 0.0361
vn 0.9867 0.1548 0.0495
vn 0.0403 0.1194 -0.9920
vn 0.0441 0.3030 -0.9520
vn -0.9993 0.0165 -0.0341
vn -0.9993 -0.0090 -0.0353
usemtl Grass
s off
f 46//40 41//40 47//40
f 47//41 41//41 49//41
f 49//42 41//42 51//42
f 51//43 41//43 46//43
f 42//44 44//44 43//44 40//44
f 43//45 52//45 45//45 40//45
f 52//46 51//46 46//46 45//46
f 44//47 50//47 52//47 43//47
f 50//48 49//48 51//48 52//48
f 42//49 48//49 50//49 44//49
f 48//50 47//50 49//50 50//50
f 40//51 45//51 48//51 42//51
f 45//52 46//52 47//52 48//52
