# Blender v2.80 (sub 75) OBJ File: 'FruitHunterContinued.blend'
# www.blender.org
mtllib mushroom1.mtl
o mushroom1_Circle.006
v -0.134328 0.000000 -0.000000
v -0.094984 0.000000 0.094984
v 0.000000 0.000000 0.134328
v 0.094984 0.000000 0.094984
v 0.134328 0.000000 -0.000000
v 0.094984 0.000000 -0.094984
v -0.000000 0.000000 -0.134328
v -0.094984 0.000000 -0.094984
v -0.111493 0.226792 0.000013
v -0.078547 0.226792 0.079552
v 0.000992 0.226792 0.112498
v 0.080531 0.226792 0.079552
v 0.113477 0.226792 0.000012
v 0.080531 0.226792 -0.079527
v 0.000992 0.226792 -0.112473
v -0.078547 0.226792 -0.079527
v -0.289910 0.216244 -0.000000
v -0.204997 0.216244 0.204997
v 0.000000 0.216244 0.289910
v 0.204997 0.216244 0.204997
v 0.289910 0.216244 -0.000000
v 0.204997 0.216244 -0.204997
v -0.000000 0.216244 -0.289910
v -0.204997 0.216244 -0.204997
v -0.317529 0.278190 -0.000000
v -0.224527 0.278190 0.224527
v 0.000000 0.278190 0.317529
v 0.224527 0.278190 0.224527
v 0.317529 0.278190 -0.000000
v 0.224527 0.278190 -0.224527
v -0.000000 0.278190 -0.317529
v -0.224527 0.278190 -0.224527
v -0.095433 0.529063 -0.000000
v -0.067481 0.529063 0.067481
v 0.000000 0.529063 0.095433
v 0.067481 0.529063 0.067481
v 0.095433 0.529063 -0.000000
v 0.067481 0.529063 -0.067481
v -0.000000 0.529063 -0.095433
v -0.067481 0.529063 -0.067481
v 0.155032 0.416640 0.155032
v 0.000000 0.416640 0.219249
v -0.155032 0.416640 0.155032
v -0.219249 0.416640 0.000000
v -0.155032 0.416640 -0.155032
v -0.000000 0.416640 -0.219249
v 0.155032 0.416640 -0.155032
v 0.219249 0.416640 -0.000000
vt 0.935435 0.686114
vt 0.872875 0.797047
vt 0.721842 0.751097
vt 0.871858 0.375016
vt 0.972269 0.306442
vt 0.972269 0.405847
vt 0.771146 0.997161
vt 0.917437 0.915442
vt 0.933850 0.961035
vt 0.738278 0.662772
vt 0.917786 0.634618
vt 0.906327 0.681020
vt 0.729986 0.718759
vt 0.896926 0.775029
vt 0.727053 0.775036
vt 0.729563 0.831323
vt 0.905829 0.869059
vt 0.737683 0.887324
vt 0.751963 0.607359
vt 0.933850 0.588957
vt 0.899383 0.727904
vt 0.899029 0.822164
vt 0.751546 0.942714
vt 0.322562 0.897669
vt 0.558465 0.954754
vt 0.510728 0.991991
vt 0.781525 0.402214
vt 0.644460 0.405140
vt 0.744668 0.374742
vt 0.744977 0.336174
vt 0.741375 0.235758
vt 0.782271 0.309022
vt 0.871858 0.336447
vt 0.876711 0.236050
vt 0.834781 0.402328
vt 0.876710 0.476238
vt 0.741373 0.476526
vt 0.782270 0.402439
vt 0.645256 0.305738
vt 0.834782 0.309135
vt 0.253093 0.597490
vt 0.451585 0.516288
vt 0.465141 0.561072
vt 0.330384 0.089682
vt 0.215057 0.230722
vt 0.163330 0.201013
vt 0.057865 0.340971
vt 0.086575 0.495863
vt 0.023037 0.497035
vt 0.061678 0.652206
vt 0.216685 0.760232
vt 0.167363 0.789543
vt 0.550589 0.001923
vt 0.370530 0.132527
vt 0.118637 0.355802
vt 0.120997 0.635572
vt 0.360740 0.861502
vt 0.452124 0.467596
vt 0.562413 0.440858
vt 0.598816 0.521865
vt 0.445426 0.765244
vt 0.504219 0.573347
vt 0.556037 0.601060
vt 0.620313 0.612179
vt 0.618555 0.812969
vt 0.449351 0.227638
vt 0.490147 0.431673
vt 0.328113 0.296688
vt 0.253146 0.388610
vt 0.227648 0.492808
vt 0.327006 0.691270
vt 0.618823 0.195039
vt 0.538900 0.403748
vt 0.460178 0.471218
vt 0.599054 0.051898
vt 0.784402 0.640164
vt 0.872875 0.640164
vt 0.935435 0.751098
vt 0.784402 0.797047
vt 0.721842 0.686114
vt 0.771146 0.552832
vt 0.739453 0.475944
vt 0.551210 0.552011
vt 0.488526 0.548603
vt 0.447483 0.513637
vt 0.499729 0.437450
vt 0.603456 0.475824
vt 0.600724 0.395306
vn 0.0000 -1.0000 0.0000
vn 0.0245 -0.9979 -0.0592
vn -0.9199 0.0926 -0.3810
vn 0.3812 0.0870 -0.9204
vn 0.9206 0.0846 0.3813
vn -0.3811 0.0902 0.9201
vn -0.3811 0.0903 -0.9201
vn 0.9206 0.0847 -0.3813
vn 0.3812 0.0869 0.9204
vn -0.9199 0.0926 0.3810
vn -0.8542 -0.3809 -0.3538
vn 0.0245 -0.9979 0.0592
vn -0.0597 -0.9979 0.0247
vn -0.0246 -0.9979 -0.0595
vn 0.0590 -0.9980 -0.0244
vn 0.0590 -0.9980 0.0244
vn -0.0246 -0.9979 0.0595
vn -0.0597 -0.9979 -0.0247
vn 0.2682 0.7132 0.6476
vn 0.3538 -0.3809 -0.8542
vn 0.8542 -0.3809 0.3538
vn -0.3538 -0.3809 0.8542
vn -0.3538 -0.3809 -0.8542
vn 0.8542 -0.3809 -0.3538
vn 0.3538 -0.3809 0.8542
vn -0.8542 -0.3809 0.3538
vn 0.0000 1.0000 0.0000
vn -0.6476 0.7132 0.2682
vn -0.6476 0.7132 -0.2682
vn 0.2682 0.7132 -0.6476
vn 0.6476 0.7132 0.2682
vn -0.2682 0.7132 0.6476
vn -0.2682 0.7132 -0.6476
vn 0.6476 0.7132 -0.2682
vn 0.7726 0.5484 -0.3200
vn -0.3200 0.5484 -0.7726
vn -0.3200 0.5484 0.7726
vn 0.7726 0.5484 0.3200
vn 0.3200 0.5484 -0.7726
vn -0.7726 0.5484 -0.3200
vn -0.7726 0.5484 0.3200
vn 0.3200 0.5484 0.7726
g mushroom1_Circle.006_mushroom
usemtl mushroom
s off
f 1/1/1 7/2/1 5/3/1
f 10/4/2 19/5/2 18/6/2
f 8/7/3 9/8/3 16/9/3
f 6/10/4 15/11/4 14/12/4
f 5/13/5 12/14/5 4/15/5
f 3/16/6 10/17/6 2/18/6
f 7/19/7 16/20/7 15/11/7
f 5/13/8 14/12/8 13/21/8
f 4/15/9 11/22/9 3/16/9
f 2/18/10 9/8/10 1/23/10
f 17/24/11 32/25/11 24/26/11
f 16/27/12 23/28/12 15/29/12
f 14/30/13 21/31/13 13/32/13
f 11/33/14 20/34/14 19/5/14
f 9/35/15 18/6/15 17/36/15
f 9/35/16 24/37/16 16/38/16
f 15/29/17 22/39/17 14/30/17
f 12/40/18 21/31/18 20/34/18
f 42/41/19 36/42/19 35/43/19
f 23/44/20 30/45/20 22/46/20
f 21/47/21 28/48/21 20/49/21
f 19/50/22 26/51/22 18/52/22
f 24/53/23 31/54/23 23/44/23
f 22/46/24 29/55/24 21/47/24
f 19/50/25 28/48/25 27/56/25
f 18/52/26 25/57/26 17/24/26
f 37/58/27 39/59/27 33/60/27
f 44/61/28 34/62/28 33/63/28
f 44/61/29 40/64/29 45/65/29
f 46/66/30 38/67/30 47/68/30
f 48/69/31 36/42/31 41/70/31
f 42/41/32 34/62/32 43/71/32
f 45/72/33 39/73/33 46/66/33
f 47/68/34 37/74/34 48/69/34
f 30/45/35 48/69/35 29/55/35
f 32/75/36 46/66/36 31/54/36
f 27/56/37 43/71/37 26/51/37
f 29/55/38 41/70/38 28/48/38
f 31/54/39 47/68/39 30/45/39
f 32/25/40 44/61/40 45/65/40
f 26/51/41 44/61/41 25/57/41
f 28/48/42 42/41/42 27/56/42
f 3/76/1 2/77/1 1/1/1
f 1/1/1 8/78/1 7/2/1
f 7/2/1 6/79/1 5/3/1
f 5/3/1 4/80/1 3/76/1
f 3/76/1 1/1/1 5/3/1
f 10/4/2 11/33/2 19/5/2
f 8/7/3 1/23/3 9/8/3
f 6/10/4 7/19/4 15/11/4
f 5/13/5 13/21/5 12/14/5
f 3/16/6 11/22/6 10/17/6
f 7/19/7 8/81/7 16/20/7
f 5/13/8 6/10/8 14/12/8
f 4/15/9 12/14/9 11/22/9
f 2/18/10 10/17/10 9/8/10
f 17/24/11 25/57/11 32/25/11
f 16/27/12 24/82/12 23/28/12
f 14/30/13 22/39/13 21/31/13
f 11/33/14 12/40/14 20/34/14
f 9/35/15 10/4/15 18/6/15
f 9/35/16 17/36/16 24/37/16
f 15/29/17 23/28/17 22/39/17
f 12/40/18 13/32/18 21/31/18
f 42/41/19 41/70/19 36/42/19
f 23/44/20 31/54/20 30/45/20
f 21/47/21 29/55/21 28/48/21
f 19/50/22 27/56/22 26/51/22
f 24/53/23 32/75/23 31/54/23
f 22/46/24 30/45/24 29/55/24
f 19/50/25 20/49/25 28/48/25
f 18/52/26 26/51/26 25/57/26
f 33/60/27 34/83/27 35/84/27
f 35/84/27 36/85/27 37/58/27
f 37/58/27 38/86/27 39/59/27
f 39/59/27 40/87/27 33/60/27
f 33/60/27 35/84/27 37/58/27
f 44/61/28 43/71/28 34/62/28
f 44/61/29 33/63/29 40/64/29
f 46/66/30 39/73/30 38/67/30
f 48/69/31 37/74/31 36/42/31
f 42/41/32 35/43/32 34/62/32
f 45/72/33 40/88/33 39/73/33
f 47/68/34 38/67/34 37/74/34
f 30/45/35 47/68/35 48/69/35
f 32/75/36 45/72/36 46/66/36
f 27/56/37 42/41/37 43/71/37
f 29/55/38 48/69/38 41/70/38
f 31/54/39 46/66/39 47/68/39
f 32/25/40 25/57/40 44/61/40
f 26/51/41 43/71/41 44/61/41
f 28/48/42 41/70/42 42/41/42
