# Blender v2.81 (sub 16) OBJ File: 'Arrow.blend'
# www.blender.org
mtllib Arrow.mtl
o Cube
v -0.010216 0.010216 0.687018
v -0.010216 -0.010216 0.687018
v -0.038685 0.038685 -0.687018
v -0.038685 -0.038685 -0.687018
v 0.010216 0.010216 0.687018
v 0.010216 -0.010216 0.687018
v 0.038685 0.038685 -0.687018
v 0.038685 -0.038685 -0.687018
v 0.038685 -0.038685 0.410524
v -0.038685 0.038685 0.410524
v 0.038685 0.038685 0.410524
v -0.038685 -0.038685 0.410524
v 0.078215 0.078215 0.413087
v -0.078215 -0.078215 0.413087
v 0.078215 -0.078215 0.413087
v -0.078215 0.078215 0.413087
v -0.023496 0.063045 -0.691249
v -0.023496 -0.063045 -0.691249
v 0.023496 0.063045 -0.691249
v 0.023496 -0.063045 -0.691249
v -0.038685 0.103798 -0.891776
v -0.038685 -0.103798 -0.891776
v 0.038685 0.103798 -0.891776
v 0.038685 -0.103798 -0.891776
vt 0.625000 0.550307
vt 0.875000 0.550307
vt 0.875000 0.750000
vt 0.625000 0.750000
vt 0.125000 0.550307
vt 0.375000 0.550307
vt 0.375000 0.750000
vt 0.125000 0.750000
vt 0.375000 0.000000
vt 0.625000 0.000000
vt 0.625000 0.199693
vt 0.375000 0.199693
vt 0.375000 0.200160
vt 0.625000 0.200160
vt 0.625000 0.250000
vt 0.375000 0.250000
vt 0.625000 0.500000
vt 0.375000 0.500000
vt 0.375000 0.549840
vt 0.625000 0.549840
vt 0.125000 0.549840
vt 0.875000 0.549840
vt 0.875000 0.500000
vt 0.125000 0.500000
vt 0.375000 0.000000
vt 0.625000 0.000000
vt 0.125000 0.750000
vt 0.375000 0.750000
vt 0.375000 0.750000
vt 0.125000 0.750000
vt 0.875000 0.750000
vt 0.625000 0.750000
vt 0.625000 0.750000
vt 0.625000 1.000000
vt 0.375000 1.000000
vt 0.875000 0.750000
vt 0.375000 0.000000
vt 0.625000 0.000000
vn 0.0000 1.0000 0.0000
vn 0.0000 -1.0000 0.0000
vn -1.0000 0.0000 0.0000
vn 1.0000 0.0000 0.0000
vn 0.9705 0.0000 0.2409
vn 0.0000 0.0000 1.0000
vn -0.0647 0.0000 -0.9979
vn 0.0000 -0.0647 -0.9979
vn 0.0000 0.0647 -0.9979
vn 0.0000 0.9705 0.2409
vn 0.0000 -0.9705 0.2409
vn -0.9705 0.0000 0.2409
vn 0.0647 0.0000 -0.9979
vn 0.2684 0.0000 -0.9633
vn 0.0000 -0.9800 0.1992
vn 0.0000 -0.1711 0.9852
vn 0.0000 0.1711 0.9852
vn -0.2684 0.0000 -0.9633
vn 0.0000 0.0000 -1.0000
vn -0.9971 0.0000 0.0755
vn 0.0000 0.9800 0.1992
vn 0.9971 0.0000 0.0755
usemtl Wood
s off
f 10/1/1 11/2/1 7/3/1 3/4/1
f 9/5/2 12/6/2 4/7/2 8/8/2
f 12/6/3 10/1/3 3/4/3 4/7/3
f 8/9/4 7/10/4 11/11/4 9/12/4
usemtl Head
f 15/13/5 13/14/5 5/15/5 6/16/5
f 6/16/6 5/15/6 1/17/6 2/18/6
f 14/19/7 16/20/7 10/1/7 12/6/7
f 15/21/8 14/19/8 12/6/8 9/5/8
f 16/20/9 13/22/9 11/2/9 10/1/9
f 1/17/10 5/23/10 13/22/10 16/20/10
f 6/24/11 2/18/11 14/19/11 15/21/11
f 2/18/12 1/17/12 16/20/12 14/19/12
f 9/12/13 11/11/13 13/14/13 15/13/13
usemtl Feather
f 7/10/14 8/9/14 20/25/14 19/26/14
f 20/27/15 18/28/15 22/29/15 24/30/15
f 8/8/16 4/7/16 18/28/16 20/27/16
f 3/4/17 7/3/17 19/31/17 17/32/17
f 4/7/18 3/4/18 17/32/18 18/28/18
f 22/29/19 21/33/19 23/34/19 24/35/19
f 18/28/20 17/32/20 21/33/20 22/29/20
f 17/32/21 19/31/21 23/36/21 21/33/21
f 19/26/22 20/25/22 24/37/22 23/38/22
