# Blender v2.81 (sub 16) OBJ File: 'arrow.blend'
# www.blender.org
mtllib arrow.mtl
o Cube_Cube.001
v -0.060000 -0.060000 0.000000
v -0.060000 0.060000 0.000000
v -0.060000 -0.060000 -1.000000
v -0.060000 0.060000 -1.000000
v 0.060000 -0.060000 0.000000
v 0.060000 0.060000 0.000000
v 0.060000 -0.060000 -1.000000
v 0.060000 0.060000 -1.000000
v -0.120000 0.120000 -1.000000
v -0.120000 -0.120000 -1.000000
v 0.120000 -0.120000 -1.000000
v 0.120000 0.120000 -1.000000
v 0.000000 0.000000 -1.300000
vt 0.375000 0.000000
vt 0.625000 0.000000
vt 0.625000 0.250000
vt 0.375000 0.250000
vt 0.625000 0.500000
vt 0.375000 0.500000
vt 0.375000 0.500000
vt 0.625000 0.500000
vt 0.625000 0.750000
vt 0.375000 0.750000
vt 0.625000 1.000000
vt 0.375000 1.000000
vt 0.125000 0.500000
vt 0.125000 0.750000
vt 0.875000 0.500000
vt 0.875000 0.750000
vt 0.625000 0.500000
vt 0.125000 0.500000
vt 0.875000 0.500000
vt 0.625000 0.250000
vt 0.375000 0.250000
vt 0.375000 0.500000
vt 0.875000 0.500000
vt 0.375000 0.250000
vn -1.0000 0.0000 0.0000
vn 0.0000 0.0000 1.0000
vn 1.0000 0.0000 0.0000
vn 0.0000 -1.0000 0.0000
vn 0.0000 1.0000 0.0000
vn 0.9285 0.0000 -0.3714
vn 0.0000 -0.9285 -0.3714
vn 0.0000 0.9285 -0.3714
vn -0.9285 0.0000 -0.3714
usemtl None
s off
f 1/1/1 2/2/1 4/3/1 3/4/1
f 8/5/2 7/6/2 11/7/2 12/8/2
f 7/6/3 8/5/3 6/9/3 5/10/3
f 5/10/2 6/9/2 2/11/2 1/12/2
f 3/13/4 7/6/4 5/10/4 1/14/4
f 8/5/5 4/15/5 2/16/5 6/9/5
f 12/8/6 11/7/6 13/17/6
f 7/6/2 3/13/2 10/18/2 11/7/2
f 4/15/2 8/5/2 12/8/2 9/19/2
f 3/4/2 4/3/2 9/20/2 10/21/2
f 11/7/7 10/18/7 13/22/7
f 9/19/8 12/8/8 13/23/8
f 10/21/9 9/20/9 13/24/9
