# Blender v2.79 (sub 0) OBJ File: 'Conveyer.blend'
# www.blender.org
mtllib Conveyer.mtl
o Conveyer_Cube.001
v -0.500000 0.100000 0.200000
v -0.500000 0.100000 -0.200000
v 0.500000 0.100000 0.200000
v 0.500000 0.100000 -0.200000
v 0.400000 -0.100000 -0.200000
v -0.400000 -0.100000 -0.200000
v -0.400000 0.100000 -0.200000
v 0.400000 0.100000 -0.200000
v -0.400000 -0.100000 0.200000
v 0.400000 -0.100000 0.200000
v 0.400000 0.100000 0.200000
v -0.400000 0.100000 0.200000
v 0.400000 -0.000000 -0.200000
v 0.400000 -0.000000 0.200000
v -0.400000 0.000000 0.200000
v -0.400000 0.000000 -0.200000
v -0.500000 0.000000 0.200000
v -0.500000 0.000000 -0.200000
v 0.500000 0.000000 -0.200000
v 0.500000 0.000000 0.200000
vn 0.0000 1.0000 0.0000
vn -1.0000 0.0000 0.0000
vn 1.0000 0.0000 0.0000
vn 0.0000 -1.0000 0.0000
vn 0.0000 0.0000 -1.0000
vn 0.0000 0.0000 1.0000
vn -0.7071 -0.7071 0.0000
vn 0.7071 -0.7071 0.0000
usemtl Metal
s off
f 13//1 16//1 15//1 14//1
usemtl Red
f 17//2 1//2 2//2 18//2
f 19//3 4//3 3//3 20//3
f 7//1 2//1 1//1 12//1
f 4//1 8//1 11//1 3//1
f 7//3 12//3 15//3 16//3
f 6//4 5//4 10//4 9//4
f 5//5 6//5 16//5 13//5
f 15//6 9//6 10//6 14//6
f 11//2 8//2 13//2 14//2
f 17//6 15//6 12//6 1//6
f 9//6 15//6 17//6
f 20//6 14//6 10//6
f 11//6 14//6 20//6 3//6
f 13//5 19//5 5//5
f 8//5 4//5 19//5 13//5
f 18//5 16//5 6//5
f 7//5 16//5 18//5 2//5
f 9//7 17//7 18//7 6//7
f 20//8 10//8 5//8 19//8
