# Blender v2.80 (sub 75) OBJ File: ''
# www.blender.org
mtllib CreditsSign.mtl
o Cube.007
v -0.814491 1.922969 -0.051095
v -0.813946 1.924508 0.078753
v -0.832501 1.613361 0.082519
v -0.833045 1.611822 -0.047329
v 0.927858 1.933067 -0.056609
v 0.928624 1.925511 0.073027
v 0.929398 1.611421 -0.053707
v 0.930037 1.605196 0.076001
vt 0.875000 0.500000
vt 0.875000 0.750000
vt 0.806419 0.750000
vt 0.806419 0.500000
vt 0.556419 0.750000
vt 0.306419 0.500000
vt 0.306419 0.750000
vt 0.556419 0.500000
vt 0.625000 0.500000
vt 0.625000 0.750000
vt 0.556419 0.250000
vt 0.625000 0.250000
vt 0.375000 0.500000
vt 0.375000 0.750000
vt 0.625000 0.250000
vt 0.375000 0.250000
vt 0.375000 0.000000
vt 0.625000 0.000000
vn -0.0034 -0.0104 -0.9999
vn -0.0025 -0.9998 -0.0180
vn -0.9982 0.0596 0.0035
vn 0.0035 0.0106 0.9999
vn 1.0000 0.0046 -0.0052
vn -0.0031 0.9997 0.0232
usemtl Wood1
s off
f 1/1/1 5/2/1 7/3/1 4/4/1
f 4/5/2 7/6/2 8/7/2 3/8/2
f 3/8/3 2/9/3 1/10/3 4/5/3
f 3/8/4 8/11/4 6/12/4 2/9/4
f 7/6/5 5/13/5 6/14/5 8/7/5
f 2/15/6 6/16/6 5/17/6 1/18/6
o Cube.008
v 0.044127 1.087270 0.029338
v 0.044127 -0.118791 0.029338
v 0.044127 1.087270 0.104216
v 0.044127 -0.118791 0.104216
v -0.032003 1.087270 0.029338
v -0.032003 -0.118791 0.029338
v -0.032003 1.087270 0.104216
v -0.032003 -0.118791 0.104216
vt 0.375000 0.000000
vt 0.625000 0.000000
vt 0.625000 0.250000
vt 0.375000 0.250000
vt 0.375000 0.250000
vt 0.625000 0.250000
vt 0.625000 0.500000
vt 0.375000 0.500000
vt 0.625000 0.750000
vt 0.375000 0.750000
vt 0.625000 0.750000
vt 0.625000 1.000000
vt 0.375000 1.000000
vt 0.125000 0.500000
vt 0.375000 0.500000
vt 0.375000 0.750000
vt 0.125000 0.750000
vt 0.625000 0.500000
vt 0.875000 0.500000
vt 0.875000 0.750000
vn 0.0000 1.0000 0.0000
vn 0.0000 0.0000 1.0000
vn -1.0000 0.0000 0.0000
vn 0.0000 -1.0000 0.0000
vn 1.0000 0.0000 0.0000
vn 0.0000 0.0000 -1.0000
usemtl Wood1.002
s off
f 9/19/7 13/20/7 15/21/7 11/22/7
f 12/23/8 11/24/8 15/25/8 16/26/8
f 16/26/9 15/25/9 13/27/9 14/28/9
f 14/28/10 10/29/10 12/30/10 16/31/10
f 10/32/11 9/33/11 11/34/11 12/35/11
f 14/36/12 13/37/12 9/38/12 10/29/12
o Cube.009
v -0.872306 1.607874 -0.058856
v -0.872306 1.607874 0.071002
v -0.872306 1.254712 0.071002
v -0.872306 1.254712 -0.058856
v 0.968844 1.601464 -0.055222
v 0.980783 1.606668 0.073982
v 0.975458 1.252274 -0.053691
v 0.975458 1.252274 0.076167
vt 0.875000 0.500000
vt 0.875000 0.750000
vt 0.806419 0.750000
vt 0.806419 0.500000
vt 0.556419 0.750000
vt 0.306419 0.500000
vt 0.306419 0.750000
vt 0.556419 0.500000
vt 0.625000 0.500000
vt 0.625000 0.750000
vt 0.556419 0.250000
vt 0.625000 0.250000
vt 0.375000 0.500000
vt 0.375000 0.750000
vt 0.625000 0.250000
vt 0.375000 0.250000
vt 0.375000 0.000000
vt 0.625000 0.000000
vn 0.0024 -0.0022 -1.0000
vn -0.0013 -1.0000 0.0000
vn -1.0000 0.0000 0.0000
vn -0.0022 0.0031 1.0000
vn 0.9989 0.0016 -0.0461
vn 0.0021 0.9998 -0.0202
usemtl Wood1.002
s off
f 17/39/13 21/40/13 23/41/13 20/42/13
f 20/43/14 23/44/14 24/45/14 19/46/14
f 19/46/15 18/47/15 17/48/15 20/43/15
f 19/46/16 24/49/16 22/50/16 18/47/16
f 23/44/17 21/51/17 22/52/17 24/45/17
f 18/53/18 22/54/18 21/55/18 17/56/18
o Cube.010
v -0.810047 1.250594 -0.040399
v -0.810047 1.250594 0.089459
v -0.806909 1.001721 0.087536
v -0.806909 1.001721 -0.042322
v 0.901261 1.249448 -0.051774
v 0.901261 1.249448 0.088612
v 0.905264 0.924771 -0.051641
v 0.905264 0.924771 0.088745
vt 0.875000 0.500000
vt 0.875000 0.750000
vt 0.806419 0.750000
vt 0.806419 0.500000
vt 0.556419 0.750000
vt 0.306419 0.500000
vt 0.306419 0.750000
vt 0.556419 0.500000
vt 0.625000 0.500000
vt 0.625000 0.750000
vt 0.556419 0.250000
vt 0.625000 0.250000
vt 0.375000 0.500000
vt 0.375000 0.750000
vt 0.625000 0.250000
vt 0.375000 0.250000
vt 0.375000 0.000000
vt 0.625000 0.000000
vn -0.0060 0.0030 -1.0000
vn -0.0449 -0.9990 0.0000
vn -0.9999 -0.0126 0.0000
vn -0.0002 -0.0031 1.0000
vn 0.9999 0.0123 0.0000
vn 0.0007 1.0000 0.0000
usemtl Wood1.003
s off
f 25/57/19 29/58/19 31/59/19 28/60/19
f 28/61/20 31/62/20 32/63/20 27/64/20
f 27/64/21 26/65/21 25/66/21 28/61/21
f 27/64/22 32/67/22 30/68/22 26/65/22
f 31/62/23 29/69/23 30/70/23 32/63/23
f 26/71/24 30/72/24 29/73/24 25/74/24
o Plane.002
v 0.729201 1.017486 -0.066890
v -0.647810 1.017486 -0.066890
v 0.729201 1.877765 -0.066890
v -0.647810 1.877765 -0.066890
vt 0.000000 0.000000
vt 1.000000 0.000000
vt 1.000000 1.000000
vt 0.000000 1.000000
vn -0.0000 -0.0000 -1.0000
usemtl Material
s off
f 33/75/25 34/76/25 36/77/25 35/78/25
