# Blender v2.80 (sub 75) OBJ File: ''
# www.blender.org
mtllib CreditsSign3.mtl
o Cube
v -1.185483 2.127453 -0.066166
v -1.184713 2.129631 0.095077
v -1.210968 1.689349 0.099754
v -1.211738 1.687171 -0.061489
v 1.279993 2.141742 -0.073013
v 1.281076 2.131050 0.087967
v 1.282172 1.686604 -0.069409
v 1.283076 1.677795 0.091659
vt 0.875000 0.500000
vt 0.875000 0.750000
vt 0.806419 0.750000
vt 0.806419 0.500000
vt 0.556419 0.750000
vt 0.306419 0.500000
vt 0.306419 0.750000
vt 0.556419 0.500000
vt 0.625000 0.500000
vt 0.625000 0.750000
vt 0.556419 0.250000
vt 0.625000 0.250000
vt 0.375000 0.500000
vt 0.375000 0.750000
vt 0.625000 0.250000
vt 0.375000 0.250000
vt 0.375000 0.000000
vt 0.625000 0.000000
vn -0.0030 -0.0092 -1.0000
vn -0.0025 -0.9998 -0.0206
vn -0.9982 0.0596 0.0040
vn 0.0031 0.0093 1.0000
vn 1.0000 0.0046 -0.0059
vn -0.0031 0.9996 0.0264
usemtl Wood1
s off
f 1/1/1 5/2/1 7/3/1 4/4/1
f 4/5/2 7/6/2 8/7/2 3/8/2
f 3/8/3 2/9/3 1/10/3 4/5/3
f 3/8/4 8/11/4 6/12/4 2/9/4
f 7/6/5 5/13/5 6/14/5 8/7/5
f 2/15/6 6/16/6 5/17/6 1/18/6
o Cube.001
v 0.032426 1.087270 0.029338
v 0.032426 -0.118791 0.029338
v 0.032426 1.087270 0.104216
v 0.032426 -0.118791 0.104216
v -0.043703 1.087270 0.029338
v -0.043703 -0.118791 0.029338
v -0.043703 1.087270 0.104216
v -0.043703 -0.118791 0.104216
vt 0.375000 0.000000
vt 0.625000 0.000000
vt 0.625000 0.250000
vt 0.375000 0.250000
vt 0.375000 0.250000
vt 0.625000 0.250000
vt 0.625000 0.500000
vt 0.375000 0.500000
vt 0.625000 0.750000
vt 0.375000 0.750000
vt 0.625000 0.750000
vt 0.625000 1.000000
vt 0.375000 1.000000
vt 0.125000 0.500000
vt 0.375000 0.500000
vt 0.375000 0.750000
vt 0.125000 0.750000
vt 0.625000 0.500000
vt 0.875000 0.500000
vt 0.875000 0.750000
vn 0.0000 1.0000 0.0000
vn 0.0000 0.0000 1.0000
vn -1.0000 0.0000 0.0000
vn 0.0000 -1.0000 0.0000
vn 1.0000 0.0000 0.0000
vn 0.0000 0.0000 -1.0000
usemtl Wood1.002
s off
f 9/19/7 13/20/7 15/21/7 11/22/7
f 12/23/8 11/24/8 15/25/8 16/26/8
f 16/26/9 15/25/9 13/27/9 14/28/9
f 14/28/10 10/29/10 12/30/10 16/31/10
f 10/32/11 9/33/11 11/34/11 12/35/11
f 14/36/12 13/37/12 9/38/12 10/29/12
o Cube.005
v -1.267293 1.681585 -0.075804
v -1.267293 1.681585 0.085452
v -1.267293 1.181850 0.085452
v -1.267293 1.181850 -0.075804
v 1.337989 1.672515 -0.071290
v 1.354883 1.679878 0.089152
v 1.347347 1.178400 -0.069390
v 1.347347 1.178400 0.091866
vt 0.875000 0.500000
vt 0.875000 0.750000
vt 0.806419 0.750000
vt 0.806419 0.500000
vt 0.556419 0.750000
vt 0.306419 0.500000
vt 0.306419 0.750000
vt 0.556419 0.500000
vt 0.625000 0.500000
vt 0.625000 0.750000
vt 0.556419 0.250000
vt 0.625000 0.250000
vt 0.375000 0.500000
vt 0.375000 0.750000
vt 0.625000 0.250000
vt 0.375000 0.250000
vt 0.375000 0.000000
vt 0.625000 0.000000
vn 0.0021 -0.0019 -1.0000
vn -0.0013 -1.0000 0.0000
vn -1.0000 0.0000 0.0000
vn -0.0019 0.0027 1.0000
vn 0.9986 0.0016 -0.0525
vn 0.0021 0.9997 -0.0230
usemtl Wood1.002
s off
f 17/39/13 21/40/13 23/41/13 20/42/13
f 20/43/14 23/44/14 24/45/14 19/46/14
f 19/46/15 18/47/15 17/48/15 20/43/15
f 19/46/16 24/49/16 22/50/16 18/47/16
f 23/44/17 21/51/17 22/52/17 24/45/17
f 18/53/18 22/54/18 21/55/18 17/56/18
o Cube.006
v -1.179195 1.176022 -0.052885
v -1.179195 1.176022 0.108371
v -1.174755 0.823859 0.105983
v -1.174755 0.823859 -0.055273
v 1.242357 1.174401 -0.067010
v 1.242357 1.174401 0.107320
v 1.248021 0.714973 -0.066845
v 1.248021 0.714973 0.107486
vt 0.875000 0.500000
vt 0.875000 0.750000
vt 0.806419 0.750000
vt 0.806419 0.500000
vt 0.556419 0.750000
vt 0.306419 0.500000
vt 0.306419 0.750000
vt 0.556419 0.500000
vt 0.625000 0.500000
vt 0.625000 0.750000
vt 0.556419 0.250000
vt 0.625000 0.250000
vt 0.375000 0.500000
vt 0.375000 0.750000
vt 0.625000 0.250000
vt 0.375000 0.250000
vt 0.375000 0.000000
vt 0.625000 0.000000
vn -0.0052 0.0027 -1.0000
vn -0.0449 -0.9990 0.0000
vn -0.9999 -0.0126 0.0000
vn -0.0002 -0.0027 1.0000
vn 0.9999 0.0123 0.0000
vn 0.0007 1.0000 0.0000
usemtl Wood1.003
s off
f 25/57/19 29/58/19 31/59/19 28/60/19
f 28/61/20 31/62/20 32/63/20 27/64/20
f 27/64/21 26/65/21 25/66/21 28/61/21
f 27/64/22 32/67/22 30/68/22 26/65/22
f 31/62/23 29/69/23 30/70/23 32/63/23
f 26/71/24 30/72/24 29/73/24 25/74/24
o Plane.002
v 0.983547 0.858585 -0.098801
v -0.902155 0.858585 -0.098801
v 0.983547 2.036666 -0.098801
v -0.902155 2.036666 -0.098801
vt 0.000000 0.000000
vt 1.000000 0.000000
vt 1.000000 1.000000
vt 0.000000 1.000000
vn -0.0000 -0.0000 -1.0000
usemtl Material
s off
f 33/75/25 34/76/25 36/77/25 35/78/25
