# Blender v2.80 (sub 75) OBJ File: 'FruitHunterContinued.blend'
# www.blender.org
mtllib FenceNoEnd.mtl
o Plane.004_Plane.005
v -0.045801 1.348838 1.008736
v -0.049765 1.360018 1.149097
v 0.088081 1.319409 1.009713
v 0.096219 1.327945 1.151174
v -0.097894 -0.534777 0.985862
v -0.067970 -0.529824 1.215864
v 0.078330 -0.527136 0.980153
v 0.089925 -0.534234 1.150932
v -0.062209 0.773355 1.007070
v 0.082271 0.766787 1.009916
v -0.055408 0.768221 1.171991
v 0.096970 0.758945 1.167397
vt 0.837451 0.000000
vt 0.837451 1.000000
vt 1.000000 1.000000
vt 1.000000 0.000000
vt 0.837451 0.000000
vt 1.000000 0.000000
vt 1.000000 1.000000
vt 0.837451 1.000000
vt 0.089910 0.000000
vt 0.089910 1.000000
vt 0.089910 1.000000
vt 0.089910 0.000000
vn -0.9998 0.0190 0.0089
vn 0.9971 -0.0056 -0.0762
vn 0.2148 0.9740 -0.0713
vn 0.0084 -0.9999 -0.0062
vn 0.0139 0.0010 -0.9999
vn 0.2190 0.0087 0.9757
vn 0.0131 0.0336 0.9993
vn -0.0090 0.0197 -0.9998
vn 0.9968 -0.0028 -0.0800
vn -0.9955 0.0192 0.0926
usemtl wooden_fence
s off
f 9/1/1 11/2/1 2/3/1 1/4/1
f 10/5/2 3/6/2 4/7/2 12/8/2
f 1/4/3 2/3/3 4/7/3 3/6/3
f 7/9/4 8/10/4 6/11/4 5/12/4
f 9/1/5 1/4/5 3/6/5 10/5/5
f 11/2/6 6/11/6 8/10/6 12/8/6
f 2/3/7 11/2/7 12/8/7 4/7/7
f 5/12/8 9/1/8 10/5/8 7/9/8
f 7/9/9 10/5/9 12/8/9 8/10/9
f 5/12/10 6/11/10 11/2/10 9/1/10
o Plane.006_Plane.007
v -0.046052 0.649365 1.252682
v -0.039320 0.540072 1.269645
v 0.073222 0.634406 1.259995
v 0.080559 0.530077 1.275354
v -0.043926 0.663712 -1.149596
v -0.036337 0.532500 -1.164649
v 0.075164 0.668622 -1.132364
v 0.082753 0.537411 -1.147417
v -0.044600 0.676674 -0.368509
v -0.045343 0.648966 0.451923
v 0.074551 0.674854 -0.354583
v 0.073869 0.641331 0.462542
v -0.038326 0.542167 0.458214
v -0.037297 0.545024 -0.372889
v 0.081290 0.537564 0.467763
v 0.082056 0.544963 -0.359499
vt 0.696637 0.000000
vt 0.696637 1.000000
vt 1.000000 1.000000
vt 1.000000 0.000000
vt 0.696637 0.000000
vt 1.000000 0.000000
vt 1.000000 1.000000
vt 0.696637 1.000000
vt 0.089910 0.000000
vt 0.089910 1.000000
vt 0.089910 1.000000
vt 0.089910 0.000000
vt 0.393273 1.000000
vt 0.393273 1.000000
vt 0.393274 0.000000
vt 0.393274 0.000000
vn -0.9980 -0.0636 -0.0011
vn 0.9975 0.0709 0.0015
vn -0.0385 0.1470 0.9884
vn 0.1373 0.1207 -0.9831
vn 0.0940 0.9956 0.0041
vn 0.0187 -0.9997 0.0127
vn -0.0605 -0.9982 -0.0060
vn -0.0189 -0.9998 -0.0062
vn -0.0114 0.9999 -0.0123
vn 0.0358 0.9987 0.0374
vn 0.9983 0.0577 0.0003
vn 0.9980 0.0638 0.0025
vn -0.9984 -0.0566 -0.0001
vn -0.9982 -0.0600 -0.0022
usemtl wooden_fence.001
s off
f 22/13/11 25/14/11 14/15/11 13/16/11
f 24/17/12 15/18/12 16/19/12 27/20/12
f 13/16/13 14/15/13 16/19/13 15/18/13
f 19/21/14 20/22/14 18/23/14 17/24/14
f 22/13/15 13/16/15 15/18/15 24/17/15
f 26/25/16 18/23/16 20/22/16 28/26/16
f 14/15/17 25/14/17 27/20/17 16/19/17
f 25/14/18 26/25/18 28/26/18 27/20/18
f 17/24/19 21/27/19 23/28/19 19/21/19
f 21/27/20 22/13/20 24/17/20 23/28/20
f 19/21/21 23/28/21 28/26/21 20/22/21
f 23/28/22 24/17/22 27/20/22 28/26/22
f 17/24/23 18/23/23 26/25/23 21/27/23
f 21/27/24 26/25/24 25/14/24 22/13/24
o Plane.007_Plane.008
v -0.031906 1.146802 -1.178985
v 0.060740 0.989745 -1.179505
v 0.053074 0.983440 1.269640
v -0.033729 0.991973 1.256255
v 0.057341 1.140705 1.268196
v -0.036492 0.975830 -1.188524
v -0.032955 1.156442 1.257931
v 0.061425 1.140885 -1.172620
v -0.034562 0.999799 0.519197
v -0.037595 0.982247 -0.305860
v -0.036845 1.139589 -0.308249
v -0.032639 1.176596 0.523243
v 0.055450 1.132384 -0.299419
v 0.058572 1.163024 0.532332
v 0.055385 0.997924 0.531265
v 0.055665 0.989370 -0.295022
vt 0.725624 0.000000
vt 0.725624 1.000000
vt 1.000000 1.000000
vt 1.000000 0.000000
vt 0.725624 0.000000
vt 1.000000 0.000000
vt 1.000000 1.000000
vt 0.725624 1.000000
vt 0.089910 0.000000
vt 0.089910 1.000000
vt 0.089910 1.000000
vt 0.089910 0.000000
vt 0.422260 1.000000
vt 0.422260 1.000000
vt 0.422260 0.000000
vt 0.422260 0.000000
vn -1.0000 0.0079 0.0005
vn 0.9997 -0.0231 0.0018
vn -0.1322 0.0014 0.9912
vn 0.0783 0.0495 -0.9957
vn 0.1564 0.9873 0.0287
vn 0.1094 -0.9940 0.0038
vn -0.0566 -0.9983 -0.0152
vn 0.0267 -0.9995 0.0158
vn 0.0697 0.9975 0.0094
vn 0.1163 0.9924 -0.0409
vn 1.0000 -0.0016 0.0063
vn 1.0000 -0.0097 -0.0015
vn -0.9999 0.0163 -0.0034
vn -1.0000 0.0080 0.0041
usemtl wooden_fence.002
s off
f 40/29/25 37/30/25 32/31/25 35/32/25
f 42/33/26 33/34/26 31/35/26 43/36/26
f 35/32/27 32/31/27 31/35/27 33/34/27
f 36/37/28 30/38/28 34/39/28 29/40/28
f 40/29/29 35/32/29 33/34/29 42/33/29
f 38/41/30 34/39/30 30/38/30 44/42/30
f 32/31/31 37/30/31 43/36/31 31/35/31
f 37/30/32 38/41/32 44/42/32 43/36/32
f 29/40/33 39/43/33 41/44/33 36/37/33
f 39/43/34 40/29/34 42/33/34 41/44/34
f 36/37/35 41/44/35 44/42/35 30/38/35
f 41/44/36 42/33/36 43/36/36 44/42/36
f 29/40/37 34/39/37 38/41/37 39/43/37
f 39/43/38 38/41/38 37/30/38 40/29/38
