# Blender v2.79 (sub 0) OBJ File: 'Metal.blend'
# www.blender.org
mtllib Iron.mtl
o Cube_Cube.001
v -0.176470 0.000803 0.157221
v -0.146041 0.062677 0.138490
v -0.176470 0.000803 0.043154
v -0.146041 0.062677 0.061885
v 0.176470 0.000803 0.157221
v 0.146041 0.062677 0.138490
v 0.176470 0.000803 0.043154
v 0.146041 0.062677 0.061885
v -0.176470 0.000803 -0.043499
v -0.146041 0.062677 -0.062230
v -0.176470 0.000803 -0.157566
v -0.146041 0.062677 -0.138835
v 0.176470 0.000803 -0.043499
v 0.146041 0.062677 -0.062230
v 0.176470 0.000803 -0.157566
v 0.146041 0.062677 -0.138835
v 0.137033 0.062651 0.175938
v 0.118302 0.124525 0.145509
v 0.022967 0.062651 0.175938
v 0.041698 0.124525 0.145509
v 0.137033 0.062651 -0.177003
v 0.118302 0.124525 -0.146574
v 0.022967 0.062651 -0.177003
v 0.041698 0.124525 -0.146574
v -0.022967 0.062651 0.175938
v -0.041698 0.124525 0.145509
v -0.137033 0.062651 0.175938
v -0.118302 0.124525 0.145509
v -0.022967 0.062651 -0.177003
v -0.041698 0.124525 -0.146574
v -0.137033 0.062651 -0.177003
v -0.118302 0.124525 -0.146574
vn -0.8974 0.4413 0.0000
vn 0.0000 0.2897 -0.9571
vn 0.8974 0.4413 0.0000
vn 0.0000 0.2897 0.9571
vn 0.0000 -1.0000 0.0000
vn 0.0000 1.0000 0.0000
vn 0.0000 0.4413 0.8974
vn -0.9571 0.2897 -0.0000
vn -0.0000 0.4413 -0.8974
vn 0.9571 0.2897 0.0000
usemtl Metal
s off
f 1//1 2//1 4//1 3//1
f 3//2 4//2 8//2 7//2
f 7//3 8//3 6//3 5//3
f 5//4 6//4 2//4 1//4
f 3//5 7//5 5//5 1//5
f 8//6 4//6 2//6 6//6
f 9//1 10//1 12//1 11//1
f 11//2 12//2 16//2 15//2
f 15//3 16//3 14//3 13//3
f 13//4 14//4 10//4 9//4
f 11//5 15//5 13//5 9//5
f 16//6 12//6 10//6 14//6
f 17//7 18//7 20//7 19//7
f 19//8 20//8 24//8 23//8
f 23//9 24//9 22//9 21//9
f 21//10 22//10 18//10 17//10
f 19//5 23//5 21//5 17//5
f 24//6 20//6 18//6 22//6
f 25//7 26//7 28//7 27//7
f 27//8 28//8 32//8 31//8
f 31//9 32//9 30//9 29//9
f 29//10 30//10 26//10 25//10
f 27//5 31//5 29//5 25//5
f 32//6 28//6 26//6 30//6
