# Blender v2.79 (sub 0) OBJ File: 'IronPlates.blend'
# www.blender.org
mtllib IronPlates.mtl
o Cube_Cube.001
v -0.160000 -0.000022 0.160000
v -0.160000 0.009977 0.160000
v -0.160000 -0.000022 -0.160000
v -0.160000 0.009977 -0.160000
v 0.160000 -0.000022 0.160000
v 0.160000 0.009977 0.160000
v 0.160000 -0.000022 -0.160000
v 0.160000 0.009977 -0.160000
v 0.058564 0.019977 -0.218564
v 0.058564 0.009978 -0.218564
v 0.218564 0.019977 0.058564
v 0.218564 0.009978 0.058564
v -0.218564 0.019977 -0.058564
v -0.218564 0.009978 -0.058564
v -0.058564 0.019977 0.218564
v -0.058564 0.009978 0.218564
v 0.205074 0.029977 -0.095628
v 0.205074 0.019978 -0.095628
v 0.095628 0.029977 0.205074
v 0.095628 0.019978 0.205074
v -0.095628 0.029977 -0.205074
v -0.095628 0.019978 -0.205074
v -0.205074 0.029977 0.095628
v -0.205074 0.019978 0.095628
v 0.185353 0.039977 -0.129786
v 0.185353 0.029978 -0.129786
v 0.129786 0.039977 0.185353
v 0.129786 0.029978 0.185353
v -0.129786 0.039977 -0.185353
v -0.129786 0.029978 -0.185353
v -0.185353 0.039977 0.129786
v -0.185353 0.029978 0.129786
v 0.160000 0.049977 -0.160000
v 0.160000 0.039978 -0.160000
v 0.160000 0.049977 0.160000
v 0.160000 0.039978 0.160000
v -0.160000 0.049977 -0.160000
v -0.160000 0.039978 -0.160000
v -0.160000 0.049977 0.160000
v -0.160000 0.039978 0.160000
vn 0.0000 -1.0000 0.0000
vn 0.3420 0.0000 -0.9397
vn -0.9397 0.0000 -0.3420
vn -0.3420 0.0000 0.9397
vn 0.0000 1.0000 0.0000
vn 0.9397 0.0000 0.3420
vn -0.5000 0.0000 -0.8660
vn -0.8660 0.0000 0.5000
vn 0.5000 0.0000 0.8660
vn 0.8660 0.0000 -0.5000
vn 0.1736 0.0000 -0.9848
vn -0.9848 0.0000 -0.1736
vn -0.1736 0.0000 0.9848
vn 0.9848 0.0000 0.1736
vn -1.0000 0.0000 0.0000
vn 0.0000 0.0000 -1.0000
vn 1.0000 0.0000 0.0000
vn 0.0000 0.0000 1.0000
usemtl Metal
s off
f 22//1 18//1 20//1 24//1
f 22//2 21//2 17//2 18//2
f 24//3 23//3 21//3 22//3
f 20//4 19//4 23//4 24//4
f 17//5 21//5 23//5 19//5
f 18//6 17//6 19//6 20//6
usemtl Metal.001
f 14//1 10//1 12//1 16//1
f 14//7 13//7 9//7 10//7
f 16//8 15//8 13//8 14//8
f 12//9 11//9 15//9 16//9
f 9//5 13//5 15//5 11//5
f 10//10 9//10 11//10 12//10
f 30//1 26//1 28//1 32//1
f 30//11 29//11 25//11 26//11
f 32//12 31//12 29//12 30//12
f 28//13 27//13 31//13 32//13
f 25//5 29//5 31//5 27//5
f 26//14 25//14 27//14 28//14
usemtl Metal.002
f 1//15 2//15 4//15 3//15
f 3//16 4//16 8//16 7//16
f 7//17 8//17 6//17 5//17
f 5//18 6//18 2//18 1//18
f 3//1 7//1 5//1 1//1
f 8//5 4//5 2//5 6//5
f 38//1 34//1 36//1 40//1
f 38//16 37//16 33//16 34//16
f 40//15 39//15 37//15 38//15
f 36//18 35//18 39//18 40//18
f 33//5 37//5 39//5 35//5
f 34//17 33//17 35//17 36//17
