# Blender v2.80 (sub 75) OBJ File: 'FruitHunterContinued.blend'
# www.blender.org
mtllib mushroom3.mtl
o mushroom3_Circle.008
v -0.077336 0.000000 0.000003
v -0.054623 0.000000 0.054836
v 0.000210 0.000000 0.077548
v 0.055043 0.000000 0.054836
v 0.077755 0.000000 0.000003
v 0.055043 0.000000 -0.054830
v 0.000210 0.000000 -0.077543
v -0.054623 0.000000 -0.054830
v -0.084143 0.435761 -0.003626
v -0.065850 0.434126 0.042555
v -0.020333 0.430745 0.062226
v 0.025743 0.427599 0.043863
v 0.045388 0.426530 -0.001777
v 0.027094 0.428165 -0.047959
v -0.018422 0.431546 -0.067630
v -0.064498 0.434692 -0.049267
v -0.186555 0.446684 -0.005076
v -0.139482 0.442477 0.113758
v -0.022360 0.433777 0.164375
v 0.096201 0.425681 0.117123
v 0.146751 0.422931 -0.000317
v 0.099678 0.427139 -0.119152
v -0.017443 0.435838 -0.169768
v -0.136004 0.443934 -0.122516
v -0.198505 0.502990 -0.004905
v -0.146947 0.498382 0.125251
v -0.018668 0.488854 0.180689
v 0.111188 0.479987 0.128936
v 0.166554 0.476975 0.000307
v 0.114997 0.481583 -0.129848
v -0.013282 0.491111 -0.185286
v -0.143139 0.499978 -0.133533
v -0.054933 0.717340 -0.001470
v -0.039438 0.715956 0.037648
v -0.000884 0.713092 0.054310
v 0.038144 0.710427 0.038756
v 0.054784 0.709522 0.000097
v 0.039289 0.710906 -0.039021
v 0.000735 0.713770 -0.055683
v -0.038293 0.716435 -0.040129
v 0.080605 0.606396 0.089206
v -0.009059 0.612519 0.124941
v -0.097634 0.619098 0.086662
v -0.133234 0.622280 -0.003208
v -0.095005 0.620200 -0.092024
v -0.005341 0.614077 -0.127759
v 0.083234 0.607498 -0.089480
v 0.118834 0.604316 0.000390
v -0.100432 0.286276 -0.004791
v -0.079156 0.285119 -0.054222
v -0.029253 0.281711 -0.074110
v 0.020043 0.278050 -0.052805
v 0.039856 0.276279 -0.002788
v 0.018579 0.277436 0.046642
v -0.031323 0.280844 0.066530
v -0.080619 0.284506 0.045226
vt 0.872875 0.797047
vt 0.721842 0.751097
vt 0.784402 0.640164
vt 0.871858 0.375016
vt 0.972269 0.306442
vt 0.972269 0.405847
vt 0.864267 0.976485
vt 0.917437 0.915442
vt 0.933850 0.961035
vt 0.834459 0.673216
vt 0.917786 0.634618
vt 0.906327 0.681020
vt 0.826938 0.723993
vt 0.896926 0.775029
vt 0.824278 0.775032
vt 0.826555 0.826081
vt 0.905829 0.869059
vt 0.833919 0.876870
vt 0.846870 0.622960
vt 0.933850 0.588957
vt 0.899383 0.727904
vt 0.899029 0.822164
vt 0.846492 0.927105
vt 0.322562 0.897669
vt 0.558465 0.954754
vt 0.510728 0.991991
vt 0.781525 0.402214
vt 0.644460 0.405140
vt 0.744668 0.374742
vt 0.744977 0.336174
vt 0.741375 0.235758
vt 0.782271 0.309022
vt 0.871858 0.336447
vt 0.876711 0.236050
vt 0.834781 0.402328
vt 0.876710 0.476238
vt 0.741373 0.476526
vt 0.782270 0.402439
vt 0.645256 0.305738
vt 0.834782 0.309135
vt 0.253093 0.597490
vt 0.451585 0.516288
vt 0.465141 0.561072
vt 0.163330 0.201013
vt 0.370530 0.132527
vt 0.215057 0.230722
vt 0.057865 0.340971
vt 0.086575 0.495863
vt 0.023037 0.497035
vt 0.061678 0.652206
vt 0.216685 0.760232
vt 0.167363 0.789543
vt 0.330384 0.089682
vt 0.599054 0.051898
vt 0.118637 0.355802
vt 0.120997 0.635572
vt 0.360740 0.861502
vt 0.452181 0.467990
vt 0.574959 0.455507
vt 0.592185 0.545743
vt 0.327006 0.691270
vt 0.556037 0.601060
vt 0.445426 0.765244
vt 0.618555 0.812969
vt 0.620313 0.612179
vt 0.449351 0.227638
vt 0.490147 0.431673
vt 0.328113 0.296688
vt 0.253146 0.388610
vt 0.227648 0.492808
vt 0.504219 0.573347
vt 0.600724 0.395306
vt 0.538900 0.403748
vt 0.460178 0.471218
vt 0.618823 0.195039
vt 0.751546 0.942714
vt 0.729563 0.831323
vt 0.738278 0.662772
vt 0.729986 0.718759
vt 0.771146 0.552832
vt 0.751963 0.607359
vt 0.737683 0.887324
vt 0.727053 0.775036
vt 0.771146 0.997161
vt 0.872875 0.640164
vt 0.935435 0.686114
vt 0.935435 0.751098
vt 0.784402 0.797047
vt 0.721842 0.686114
vt 0.864267 0.573508
vt 0.739453 0.475944
vt 0.550589 0.001923
vt 0.534364 0.570673
vt 0.469407 0.558226
vt 0.435366 0.515693
vt 0.510002 0.443060
vt 0.609001 0.498040
vn 0.0000 -1.0000 0.0000
vn -0.0860 -0.9959 0.0279
vn -0.9128 0.1025 -0.3953
vn 0.3974 0.0110 -0.9176
vn 0.9176 -0.0364 0.3958
vn -0.3927 0.0551 0.9180
vn -0.3655 0.0666 -0.9284
vn 0.9289 -0.0317 -0.3691
vn 0.3702 -0.0005 0.9290
vn -0.9241 0.0978 0.3695
vn -0.9033 -0.1905 -0.3844
vn -0.0850 -0.9955 -0.0426
vn -0.0352 -0.9992 -0.0214
vn -0.0568 -0.9980 0.0285
vn -0.1062 -0.9943 0.0068
vn -0.1057 -0.9941 -0.0222
vn -0.0557 -0.9975 -0.0425
vn -0.0356 -0.9993 0.0081
vn 0.3466 0.5201 0.7806
vn 0.3638 -0.2771 -0.8893
vn 0.8668 -0.3220 0.3807
vn -0.4002 -0.2355 0.8856
vn -0.3740 -0.2245 -0.8999
vn 0.8777 -0.3175 -0.3589
vn 0.3375 -0.2881 0.8962
vn -0.9142 -0.1951 0.3552
vn 0.0710 0.9975 0.0072
vn -0.7359 0.6005 0.3128
vn -0.7265 0.6044 -0.3269
vn 0.3694 0.5296 -0.7636
vn 0.8045 0.4907 0.3348
vn -0.2914 0.5655 0.7715
vn -0.2687 0.5750 -0.7727
vn 0.8139 0.4946 -0.3049
vn 0.8814 0.3305 -0.3374
vn -0.3113 0.4191 -0.8529
vn -0.3363 0.4086 0.8485
vn 0.8710 0.3262 0.3673
vn 0.3917 0.3690 -0.8429
vn -0.8157 0.4515 -0.3617
vn -0.8261 0.4471 0.3431
vn 0.3666 0.3585 0.8585
vn -0.9283 -0.0688 0.3653
vn 0.3737 0.0782 0.9242
vn 0.9170 0.1220 -0.3798
vn -0.3825 -0.0288 -0.9235
vn -0.3970 -0.0053 0.9178
vn 0.9117 0.1313 0.3893
vn 0.3821 0.0548 -0.9225
vn -0.9210 -0.0784 -0.3815
vn -0.9215 -0.0713 0.3817
vn 0.3815 0.0773 0.9211
vn 0.9245 0.1190 -0.3620
vn -0.3718 -0.0300 -0.9278
vn -0.3827 -0.0067 0.9239
vn 0.9161 0.1295 0.3795
vn 0.3995 0.0529 -0.9152
vn -0.9162 -0.0805 -0.3925
g mushroom3_Circle.008_mushroom3
usemtl mushroom3
s off
f 7/1/1 5/2/1 3/3/1
f 10/4/2 19/5/2 18/6/2
f 50/7/3 9/8/3 16/9/3
f 52/10/4 15/11/4 14/12/4
f 53/13/5 12/14/5 54/15/5
f 55/16/6 10/17/6 56/18/6
f 51/19/7 16/20/7 15/11/7
f 53/13/8 14/12/8 13/21/8
f 54/15/9 11/22/9 55/16/9
f 56/18/10 9/8/10 49/23/10
f 17/24/11 32/25/11 24/26/11
f 16/27/12 23/28/12 15/29/12
f 14/30/13 21/31/13 13/32/13
f 11/33/14 20/34/14 19/5/14
f 9/35/15 18/6/15 17/36/15
f 9/35/16 24/37/16 16/38/16
f 15/29/17 22/39/17 14/30/17
f 12/40/18 21/31/18 20/34/18
f 42/41/19 36/42/19 35/43/19
f 22/44/20 31/45/20 30/46/20
f 21/47/21 28/48/21 20/49/21
f 19/50/22 26/51/22 18/52/22
f 23/53/23 32/54/23 31/45/23
f 22/44/24 29/55/24 21/47/24
f 20/49/25 27/56/25 19/50/25
f 17/24/26 26/51/26 25/57/26
f 37/58/27 39/59/27 33/60/27
f 43/61/28 33/62/28 44/63/28
f 45/64/29 33/62/29 40/65/29
f 46/66/30 38/67/30 47/68/30
f 48/69/31 36/42/31 41/70/31
f 42/41/32 34/71/32 43/61/32
f 46/66/33 40/72/33 39/73/33
f 48/69/34 38/67/34 37/74/34
f 30/46/35 48/69/35 29/55/35
f 31/45/36 45/75/36 46/66/36
f 27/56/37 43/61/37 26/51/37
f 29/55/38 41/70/38 28/48/38
f 31/45/39 47/68/39 30/46/39
f 32/25/40 44/63/40 45/64/40
f 26/51/41 44/63/41 25/57/41
f 28/48/42 42/41/42 27/56/42
f 1/76/43 56/18/43 49/23/43
f 3/77/44 54/15/44 55/16/44
f 6/78/45 53/13/45 5/79/45
f 8/80/46 51/19/46 7/81/46
f 2/82/47 55/16/47 56/18/47
f 4/83/48 53/13/48 54/15/48
f 7/81/49 52/10/49 6/78/49
f 1/76/50 50/7/50 8/84/50
f 3/3/1 2/85/1 1/86/1
f 1/86/1 8/87/1 7/1/1
f 7/1/1 6/88/1 5/2/1
f 5/2/1 4/89/1 3/3/1
f 3/3/1 1/86/1 7/1/1
f 10/4/2 11/33/2 19/5/2
f 50/7/3 49/23/3 9/8/3
f 52/10/4 51/19/4 15/11/4
f 53/13/5 13/21/5 12/14/5
f 55/16/6 11/22/6 10/17/6
f 51/19/7 50/90/7 16/20/7
f 53/13/8 52/10/8 14/12/8
f 54/15/9 12/14/9 11/22/9
f 56/18/10 10/17/10 9/8/10
f 17/24/11 25/57/11 32/25/11
f 16/27/12 24/91/12 23/28/12
f 14/30/13 22/39/13 21/31/13
f 11/33/14 12/40/14 20/34/14
f 9/35/15 10/4/15 18/6/15
f 9/35/16 17/36/16 24/37/16
f 15/29/17 23/28/17 22/39/17
f 12/40/18 13/32/18 21/31/18
f 42/41/19 41/70/19 36/42/19
f 22/44/20 23/53/20 31/45/20
f 21/47/21 29/55/21 28/48/21
f 19/50/22 27/56/22 26/51/22
f 23/53/23 24/92/23 32/54/23
f 22/44/24 30/46/24 29/55/24
f 20/49/25 28/48/25 27/56/25
f 17/24/26 18/52/26 26/51/26
f 33/60/27 34/93/27 35/94/27
f 35/94/27 36/95/27 33/60/27
f 36/95/27 37/58/27 33/60/27
f 37/58/27 38/96/27 39/59/27
f 39/59/27 40/97/27 33/60/27
f 43/61/28 34/71/28 33/62/28
f 45/64/29 44/63/29 33/62/29
f 46/66/30 39/73/30 38/67/30
f 48/69/31 37/74/31 36/42/31
f 42/41/32 35/43/32 34/71/32
f 46/66/33 45/75/33 40/72/33
f 48/69/34 47/68/34 38/67/34
f 30/46/35 47/68/35 48/69/35
f 31/45/36 32/54/36 45/75/36
f 27/56/37 42/41/37 43/61/37
f 29/55/38 48/69/38 41/70/38
f 31/45/39 46/66/39 47/68/39
f 32/25/40 25/57/40 44/63/40
f 26/51/41 43/61/41 44/63/41
f 28/48/42 41/70/42 42/41/42
f 1/76/51 2/82/51 56/18/51
f 3/77/52 4/83/52 54/15/52
f 6/78/53 52/10/53 53/13/53
f 8/80/54 50/90/54 51/19/54
f 2/82/55 3/77/55 55/16/55
f 4/83/56 5/79/56 53/13/56
f 7/81/57 51/19/57 52/10/57
f 1/76/58 49/23/58 50/7/58
