# Blender v2.80 (sub 75) OBJ File: 'FruitHunterContinued.blend'
# www.blender.org
mtllib mushroom4.mtl
o mushroom4_Circle.007
v -0.134328 0.000000 -0.000000
v -0.094984 0.000000 0.094984
v 0.000000 0.000000 0.134328
v 0.094984 0.000000 0.094984
v 0.134328 0.000000 -0.000000
v 0.094984 0.000000 -0.094984
v -0.000000 0.000000 -0.134328
v -0.094984 0.000000 -0.094984
v -0.111493 0.226792 0.000013
v -0.078547 0.226792 0.079552
v 0.000992 0.226792 0.112498
v 0.080531 0.226792 0.079552
v 0.113477 0.226792 0.000012
v 0.080531 0.226792 -0.079527
v 0.000992 0.226792 -0.112473
v -0.078547 0.226792 -0.079527
v -0.332895 0.224168 -0.001936
v -0.235954 0.224168 0.232099
v -0.001919 0.224168 0.329040
v 0.232117 0.224168 0.232099
v 0.329058 0.224168 -0.001936
v 0.232117 0.224168 -0.235972
v -0.001919 0.224168 -0.332913
v -0.235954 0.224168 -0.235972
v -0.364426 0.266339 -0.001936
v -0.258250 0.266339 0.254395
v -0.001919 0.266339 0.360571
v 0.254413 0.266339 0.254395
v 0.360589 0.266339 -0.001936
v 0.254413 0.266339 -0.258268
v -0.001919 0.266339 -0.364444
v -0.258250 0.266339 -0.258268
v -0.110870 0.437124 -0.001936
v -0.078959 0.437124 0.075104
v -0.001919 0.437124 0.107015
v 0.075121 0.437124 0.075104
v 0.107032 0.437124 -0.001936
v 0.075121 0.437124 -0.078976
v -0.001919 0.437124 -0.110887
v -0.078959 0.437124 -0.078976
v 0.175074 0.360591 0.175057
v -0.001919 0.360591 0.248370
v -0.178912 0.360591 0.175057
v -0.252225 0.360591 -0.001936
v -0.178912 0.360591 -0.178929
v -0.001919 0.360591 -0.252242
v 0.175074 0.360591 -0.178929
v 0.248387 0.360591 -0.001936
v -0.155183 0.073864 0.000004
v -0.109636 0.073864 -0.109955
v 0.000323 0.073864 -0.155502
v 0.110283 0.073864 -0.109955
v 0.155829 0.073864 0.000004
v 0.110283 0.073864 0.109963
v 0.000323 0.073864 0.155510
v -0.109636 0.073864 0.109963
vt 0.935435 0.686114
vt 0.872875 0.797047
vt 0.721842 0.751097
vt 0.871858 0.375016
vt 0.972269 0.306442
vt 0.972269 0.405847
vt 0.839666 0.981393
vt 0.922042 0.919630
vt 0.936534 0.959886
vt 0.812183 0.701790
vt 0.922351 0.671684
vt 0.912233 0.712654
vt 0.805250 0.748604
vt 0.903933 0.795657
vt 0.802796 0.795661
vt 0.804896 0.842726
vt 0.911793 0.878678
vt 0.811686 0.889552
vt 0.823626 0.655455
vt 0.936534 0.631370
vt 0.906102 0.754049
vt 0.905789 0.837273
vt 0.823277 0.935867
vt 0.322562 0.897669
vt 0.558465 0.954754
vt 0.510728 0.991991
vt 0.781525 0.402214
vt 0.644460 0.405140
vt 0.744668 0.374742
vt 0.744977 0.336174
vt 0.741375 0.235758
vt 0.782271 0.309022
vt 0.871858 0.336447
vt 0.876711 0.236050
vt 0.834781 0.402328
vt 0.876710 0.476238
vt 0.782270 0.402439
vt 0.741373 0.476526
vt 0.645256 0.305738
vt 0.834782 0.309135
vt 0.227648 0.492808
vt 0.465141 0.561072
vt 0.253093 0.597490
vt 0.330384 0.089682
vt 0.215057 0.230722
vt 0.163330 0.201013
vt 0.057865 0.340971
vt 0.086575 0.495863
vt 0.023037 0.497035
vt 0.167363 0.789543
vt 0.120997 0.635572
vt 0.216685 0.760232
vt 0.550589 0.001923
vt 0.370530 0.132527
vt 0.118637 0.355802
vt 0.061678 0.652206
vt 0.360740 0.861502
vt 0.598816 0.521865
vt 0.488526 0.548603
vt 0.452124 0.467596
vt 0.327006 0.691270
vt 0.556037 0.601060
vt 0.445426 0.765244
vt 0.620313 0.612179
vt 0.618555 0.812969
vt 0.449351 0.227638
vt 0.490147 0.431673
vt 0.328113 0.296688
vt 0.460178 0.471218
vt 0.451585 0.516288
vt 0.504219 0.573347
vt 0.618823 0.195039
vt 0.538900 0.403748
vt 0.253146 0.388610
vt 0.763334 0.894805
vt 0.775573 0.943709
vt 0.753948 0.795663
vt 0.756165 0.845360
vt 0.756538 0.745975
vt 0.775942 0.647617
vt 0.839666 0.609862
vt 0.763859 0.696542
vt 0.792878 0.991782
vt 0.784402 0.640164
vt 0.872875 0.640164
vt 0.935435 0.751098
vt 0.784402 0.797047
vt 0.721842 0.686114
vt 0.739453 0.475944
vt 0.599054 0.051898
vt 0.551210 0.552011
vt 0.447483 0.513637
vt 0.499729 0.437450
vt 0.562413 0.440858
vt 0.603456 0.475824
vt 0.600724 0.395306
vt 0.792878 0.599474
vn 0.0000 -1.0000 0.0000
vn 0.0050 -0.9999 -0.0120
vn -0.8933 0.2552 -0.3700
vn 0.3705 0.2501 -0.8945
vn 0.8951 0.2479 0.3707
vn -0.3702 0.2530 0.8938
vn -0.3702 0.2531 -0.8938
vn 0.8950 0.2479 -0.3707
vn 0.3705 0.2500 0.8945
vn -0.8933 0.2552 0.3700
vn -0.7601 -0.5684 -0.3149
vn 0.0049 -0.9999 0.0118
vn -0.0121 -0.9999 0.0050
vn -0.0050 -0.9999 -0.0122
vn 0.0119 -0.9999 -0.0049
vn 0.0118 -0.9999 0.0049
vn -0.0050 -0.9999 0.0120
vn -0.0122 -0.9999 -0.0051
vn 0.1935 0.8628 0.4671
vn 0.3149 -0.5684 -0.7601
vn 0.7601 -0.5684 0.3149
vn -0.3149 -0.5684 0.7601
vn -0.3149 -0.5684 -0.7601
vn 0.7601 -0.5684 -0.3149
vn 0.3149 -0.5684 0.7601
vn -0.7601 -0.5684 0.3149
vn 0.0000 1.0000 0.0000
vn -0.4671 0.8628 0.1935
vn -0.4671 0.8628 -0.1935
vn 0.1935 0.8628 -0.4671
vn 0.4671 0.8628 0.1935
vn -0.1935 0.8628 0.4671
vn -0.1935 0.8628 -0.4671
vn 0.4671 0.8628 -0.1935
vn 0.6215 0.7399 -0.2574
vn -0.2574 0.7399 -0.6215
vn -0.2574 0.7399 0.6215
vn 0.6215 0.7399 0.2574
vn 0.2574 0.7399 -0.6215
vn -0.6215 0.7399 -0.2574
vn -0.6215 0.7399 0.2574
vn 0.2574 0.7399 0.6215
vn -0.8940 -0.2524 0.3703
vn 0.3698 -0.2576 0.8927
vn 0.8922 -0.2597 -0.3696
vn -0.3701 -0.2545 -0.8935
vn -0.3701 -0.2546 0.8934
vn 0.8922 -0.2597 0.3696
vn 0.3698 -0.2575 -0.8927
vn -0.8940 -0.2524 -0.3703
g mushroom4_Circle.007_mushroom2
usemtl mushroom2
s off
f 1/1/1 7/2/1 5/3/1
f 10/4/2 19/5/2 18/6/2
f 50/7/3 9/8/3 16/9/3
f 52/10/4 15/11/4 14/12/4
f 53/13/5 12/14/5 54/15/5
f 55/16/6 10/17/6 56/18/6
f 51/19/7 16/20/7 15/11/7
f 53/13/8 14/12/8 13/21/8
f 54/15/9 11/22/9 55/16/9
f 56/18/10 9/8/10 49/23/10
f 17/24/11 32/25/11 24/26/11
f 16/27/12 23/28/12 15/29/12
f 14/30/13 21/31/13 13/32/13
f 11/33/14 20/34/14 19/5/14
f 9/35/15 18/6/15 17/36/15
f 16/37/16 17/36/16 24/38/16
f 15/29/17 22/39/17 14/30/17
f 13/32/18 20/34/18 12/40/18
f 41/41/19 35/42/19 42/43/19
f 23/44/20 30/45/20 22/46/20
f 21/47/21 28/48/21 20/49/21
f 18/50/22 27/51/22 26/52/22
f 24/53/23 31/54/23 23/44/23
f 21/47/24 30/45/24 29/55/24
f 19/56/25 28/48/25 27/51/25
f 18/50/26 25/57/26 17/24/26
f 33/58/27 35/59/27 37/60/27
f 43/61/28 33/62/28 44/63/28
f 44/63/29 40/64/29 45/65/29
f 46/66/30 38/67/30 47/68/30
f 41/41/31 37/69/31 36/70/31
f 42/43/32 34/71/32 43/61/32
f 45/72/33 39/73/33 46/66/33
f 47/68/34 37/69/34 48/74/34
f 30/45/35 48/74/35 29/55/35
f 31/54/36 45/72/36 46/66/36
f 26/52/37 42/43/37 43/61/37
f 29/55/38 41/41/38 28/48/38
f 31/54/39 47/68/39 30/45/39
f 25/57/40 45/65/40 32/25/40
f 26/52/41 44/63/41 25/57/41
f 28/48/42 42/43/42 27/51/42
f 2/75/43 49/23/43 1/76/43
f 4/77/44 55/16/44 3/78/44
f 5/79/45 52/10/45 53/13/45
f 7/80/46 50/81/46 51/19/46
f 3/78/47 56/18/47 2/75/47
f 5/79/48 54/15/48 4/77/48
f 6/82/49 51/19/49 52/10/49
f 8/83/50 49/23/50 50/7/50
f 3/84/1 2/85/1 1/1/1
f 1/1/1 8/86/1 7/2/1
f 7/2/1 6/87/1 5/3/1
f 5/3/1 4/88/1 3/84/1
f 3/84/1 1/1/1 5/3/1
f 10/4/2 11/33/2 19/5/2
f 50/7/3 49/23/3 9/8/3
f 52/10/4 51/19/4 15/11/4
f 53/13/5 13/21/5 12/14/5
f 55/16/6 11/22/6 10/17/6
f 51/19/7 50/81/7 16/20/7
f 53/13/8 52/10/8 14/12/8
f 54/15/9 12/14/9 11/22/9
f 56/18/10 10/17/10 9/8/10
f 17/24/11 25/57/11 32/25/11
f 16/27/12 24/89/12 23/28/12
f 14/30/13 22/39/13 21/31/13
f 11/33/14 12/40/14 20/34/14
f 9/35/15 10/4/15 18/6/15
f 16/37/16 9/35/16 17/36/16
f 15/29/17 23/28/17 22/39/17
f 13/32/18 21/31/18 20/34/18
f 41/41/19 36/70/19 35/42/19
f 23/44/20 31/54/20 30/45/20
f 21/47/21 29/55/21 28/48/21
f 18/50/22 19/56/22 27/51/22
f 24/53/23 32/90/23 31/54/23
f 21/47/24 22/46/24 30/45/24
f 19/56/25 20/49/25 28/48/25
f 18/50/26 26/52/26 25/57/26
f 33/58/27 34/91/27 35/59/27
f 35/59/27 36/92/27 37/60/27
f 37/60/27 38/93/27 39/94/27
f 39/94/27 40/95/27 37/60/27
f 40/95/27 33/58/27 37/60/27
f 43/61/28 34/71/28 33/62/28
f 44/63/29 33/62/29 40/64/29
f 46/66/30 39/73/30 38/67/30
f 41/41/31 48/74/31 37/69/31
f 42/43/32 35/42/32 34/71/32
f 45/72/33 40/96/33 39/73/33
f 47/68/34 38/67/34 37/69/34
f 30/45/35 47/68/35 48/74/35
f 31/54/36 32/90/36 45/72/36
f 26/52/37 27/51/37 42/43/37
f 29/55/38 48/74/38 41/41/38
f 31/54/39 46/66/39 47/68/39
f 25/57/40 44/63/40 45/65/40
f 26/52/41 43/61/41 44/63/41
f 28/48/42 41/41/42 42/43/42
f 2/75/43 56/18/43 49/23/43
f 4/77/44 54/15/44 55/16/44
f 5/79/45 6/82/45 52/10/45
f 7/80/46 8/97/46 50/81/46
f 3/78/47 55/16/47 56/18/47
f 5/79/48 53/13/48 54/15/48
f 6/82/49 7/80/49 51/19/49
f 8/83/50 1/76/50 49/23/50
