# Blender v2.81 (sub 16) OBJ File: ''
# www.blender.org
mtllib Sign.mtl
o Cylinder.001
v 0.010299 -0.101493 0.101672
v 0.010299 2.904335 0.101672
v -0.046269 -0.101493 0.078240
v -0.046269 2.904335 0.078240
v -0.069701 -0.101493 0.021672
v -0.069701 2.904335 0.021672
v -0.046269 -0.101493 -0.034897
v -0.046269 2.904335 -0.034897
v 0.010299 -0.101493 -0.058328
v 0.010299 2.904335 -0.058328
v 0.066868 -0.101493 -0.034897
v 0.066868 2.904335 -0.034897
v 0.090299 -0.101493 0.021672
v 0.090299 2.904335 0.021672
v 0.066868 -0.101493 0.078240
v 0.066868 2.904335 0.078240
vt 0.579526 1.881243
vt 0.520076 -0.817108
vt 0.579519 -0.817109
vt 0.520077 1.881243
vt 0.460633 -0.817108
vt 0.460627 1.881243
vt 0.401190 -0.817109
vt 0.401178 1.881242
vt 0.341748 -0.817109
vt 0.341729 1.881241
vt 0.282305 -0.817110
vt 0.282280 1.881240
vt 0.222862 -0.817111
vt 0.039757 0.324790
vt 0.019390 0.324790
vt 0.039757 0.237376
vt 0.698425 1.881243
vt 0.638961 -0.817110
vt 0.698404 -0.817111
vt 0.638975 1.881243
vt 0.054293 0.262979
vt 0.089061 0.237376
vt 0.103463 0.299187
vt 0.222831 1.881239
vt 0.004988 0.299187
vt 0.004988 0.262979
vt 0.019390 0.237376
vt 0.054159 0.262979
vt 0.054159 0.299187
vt 0.089061 0.324790
vt 0.068694 0.324790
vt 0.054293 0.299187
vt 0.068694 0.237376
vt 0.103463 0.262979
vn -0.3827 0.0000 0.9239
vn -0.9239 0.0000 0.3827
vn -0.9239 0.0000 -0.3827
vn -0.3827 0.0000 -0.9239
vn 0.3827 0.0000 -0.9239
vn 0.9239 0.0000 -0.3827
vn 0.0000 1.0000 -0.0000
vn 0.9239 0.0000 0.3827
vn 0.3827 0.0000 0.9239
vn 0.0000 -1.0000 0.0000
usemtl Material
s off
f 2/1/1 3/2/1 1/3/1
f 4/4/2 5/5/2 3/2/2
f 6/6/3 7/7/3 5/5/3
f 8/8/4 9/9/4 7/7/4
f 10/10/5 11/11/5 9/9/5
f 12/12/6 13/13/6 11/11/6
f 8/14/7 6/15/7 14/16/7
f 14/17/8 15/18/8 13/19/8
f 16/20/9 1/3/9 15/18/9
f 7/21/10 11/22/10 15/23/10
f 2/1/1 4/4/1 3/2/1
f 4/4/2 6/6/2 5/5/2
f 6/6/3 8/8/3 7/7/3
f 8/8/4 10/10/4 9/9/4
f 10/10/5 12/12/5 11/11/5
f 12/12/6 14/24/6 13/13/6
f 6/15/7 4/25/7 14/16/7
f 4/25/7 2/26/7 14/16/7
f 2/26/7 16/27/7 14/16/7
f 14/16/7 12/28/7 10/29/7
f 10/29/7 8/14/7 14/16/7
f 14/17/8 16/20/8 15/18/8
f 16/20/9 2/1/9 1/3/9
f 15/23/10 1/30/10 3/31/10
f 3/31/10 5/32/10 7/21/10
f 7/21/10 9/33/10 11/22/10
f 11/22/10 13/34/10 15/23/10
f 15/23/10 3/31/10 7/21/10
o Plane.001
v -0.177150 2.717218 -0.307497
v -0.177150 2.309407 -0.307497
v -0.177867 2.717218 0.848058
v -0.177867 2.309407 0.848058
v -0.177150 2.872724 -0.307497
v -0.177150 2.145715 -0.307497
v -0.159260 2.503980 -0.853214
v -0.065950 2.717218 -0.307497
v -0.065950 2.309407 -0.307497
v -0.066985 2.717218 0.848058
v -0.066985 2.309407 0.848058
v -0.065950 2.872724 -0.307497
v -0.065950 2.145715 -0.307497
v -0.059163 2.503980 -0.853214
vt 0.292469 0.830064
vt 0.489352 0.000145
vt 0.489352 0.830064
vt 0.449868 0.878258
vt 0.450916 0.999877
vt 0.450013 0.756625
vt 0.212811 0.836845
vt 0.566008 0.837102
vt 0.382797 0.999541
vt 0.570081 0.000408
vt 0.410713 0.825105
vt 0.569677 0.825268
vt 0.499990 0.219152
vt 0.497840 0.438147
vt 0.499990 0.438182
vt 0.342280 0.827934
vt 0.485181 0.996696
vt 0.634027 0.827934
vt 0.228223 0.000467
vt 0.289240 0.838478
vt 0.289188 0.000170
vt 0.205185 0.380507
vt 0.647001 0.188867
vt 0.201974 0.178771
vt 0.404438 0.000123
vt 0.450778 0.115849
vt 0.450916 0.000299
vt 0.522101 0.795729
vt 0.424194 0.155565
vt 0.424194 0.795729
vt 0.259621 0.540507
vt 0.591450 0.670806
vt 0.591634 0.517020
vt 0.403535 0.756449
vt 0.216287 0.831033
vt 0.262695 0.001911
vt 0.216264 0.001799
vt 0.292469 0.000145
vt 0.448674 0.878308
vt 0.411116 0.000245
vt 0.499990 0.000123
vt 0.227969 0.838776
vt 0.649891 0.370461
vt 0.404300 0.115674
vt 0.522101 0.155565
vt 0.259456 0.678939
vt 0.403389 0.878082
vt 0.262851 0.831145
vn -1.0000 0.0000 -0.0006
vn 0.0000 0.0000 1.0000
vn -0.9995 0.0000 -0.0328
vn 1.0000 0.0000 0.0009
vn -1.0000 0.0000 0.0000
vn 0.9999 0.0000 0.0124
vn 0.0000 1.0000 -0.0000
vn 0.0000 0.8286 -0.5599
vn 0.0000 -0.8360 -0.5488
vn 0.0000 -1.0000 0.0000
vn 1.0000 0.0000 0.0000
usemtl Material
s off
f 18/35/11 19/36/11 17/37/11
f 18/38/12 21/39/12 22/40/12
f 22/41/13 21/42/13 23/43/13
f 26/44/14 25/45/14 24/46/14
f 25/47/15 28/48/15 24/49/15
f 29/50/16 30/51/16 28/52/16
f 26/53/17 17/54/17 19/55/17
f 28/56/18 23/57/18 21/58/18
f 24/59/12 21/60/12 17/61/12
f 27/62/12 19/63/12 20/64/12
f 23/65/19 29/66/19 22/67/19
f 29/68/12 18/38/12 22/40/12
f 18/69/20 27/70/20 20/71/20
f 18/35/11 20/72/11 19/36/11
f 18/38/21 17/73/21 21/39/21
f 26/44/14 27/74/14 25/45/14
f 25/47/12 29/75/12 28/48/12
f 26/53/17 24/76/17 17/54/17
f 28/56/18 30/77/18 23/57/18
f 24/59/12 28/78/12 21/60/12
f 27/62/12 26/79/12 19/63/12
f 23/65/19 30/80/19 29/66/19
f 29/68/12 25/81/12 18/38/12
f 18/69/20 25/82/20 27/70/20
