# Blender v2.80 (sub 75) OBJ File: 'FruitHunterContinued.blend'
# www.blender.org
mtllib stone5.mtl
o pebble4.003_Circle.014
v -0.166734 1.455082 -0.251285
v 0.388857 1.210185 -0.297907
v -0.166108 1.799055 -0.017957
v 0.297082 1.837686 0.020570
v 0.298351 0.849089 0.361313
v 0.320956 1.811531 -0.083270
v -0.090190 0.736104 -0.427545
v 0.564970 0.613431 0.036390
v -0.071788 1.821621 0.127273
v 0.097995 1.903525 0.080585
v -0.001969 1.497476 -0.276484
v -0.505597 0.719287 -0.074293
v 0.472843 1.406036 -0.076468
v 0.130621 0.181434 -0.410252
v -0.361579 0.953440 -0.211910
v -0.148145 1.558421 0.215089
v -0.367484 -0.057794 0.221937
v -0.198640 0.637814 0.396647
v -0.082581 0.607425 0.442320
v 0.371884 -0.023449 0.262107
v 0.525513 0.063573 0.013917
v 0.439990 0.720055 0.254570
v 0.550355 0.266250 -0.215391
v 0.173505 -0.034429 -0.354272
v -0.471088 0.818275 0.135411
v -0.507755 0.176089 0.108483
v -0.209098 -0.147274 0.080789
v -0.440535 -0.035493 -0.023649
v -0.040481 0.077993 0.415262
v 0.462751 0.039623 -0.274478
v -0.313386 1.559721 0.041527
v -0.090424 0.065602 -0.368659
v -0.300527 0.699438 -0.337897
v 0.397756 1.559332 0.072499
v 0.129331 1.257930 0.360064
v 0.439276 0.833460 -0.261371
v 0.108616 1.959100 -0.024790
v 0.139047 -0.143002 0.216205
v 0.485561 1.058322 0.076962
v 0.358851 -0.099739 0.189600
v -0.236122 -0.001733 0.370549
v 0.187445 0.257978 0.398313
v 0.376107 -0.085778 -0.187925
v 0.042007 1.862800 -0.141823
vn 0.9463 0.1627 -0.2793
vn -0.8158 0.2770 -0.5076
vn -0.2742 0.2005 0.9405
vn 0.2685 0.6632 -0.6986
vn -0.6609 0.1999 -0.7233
vn -0.7805 0.3519 -0.5167
vn -0.2310 0.3609 -0.9035
vn -0.3826 -0.0775 0.9207
vn -0.9749 0.2148 0.0590
vn -0.7032 0.2346 0.6712
vn 0.3804 0.3829 0.8418
vn 0.9303 0.3503 0.1085
vn 0.9061 0.0810 -0.4153
vn 0.9964 -0.0733 0.0432
vn 0.7852 0.2849 -0.5498
vn 0.4935 0.3287 0.8052
vn 0.0591 0.3990 0.9150
vn -0.5534 0.4683 -0.6888
vn 0.7758 0.1414 0.6149
vn 0.2111 0.0536 -0.9760
vn -0.6135 0.1851 0.7677
vn -0.2972 0.8566 0.4218
vn -0.4718 0.7935 -0.3844
vn 0.4196 0.0086 -0.9077
vn 0.5722 0.2389 0.7845
vn 0.9922 -0.0183 -0.1236
vn -0.1143 0.3441 0.9320
vn 0.9257 0.3577 0.1227
vn 0.2068 0.3495 -0.9138
vn -0.4911 0.8509 0.1867
vn -0.1141 -0.8920 0.4374
vn 0.2494 0.3084 -0.9180
vn -0.6906 0.0110 0.7232
vn -0.7252 -0.1048 0.6805
vn 0.5536 0.8288 -0.0815
vn 0.4721 -0.0223 -0.8812
vn 0.5512 -0.0420 0.8333
vn -0.2010 0.2130 -0.9561
vn 0.9469 0.1925 -0.2575
vn -0.8799 -0.4192 0.2237
vn -0.9890 0.0506 0.1388
vn -0.4117 0.1754 -0.8943
vn 0.1072 -0.0422 0.9933
vn -0.6624 -0.1843 -0.7262
vn 0.9388 0.1672 0.3011
vn 0.8165 -0.4649 0.3424
vn 0.2778 -0.2648 0.9234
vn 0.9327 -0.3144 -0.1769
vn -0.8529 0.2576 -0.4542
vn 0.8853 0.1170 0.4500
vn -0.7365 0.5508 0.3927
vn 0.8593 -0.0736 0.5061
vn -0.6613 0.4029 0.6327
vn -0.7886 -0.1086 -0.6053
vn -0.2121 -0.0274 0.9769
vn -0.2781 -0.8083 -0.5190
vn -0.0457 -0.2593 -0.9647
vn -0.4540 -0.8893 0.0543
vn -0.1570 -0.8883 0.4316
vn -0.2290 -0.8742 -0.4282
vn -0.0226 -0.9627 -0.2696
vn -0.7795 0.1178 -0.6153
vn 0.7771 -0.6182 -0.1178
vn 0.3045 -0.1820 -0.9350
vn 0.0822 0.1848 -0.9793
vn -0.3788 -0.0808 -0.9219
vn -0.6890 0.0090 0.7247
vn 0.7030 -0.7112 0.0058
vn 0.1642 0.0709 0.9839
vn 0.0804 -0.6303 0.7722
vn 0.4063 0.0802 -0.9102
vn 0.1926 0.0253 0.9810
vn 0.8469 -0.0822 0.5253
vn 0.4006 0.7932 0.4587
vn -0.9433 -0.1025 -0.3158
vn 0.5683 -0.0552 0.8209
vn -0.3076 0.2174 0.9263
vn 0.7163 0.2463 0.6528
vn -0.1402 -0.0866 -0.9863
vn 0.1898 -0.9814 -0.0276
vn 0.0544 -0.9926 -0.1086
vn 0.3515 -0.6840 -0.6392
vn 0.1482 -0.5927 0.7917
vn 0.2194 -0.6916 0.6882
usemtl Stone
s off
f 8//1 23//1 36//1
f 1//2 15//2 31//2
f 35//3 16//3 18//3
f 44//4 37//4 6//4
f 15//5 1//5 33//5
f 3//6 1//6 31//6
f 11//7 1//7 44//7
f 19//8 18//8 29//8
f 12//9 25//9 31//9
f 31//10 25//10 16//10
f 10//11 35//11 4//11
f 6//12 34//12 13//12
f 13//13 36//13 2//13
f 23//14 8//14 21//14
f 2//15 6//15 13//15
f 35//16 34//16 4//16
f 35//17 10//17 9//17
f 1//18 3//18 44//18
f 34//19 5//19 39//19
f 14//20 7//20 2//20
f 18//21 16//21 25//21
f 9//22 10//22 37//22
f 44//23 3//23 37//23
f 36//24 23//24 14//24
f 34//25 35//25 5//25
f 36//26 13//26 39//26
f 35//27 9//27 16//27
f 34//28 6//28 4//28
f 6//29 2//29 11//29
f 37//30 3//30 9//30
f 27//31 41//31 17//31
f 11//32 44//32 6//32
f 26//33 41//33 18//33
f 17//34 41//34 26//34
f 6//35 37//35 4//35
f 36//36 14//36 2//36
f 42//37 20//37 22//37
f 1//38 11//38 7//38
f 8//39 36//39 39//39
f 26//40 28//40 17//40
f 12//41 26//41 25//41
f 7//42 33//42 1//42
f 19//43 29//43 42//43
f 32//44 28//44 33//44
f 34//45 39//45 13//45
f 20//46 40//46 21//46
f 42//47 29//47 20//47
f 23//48 21//48 30//48
f 31//49 15//49 12//49
f 22//50 8//50 39//50
f 3//51 31//51 9//51
f 21//52 22//52 20//52
f 16//53 9//53 31//53
f 28//54 12//54 33//54
f 18//55 41//55 29//55
f 32//56 24//56 28//56
f 14//57 24//57 32//57
f 28//58 27//58 17//58
f 27//59 38//59 41//59
f 27//60 28//60 24//60
f 43//61 27//61 24//61
f 33//62 12//62 15//62
f 30//63 21//63 43//63
f 24//64 14//64 30//64
f 11//65 2//65 7//65
f 32//66 33//66 7//66
f 25//67 26//67 18//67
f 21//68 40//68 43//68
f 35//69 19//69 5//69
f 38//70 29//70 41//70
f 30//71 14//71 23//71
f 5//72 19//72 42//72
f 21//73 8//73 22//73
f 4//74 37//74 10//74
f 12//75 28//75 26//75
f 42//76 22//76 5//76
f 35//77 18//77 19//77
f 39//78 5//78 22//78
f 32//79 7//79 14//79
f 40//80 38//80 43//80
f 27//81 43//81 38//81
f 43//82 24//82 30//82
f 38//83 20//83 29//83
f 40//84 20//84 38//84
