# Blender v2.79 (sub 0) OBJ File: ''
# www.blender.org
mtllib stone1.mtl
o Icosphere_Icosphere.001
v 0.111193 0.853945 -0.084155
v -0.850743 0.544915 0.859736
v 0.145939 0.624909 1.246544
v 1.200087 0.476471 -0.026318
v 0.624012 0.610818 -1.107129
v -1.184038 0.752937 -0.607629
v -0.279528 -0.793958 0.922703
v 1.031613 -0.630079 0.815072
v 0.987531 -0.854816 -1.041470
v -0.242494 -0.477756 -0.936950
v -1.207082 -0.831622 0.207684
v 0.000006 -0.954961 -0.191731
v 0.027680 0.717045 0.810053
v -0.337752 0.846866 0.714975
v -0.313163 0.577271 1.207218
v -1.351290 0.623061 0.135499
v -0.746363 0.826376 0.068789
v 0.551856 0.650420 0.543827
v 0.608698 0.632588 0.794942
v 0.596177 0.814407 -0.595095
v 1.184390 0.658660 -0.479068
v -0.474870 0.791860 -0.970727
v -1.520686 0.217879 0.327390
v -1.614427 0.140082 -0.363956
v -0.078547 -0.380850 1.473040
v -1.046298 -0.190490 1.441349
v 1.737492 0.204380 0.292713
v 0.844302 -0.020046 1.504816
v 1.081561 0.050788 -1.524129
v 1.784015 0.291323 -0.232438
v -1.344564 0.098313 -1.224658
v -0.357050 -0.254838 -1.770929
v -0.519790 -0.641462 0.678649
v 0.263056 -0.994354 0.964552
v 1.132102 -0.882454 0.150539
v 0.257470 -0.919707 -0.969553
v -1.100807 -0.380098 -0.912466
v -0.072894 -0.995658 0.607341
v -0.705380 -0.879006 -0.153444
v 0.432198 -0.947561 0.239127
v 0.626938 -0.730984 -0.583412
v -0.366537 -0.806910 -0.503163
vn 0.2900 0.9416 0.1712
vn -0.3942 0.8441 0.3635
vn 0.2073 0.9639 0.1669
vn 0.2337 0.9611 0.1475
vn -0.0548 0.9902 -0.1286
vn -0.6713 0.5273 0.5209
vn -0.1076 0.2412 0.9645
vn 0.3954 0.9117 0.1114
vn 0.4719 0.7411 -0.4775
vn -0.3615 0.6849 -0.6326
vn -0.6646 0.5642 0.4899
vn -0.1289 0.2452 0.9609
vn 0.3553 0.9166 0.1832
vn 0.0091 0.6020 -0.7985
vn -0.8341 0.4726 -0.2845
vn -0.6072 -0.7875 0.1058
vn 0.4348 -0.8995 0.0434
vn -0.3074 -0.9515 0.0152
vn -0.5522 -0.5805 -0.5984
vn -0.3532 -0.8556 -0.3784
vn -0.1184 -0.9436 -0.3092
vn -0.2615 -0.8635 -0.4313
vn -0.1061 -0.7773 -0.6201
vn 0.0308 -0.8882 -0.4585
vn 0.0999 -0.9283 0.3581
vn 0.1167 -0.9318 0.3438
vn 0.2162 -0.9556 -0.2004
vn 0.0596 -0.9687 -0.2409
vn 0.1323 -0.9198 0.3693
vn 0.0621 -0.9971 -0.0451
vn 0.0579 -0.9970 -0.0508
vn -0.3493 -0.8764 0.3317
vn -0.1101 -0.9921 -0.0606
vn -0.5501 -0.7626 0.3404
vn 0.0921 -0.9627 0.2543
vn -0.8145 -0.5072 -0.2817
vn -0.8013 -0.5546 -0.2243
vn -0.0887 -0.5756 -0.8129
vn -0.6624 -0.7414 -0.1072
vn 0.2598 -0.6359 -0.7268
vn -0.0456 -0.4662 -0.8835
vn 0.8520 -0.5108 -0.1152
vn 0.8738 -0.4863 -0.0031
vn 0.8127 -0.4933 0.3102
vn 0.4222 -0.6191 0.6622
vn 0.1916 -0.5609 0.8054
vn -0.3090 -0.7030 0.6406
vn -0.5860 -0.8070 0.0726
vn -0.6512 -0.7589 -0.0009
vn -0.5012 -0.2444 0.8301
vn -0.4182 -0.8902 -0.1805
vn -0.2290 0.5748 -0.7856
vn 0.0015 0.6075 -0.7944
vn 0.8588 -0.3076 -0.4098
vn 0.5937 0.6688 -0.4474
vn 0.3896 0.8590 0.3322
vn 0.7857 -0.3418 0.5157
vn 0.4920 0.7161 0.4951
vn 0.4787 0.7197 0.5028
vn -0.1696 -0.7574 0.6305
vn 0.0221 0.2723 0.9620
vn -0.4501 0.6245 0.6383
vn -0.9404 -0.2994 0.1612
vn -0.9066 0.4151 0.0762
vn -0.8317 0.5477 -0.0915
vn -0.0826 0.9951 -0.0546
vn -0.0086 0.9993 -0.0354
vn 0.1076 0.9258 -0.3623
vn 0.3026 0.8912 -0.3379
vn 0.2259 0.9629 0.1474
vn 0.4914 0.8137 0.3104
vn 0.2659 0.9640 0.0083
vn 0.1447 0.9888 0.0375
vn 0.1461 0.9752 0.1663
vn -0.3076 0.9467 0.0962
vn -0.2987 0.9410 0.1591
vn -0.0340 0.9994 -0.0102
vn -0.1203 0.9643 0.2361
vn 0.1866 0.8656 0.4647
vn -0.3487 0.8146 0.4636
usemtl Material.001
s off
f 1//1 14//1 13//1
f 2//2 14//2 16//2
f 1//3 13//3 18//3
f 1//4 18//4 20//4
f 1//5 20//5 17//5
f 2//6 16//6 23//6
f 3//7 15//7 25//7
f 4//8 19//8 27//8
f 5//9 21//9 29//9
f 6//10 22//10 31//10
f 2//11 23//11 26//11
f 3//12 25//12 28//12
f 4//13 27//13 30//13
f 5//14 29//14 32//14
f 6//15 31//15 24//15
f 7//16 33//16 38//16
f 8//17 34//17 40//17
f 9//18 35//18 41//18
f 10//19 36//19 42//19
f 11//20 37//20 39//20
f 39//21 42//21 12//21
f 39//22 37//22 42//22
f 37//23 10//23 42//23
f 42//24 41//24 12//24
f 42//25 36//25 41//25
f 36//26 9//26 41//26
f 41//27 40//27 12//27
f 41//28 35//28 40//28
f 35//29 8//29 40//29
f 40//30 38//30 12//30
f 40//31 34//31 38//31
f 34//32 7//32 38//32
f 38//33 39//33 12//33
f 38//34 33//34 39//34
f 33//35 11//35 39//35
f 24//36 37//36 11//36
f 24//37 31//37 37//37
f 31//38 10//38 37//38
f 32//39 36//39 10//39
f 32//40 29//40 36//40
f 29//41 9//41 36//41
f 30//42 35//42 9//42
f 30//43 27//43 35//43
f 27//44 8//44 35//44
f 28//45 34//45 8//45
f 28//46 25//46 34//46
f 25//47 7//47 34//47
f 26//48 33//48 7//48
f 26//49 23//49 33//49
f 23//50 11//50 33//50
f 31//51 32//51 10//51
f 31//52 22//52 32//52
f 22//53 5//53 32//53
f 29//54 30//54 9//54
f 29//55 21//55 30//55
f 21//56 4//56 30//56
f 27//57 28//57 8//57
f 27//58 19//58 28//58
f 19//59 3//59 28//59
f 25//60 26//60 7//60
f 25//61 15//61 26//61
f 15//62 2//62 26//62
f 23//63 24//63 11//63
f 23//64 16//64 24//64
f 16//65 6//65 24//65
f 17//66 22//66 6//66
f 17//67 20//67 22//67
f 20//68 5//68 22//68
f 20//69 21//69 5//69
f 20//70 18//70 21//70
f 18//71 4//71 21//71
f 18//72 19//72 4//72
f 18//73 13//73 19//73
f 13//74 3//74 19//74
f 16//75 17//75 6//75
f 16//76 14//76 17//76
f 14//77 1//77 17//77
f 13//78 15//78 3//78
f 13//79 14//79 15//79
f 14//80 2//80 15//80
