# Blender v2.80 (sub 75) OBJ File: 'FruitHunterContinued.blend'
# www.blender.org
mtllib stone4.mtl
o tallStone2_Circle.012
v 0.353470 1.393007 -0.087718
v 0.050613 1.946845 0.546984
v 0.150029 -0.040045 0.361514
v 0.317215 1.019359 0.492108
v 0.144353 1.011627 0.643150
v 0.184698 1.683573 0.609106
v 0.379963 0.753225 0.518292
v -0.236534 1.166378 0.610173
v -0.327444 0.817601 0.624619
v 0.295801 0.503789 0.746581
v -0.239633 1.631164 -0.125148
v -0.111685 -0.051371 -0.383352
v -0.086511 2.135259 0.141385
v 0.021404 2.150301 -0.010339
v -0.032993 1.643941 0.681021
v 0.259773 1.841581 0.391651
v -0.265178 1.198468 -0.565834
v -0.049388 1.882771 -0.417946
v -0.515471 0.465739 0.010352
v -0.163409 0.470063 -0.785791
v -0.192915 0.007694 0.602440
v 0.196824 0.796049 -0.545712
v 0.029613 1.339708 -0.648565
v 0.307216 1.453616 -0.367374
v -0.332126 1.420529 0.072766
v 0.613460 0.184940 0.089749
v -0.421820 1.158422 0.114127
v -0.231512 0.030281 -0.632881
v -0.478621 0.207514 -0.425109
v -0.218336 1.642311 -0.409926
v 0.587760 0.201429 -0.211544
v 0.294178 1.455766 0.325216
v -0.250412 0.122922 0.684941
v -0.481501 0.771483 -0.424018
v -0.504057 0.370749 0.312696
v -0.169007 0.880089 -0.765246
v -0.483608 1.141747 -0.290245
v -0.470649 0.792970 0.062308
v -0.059711 1.171004 -0.688972
v -0.465818 0.415294 -0.481952
v -0.106638 1.073700 0.720678
v 0.161543 1.410141 0.622351
v 0.088570 1.648472 0.703633
v -0.040547 1.676534 -0.586860
v 0.091170 1.942407 -0.258599
v 0.277831 0.243038 0.718952
v 0.330929 1.813535 0.077069
v 0.125906 0.062451 0.717474
v 0.477840 0.010314 -0.293738
v 0.047383 0.123769 -0.678998
v 0.375032 0.058082 -0.404285
v 0.233970 0.129489 -0.570742
v -0.054901 0.009329 -0.636995
v -0.373493 0.028179 -0.233970
v 0.360788 0.911108 0.272562
v 0.135834 -0.013959 -0.553914
v 0.452720 0.005293 0.487529
v -0.215271 -0.058318 -0.050847
v -0.343626 0.008670 0.477941
v -0.498401 0.070340 0.265304
v -0.312371 1.411507 -0.484137
v 0.561112 0.671582 0.409020
v 0.581481 0.005473 0.162740
v 0.052545 2.145739 0.212306
v -0.228206 -0.066995 0.214409
v -0.555923 0.245403 0.063584
v 0.437600 -0.005494 0.366376
v 0.565781 0.056132 0.349539
v -0.285529 1.435917 0.531934
v -0.175896 2.013851 0.090923
v 0.033198 1.273479 0.713558
v -0.393700 0.783934 0.496799
v -0.315886 0.199978 -0.685385
v 0.554466 0.666707 -0.223644
v 0.066914 0.265274 -0.702194
v -0.173616 1.998343 -0.203421
v 0.304588 0.907146 -0.330520
v 0.525733 0.853010 0.106114
v 0.580374 0.514877 0.142984
v -0.187565 0.513018 0.815100
v -0.202247 0.914401 0.736963
v -0.002129 0.706737 0.829770
v 0.274474 1.252115 -0.482005
v -0.264189 1.645955 0.346020
v -0.057591 1.974954 0.508752
v 0.463428 0.608613 0.570221
v 0.375086 0.953713 0.081811
vt 0.000000 0.000000
vt 0.000000 0.000000
vt 0.000000 0.000000
vt 0.000000 0.000000
vt 0.000000 0.000000
vt 0.000000 0.000000
vt 0.000000 0.000000
vt 0.000000 0.000000
vt 0.000000 0.000000
vt 0.000000 0.000000
vt 0.000000 0.000000
vt 0.000000 0.000000
vt 0.000000 0.000000
vt 0.000000 0.000000
vt 0.000000 0.000000
vt 0.000000 0.000000
vt 0.000000 0.000000
vt 0.000000 0.000000
vt 0.000000 0.000000
vt 0.000000 0.000000
vt 0.000000 0.000000
vt 0.000000 0.000000
vt 0.000000 0.000000
vt 0.000000 0.000000
vt 0.000000 0.000000
vt 0.000000 0.000000
vt 0.000000 0.000000
vt 0.000000 0.000000
vt 0.000000 0.000000
vt 0.000000 0.000000
vt 0.000000 0.000000
vt 0.000000 0.000000
vt 0.000000 0.000000
vt 0.000000 0.000000
vt 0.000000 0.000000
vt 0.000000 0.000000
vt 0.000000 0.000000
vt 0.000000 0.000000
vt 0.000000 0.000000
vt 0.000000 0.000000
vt 0.000000 0.000000
vt 0.000000 0.000000
vt 0.000000 0.000000
vt 0.000000 0.000000
vt 0.000000 0.000000
vt 0.000000 0.000000
vt 0.000000 0.000000
vt 0.000000 0.000000
vt 0.000000 0.000000
vt 0.000000 0.000000
vt 0.000000 0.000000
vt 0.000000 0.000000
vt 0.000000 0.000000
vt 0.000000 0.000000
vt 0.000000 0.000000
vt 0.000000 0.000000
vt 0.000000 0.000000
vt 0.000000 0.000000
vt 0.000000 0.000000
vt 0.000000 0.000000
vt 0.000000 0.000000
vt 0.000000 0.000000
vt 0.000000 0.000000
vt 0.000000 0.000000
vt 0.000000 0.000000
vt 0.000000 0.000000
vt 0.000000 0.000000
vt 0.000000 0.000000
vt 0.000000 0.000000
vt 0.000000 0.000000
vt 0.000000 0.000000
vt 0.000000 0.000000
vt 0.000000 0.000000
vt 0.000000 0.000000
vt 0.000000 0.000000
vt 0.000000 0.000000
vt 0.000000 0.000000
vt 0.000000 0.000000
vt 0.000000 0.000000
vt 0.000000 0.000000
vt 0.000000 0.000000
vt 0.000000 0.000000
vt 0.000000 0.000000
vt 0.000000 0.000000
vt 0.000000 0.000000
vt 0.000000 0.000000
vt 0.000000 0.000000
vn 0.1177 -0.9903 0.0735
vn 0.1074 -0.9940 -0.0226
vn -0.9788 0.1059 0.1755
vn -0.5900 0.1243 0.7978
vn 0.5165 0.8266 0.2233
vn 0.9819 -0.0243 -0.1880
vn -0.4185 0.0786 -0.9048
vn 0.6080 0.7104 0.3545
vn 0.5666 0.8024 -0.1875
vn -0.0555 -0.3202 -0.9457
vn 0.8617 -0.0423 0.5056
vn 0.9741 -0.0354 0.2235
vn 0.2586 -0.1470 0.9547
vn 0.9871 0.0975 0.1269
vn 0.9092 -0.0983 -0.4046
vn 0.9840 0.1065 0.1428
vn 0.6577 0.0109 0.7532
vn 0.5693 0.7111 0.4125
vn -0.4428 -0.8944 0.0629
vn -0.0449 -0.9984 -0.0349
vn 0.3552 0.3579 0.8635
vn 0.7021 0.3371 0.6272
vn 0.8011 0.4435 -0.4019
vn 0.9688 0.2359 0.0760
vn 0.6661 0.4750 0.5751
vn -0.6589 0.3081 0.6862
vn -0.0591 0.0769 0.9953
vn -0.8644 0.3797 0.3297
vn 0.5690 -0.4164 -0.7091
vn 0.8806 0.2091 0.4252
vn -0.9028 0.2723 0.3328
vn -0.8527 -0.0365 0.5211
vn 0.7543 -0.1204 0.6454
vn -0.1948 0.4414 0.8759
vn 0.4425 0.3038 0.8437
vn 0.6311 0.6652 0.3990
vn 0.6358 0.2226 0.7390
vn 0.0515 -0.9496 0.3092
vn 0.6783 0.0501 -0.7331
vn 0.1187 -0.9925 0.0304
vn 0.9149 -0.0581 0.3995
vn -0.9319 0.3392 0.1284
vn 0.5406 0.4439 0.7146
vn 0.9827 -0.0598 -0.1755
vn -0.5818 0.1310 0.8027
vn -0.7382 -0.5053 -0.4469
vn 0.4442 0.5187 0.7305
vn 0.5067 0.5592 -0.6562
vn -0.9789 0.1820 0.0932
vn -0.6714 0.4521 -0.5872
vn -0.6945 -0.6744 -0.2507
vn 0.5866 -0.0104 0.8098
vn 0.5659 0.0186 0.8242
vn 0.9888 0.1114 0.0990
vn -0.1845 0.0532 0.9814
vn -0.8853 0.2471 0.3938
vn 0.6626 0.4294 -0.6137
vn -0.1801 0.4392 0.8802
vn -0.9910 0.1332 0.0162
vn -0.1198 -0.9591 -0.2563
vn 0.0427 0.8588 0.5106
vn -0.4334 -0.8998 -0.0506
vn -0.9948 -0.0279 -0.0975
vn 0.5209 0.0305 -0.8531
vn -0.1666 -0.6276 0.7605
vn 0.9873 0.1591 -0.0039
vn -0.9844 0.1627 -0.0673
vn 0.3808 0.0515 -0.9232
vn -0.9679 0.1805 0.1752
vn -0.9279 0.3709 -0.0389
vn -0.8455 -0.0918 -0.5260
vn 0.4668 -0.4112 -0.7829
vn -0.9914 0.1301 0.0164
vn -0.9717 -0.0545 0.2298
vn -0.9834 -0.1483 0.1048
vn -0.0493 -0.2245 -0.9732
vn -0.6692 0.4602 -0.5834
vn 0.7848 0.6074 0.1234
vn -0.2098 0.2232 0.9519
vn -0.6544 0.4392 -0.6155
vn -0.2576 -0.1216 -0.9586
vn 0.0445 -0.3342 -0.9414
vn 0.7145 -0.0871 0.6942
vn 0.5192 0.0289 -0.8542
vn 0.5307 0.1176 -0.8394
vn 0.6873 0.0303 -0.7257
vn 0.1122 -0.9922 -0.0549
vn 0.1373 -0.1137 0.9840
vn 0.0409 -0.9674 0.2499
vn -0.4831 -0.6561 0.5797
vn -0.8334 -0.0235 0.5522
vn 0.3068 0.7704 -0.5589
vn -0.4381 0.3784 -0.8154
vn -0.8250 0.4913 0.2793
vn -0.7794 -0.6098 -0.1435
vn -0.9941 0.0329 -0.1036
vn 0.6352 -0.7302 0.2514
vn -0.9764 0.1393 -0.1652
vn -0.7471 0.0745 -0.6605
vn -0.3577 -0.9246 -0.1308
vn -0.0158 -0.9716 -0.2361
vn -0.8142 -0.2684 0.5148
vn -0.2585 0.1755 0.9500
vn 0.9727 -0.2118 -0.0946
vn 0.0907 -0.9954 -0.0311
vn 0.7192 -0.1572 -0.6768
vn -0.5891 0.0324 -0.8074
vn -0.8514 -0.0973 0.5154
vn -0.7557 0.0870 -0.6491
vn -0.8721 -0.1011 0.4787
vn -0.1293 -0.2951 0.9467
vn -0.7400 0.2192 0.6358
vn -0.7883 0.0602 -0.6124
vn 0.6052 0.2637 -0.7511
vn 0.5394 -0.0850 -0.8377
vn -0.7533 0.2197 -0.6199
vn -0.4254 0.4175 -0.8029
vn -0.9187 0.3914 -0.0534
vn 0.9942 0.1041 -0.0272
vn 0.6390 0.2993 -0.7086
vn -0.3739 0.2587 -0.8906
vn -0.8560 0.5155 -0.0387
vn 0.7402 0.6032 -0.2971
vn 0.6872 0.1593 -0.7088
vn -0.1725 -0.9642 0.2013
vn 0.1334 -0.1203 0.9837
vn -0.7898 0.1360 -0.5980
vn -0.4453 0.8651 -0.2310
vn -0.4587 -0.8877 -0.0398
vn -0.8690 0.4053 0.2838
vn -0.9863 -0.0610 0.1532
vn -0.9791 0.1953 -0.0572
vn 0.0755 -0.9971 -0.0114
vn -0.9847 0.1735 -0.0168
vn -0.9334 0.3537 -0.0598
vn -0.7971 0.6026 -0.0379
vn 0.4957 -0.2067 -0.8435
vn -0.0037 -0.9819 0.1893
vn 0.7251 0.6247 -0.2898
vn 0.5658 -0.4668 -0.6797
vn -0.8999 -0.4220 -0.1096
vn -0.3545 -0.9258 -0.1310
vn 0.1690 -0.9834 0.0665
vn 0.9844 -0.0095 0.1759
vn -0.9740 0.2031 0.1006
vn -0.2713 0.8741 0.4028
vn 0.7389 -0.1043 0.6656
vn 0.9848 -0.1277 0.1174
vn 0.6815 0.4527 -0.5750
vn 0.8839 -0.4202 -0.2052
vn -0.8788 0.3516 0.3226
vn 0.7871 -0.0974 0.6090
vn -0.7094 0.1096 0.6962
vn 0.4768 -0.4075 0.7789
vn 0.9393 0.0248 0.3423
vn 0.1337 -0.2015 0.9703
vn -0.4475 0.3526 0.8218
vn 0.9844 0.1074 -0.1395
vn 0.7448 0.6611 -0.0906
vn 0.9873 0.1572 -0.0211
vn -0.0920 0.9952 0.0333
vn 0.2795 -0.5409 -0.7933
vn -0.1311 0.8391 -0.5280
vn 0.7054 -0.1042 -0.7011
vn -0.9894 0.1234 0.0761
vn 0.9951 0.0974 0.0147
vn 0.9943 0.0690 -0.0810
vn 0.9891 0.0655 0.1321
vn 0.5987 0.5535 0.5790
vn 0.9854 0.0115 -0.1698
usemtl Stone
s off
f 67/1/1 57/2/1 3/3/1
f 12/4/2 49/5/2 3/3/2
f 38/6/3 72/7/3 27/8/3
f 69/9/4 8/10/4 41/11/4
f 87/12/5 55/13/5 78/14/5
f 83/15/6 1/16/6 87/12/6
f 61/17/7 44/18/7 23/19/7
f 55/13/8 62/20/8 78/14/8
f 78/14/9 77/21/9 87/12/9
f 20/22/10 28/23/10 73/24/10
f 68/25/11 62/20/11 86/26/11
f 16/27/12 1/16/12 47/28/12
f 71/29/13 41/11/13 5/30/13
f 87/12/14 1/16/14 32/31/14
f 77/21/15 22/32/15 83/15/15
f 32/31/16 4/33/16 55/13/16
f 5/30/17 4/33/17 42/34/17
f 62/20/18 55/13/18 7/35/18
f 65/36/19 59/37/19 60/38/19
f 65/36/20 58/39/20 12/4/20
f 5/30/21 41/11/21 82/40/21
f 5/30/22 10/41/22 7/35/22
f 45/42/23 47/28/23 24/43/23
f 4/33/24 7/35/24 55/13/24
f 2/44/25 6/45/25 16/27/25
f 69/9/26 15/46/26 85/47/26
f 15/46/27 41/11/27 71/29/27
f 85/47/28 84/48/28 69/9/28
f 49/5/29 56/49/29 51/50/29
f 32/31/30 42/34/30 4/33/30
f 27/8/31 72/7/31 8/10/31
f 33/51/32 80/52/32 72/7/32
f 46/53/33 86/26/33 10/41/33
f 2/44/34 85/47/34 15/46/34
f 82/40/35 10/41/35 5/30/35
f 2/44/36 16/27/36 64/54/36
f 4/33/37 5/30/37 7/35/37
f 57/2/38 48/55/38 21/56/38
f 22/32/39 74/57/39 75/58/39
f 3/3/40 63/59/40 67/1/40
f 6/45/41 42/34/41 32/31/41
f 37/60/42 27/8/42 25/61/42
f 43/62/43 6/45/43 2/44/43
f 83/15/44 24/43/44 1/16/44
f 15/46/45 69/9/45 41/11/45
f 28/23/46 29/63/46 73/24/46
f 7/35/47 10/41/47 86/26/47
f 18/64/48 45/42/48 44/18/48
f 69/9/49 84/48/49 25/61/49
f 44/18/50 30/65/50 18/64/50
f 29/63/51 28/23/51 54/66/51
f 42/34/52 6/45/52 71/29/52
f 71/29/53 5/30/53 42/34/53
f 87/12/54 32/31/54 55/13/54
f 43/62/55 15/46/55 71/29/55
f 72/7/56 9/67/56 8/10/56
f 24/43/57 44/18/57 45/42/57
f 43/62/58 2/44/58 15/46/58
f 38/6/59 34/68/59 19/69/59
f 53/70/60 12/4/60 28/23/60
f 2/44/61 64/54/61 85/47/61
f 54/66/62 58/39/62 65/36/62
f 19/69/63 34/68/63 40/71/63
f 22/32/64 39/72/64 83/15/64
f 33/51/65 21/56/65 48/55/65
f 78/14/66 79/73/66 74/57/66
f 30/65/67 11/74/67 76/75/67
f 20/22/68 36/76/68 75/58/68
f 35/77/69 72/7/69 38/6/69
f 25/61/70 11/74/70 61/17/70
f 40/71/71 73/24/71 29/63/71
f 52/78/72 56/49/72 50/79/72
f 27/8/73 34/68/73 38/6/73
f 60/38/74 35/77/74 66/80/74
f 25/61/75 8/10/75 69/9/75
f 75/58/76 53/70/76 28/23/76
f 61/17/77 30/65/77 44/18/77
f 47/28/78 64/54/78 16/27/78
f 81/81/79 82/40/79 41/11/79
f 18/64/80 30/65/80 76/75/80
f 53/70/81 75/58/81 50/79/81
f 28/23/82 20/22/82 75/58/82
f 71/29/83 6/45/83 43/62/83
f 39/72/84 22/32/84 36/76/84
f 36/76/85 22/32/85 75/58/85
f 31/82/86 75/58/86 74/57/86
f 49/5/87 12/4/87 56/49/87
f 80/52/88 46/53/88 10/41/88
f 3/3/89 57/2/89 21/56/89
f 59/37/90 21/56/90 33/51/90
f 72/7/91 35/77/91 33/51/91
f 45/42/92 18/64/92 14/83/92
f 39/72/93 36/76/93 17/84/93
f 85/47/94 13/85/94 70/86/94
f 60/38/95 29/63/95 54/66/95
f 19/69/96 40/71/96 29/63/96
f 57/2/97 63/59/97 68/25/97
f 29/63/98 66/80/98 19/69/98
f 40/71/99 34/68/99 36/76/99
f 28/23/100 12/4/100 58/39/100
f 56/49/101 12/4/101 53/70/101
f 60/38/102 59/37/102 33/51/102
f 81/81/103 80/52/103 82/40/103
f 63/59/104 31/82/104 26/87/104
f 63/59/105 3/3/105 49/5/105
f 52/78/106 31/82/106 51/50/106
f 36/76/107 20/22/107 73/24/107
f 60/38/108 33/51/108 35/77/108
f 36/76/109 73/24/109 40/71/109
f 9/67/110 72/7/110 80/52/110
f 80/52/111 33/51/111 48/55/111
f 8/10/112 9/67/112 81/81/112
f 61/17/113 17/84/113 37/60/113
f 44/18/114 83/15/114 23/19/114
f 23/19/115 83/15/115 39/72/115
f 34/68/116 37/60/116 36/76/116
f 23/19/117 39/72/117 17/84/117
f 30/65/118 61/17/118 11/74/118
f 79/73/119 26/87/119 74/57/119
f 83/15/120 44/18/120 24/43/120
f 17/84/121 61/17/121 23/19/121
f 37/60/122 25/61/122 61/17/122
f 14/83/123 47/28/123 45/42/123
f 31/82/124 52/78/124 75/58/124
f 59/37/125 65/36/125 21/56/125
f 48/55/126 46/53/126 80/52/126
f 37/60/127 17/84/127 36/76/127
f 13/85/128 14/83/128 76/75/128
f 60/38/129 54/66/129 65/36/129
f 70/86/130 84/48/130 85/47/130
f 37/60/131 34/68/131 27/8/131
f 84/48/132 70/86/132 11/74/132
f 12/4/133 3/3/133 65/36/133
f 11/74/134 70/86/134 76/75/134
f 84/48/135 11/74/135 25/61/135
f 13/85/136 76/75/136 70/86/136
f 75/58/137 52/78/137 50/79/137
f 65/36/138 3/3/138 21/56/138
f 74/57/139 77/21/139 78/14/139
f 56/49/140 52/78/140 51/50/140
f 60/38/141 66/80/141 29/63/141
f 58/39/142 54/66/142 28/23/142
f 67/1/143 63/59/143 57/2/143
f 26/87/144 62/20/144 68/25/144
f 35/77/145 19/69/145 66/80/145
f 13/85/146 85/47/146 64/54/146
f 86/26/147 46/53/147 57/2/147
f 26/87/148 68/25/148 63/59/148
f 77/21/149 74/57/149 22/32/149
f 31/82/150 63/59/150 49/5/150
f 27/8/151 8/10/151 25/61/151
f 57/2/152 68/25/152 86/26/152
f 80/52/153 81/81/153 9/67/153
f 57/2/154 46/53/154 48/55/154
f 32/31/155 16/27/155 6/45/155
f 82/40/156 80/52/156 10/41/156
f 81/81/157 41/11/157 8/10/157
f 1/16/158 24/43/158 47/28/158
f 64/54/159 47/28/159 14/83/159
f 79/73/160 78/14/160 62/20/160
f 64/54/161 14/83/161 13/85/161
f 53/70/162 50/79/162 56/49/162
f 14/83/163 18/64/163 76/75/163
f 31/82/164 49/5/164 51/50/164
f 19/69/165 35/77/165 38/6/165
f 62/20/166 26/87/166 79/73/166
f 26/87/167 31/82/167 74/57/167
f 16/27/168 32/31/168 1/16/168
f 86/26/169 62/20/169 7/35/169
f 83/15/170 87/12/170 77/21/170
