# Blender v2.79 (sub 0) OBJ File: ''
# www.blender.org
mtllib stone3.mtl
o Icosphere_Icosphere.001
v 0.011754 1.450228 -0.214341
v -0.661395 0.891189 1.164949
v 0.539439 0.902295 1.370762
v 1.415554 0.993637 -0.442228
v 0.481668 0.709894 -1.533564
v -1.176097 1.080303 -0.799558
v -0.106644 -1.325318 1.083633
v 1.027642 -0.676344 1.136261
v 1.139782 -0.929555 -1.075470
v -0.199721 -0.582239 -0.949729
v -1.344112 -0.955435 0.231842
v 0.030456 -1.127623 -0.204056
v 0.166554 1.180084 0.813566
v -0.232240 1.168459 0.828894
v 0.301970 0.943338 1.796730
v -1.367327 0.896566 0.217619
v -0.713289 1.134604 -0.035936
v 0.762091 1.220853 0.470711
v 0.796169 1.243444 0.682698
v 0.360859 1.199359 -1.021198
v 1.332342 1.137298 -0.886517
v -0.591236 0.957211 -1.094198
v -1.713815 0.182494 0.207013
v -1.830582 0.035774 -0.653282
v 0.342601 -0.427255 1.842287
v -1.412125 -0.276540 1.233835
v 1.803678 0.292980 0.217107
v 0.857519 -0.003909 1.533764
v 1.333977 -0.074406 -1.591458
v 1.895534 0.436278 -0.357004
v -1.298438 0.035109 -1.381220
v -0.328953 -0.267321 -1.812736
v -0.388433 -1.331020 0.818186
v 0.276951 -1.077513 1.312621
v 1.102721 -1.194228 0.430687
v 0.457563 -1.049028 -1.015438
v -1.276981 -0.558140 -1.184805
v 0.042450 -1.423741 0.737485
v -0.787264 -1.043236 -0.141087
v 0.439837 -1.109242 0.454126
v 0.752916 -0.837099 -0.589742
v -0.347498 -0.938737 -0.512823
vn -0.0183 0.9663 0.2567
vn -0.3611 0.8913 0.2742
vn 0.0737 0.9672 0.2431
vn 0.3866 0.9148 -0.1172
vn -0.4472 0.7808 -0.4363
vn -0.7487 0.3550 0.5599
vn 0.8744 0.0420 0.4834
vn 0.7233 0.6414 0.2558
vn 0.3749 0.4666 -0.8011
vn -0.3078 0.4899 -0.8156
vn -0.7420 0.5032 0.4430
vn 0.3178 0.2748 0.9075
vn 0.7071 0.6511 0.2757
vn 0.1079 0.1893 -0.9760
vn -0.7433 0.3896 -0.5438
vn -0.1699 -0.9647 0.2011
vn 0.4903 -0.8626 0.1249
vn -0.4225 -0.8909 -0.1669
vn -0.4840 -0.5906 -0.6457
vn -0.3236 -0.9069 -0.2697
vn -0.1246 -0.9070 -0.4023
vn -0.1022 -0.9196 -0.3794
vn 0.1143 -0.7883 -0.6046
vn 0.0380 -0.8311 -0.5549
vn 0.1114 -0.9183 0.3799
vn 0.1909 -0.9251 0.3281
vn 0.2951 -0.9425 -0.1572
vn -0.1318 -0.9489 -0.2869
vn -0.0829 -0.8076 0.5839
vn 0.4718 -0.8394 -0.2700
vn 0.6788 -0.7177 0.1553
vn 0.3268 -0.8626 0.3861
vn -0.1206 -0.9474 -0.2964
vn -0.2399 -0.9528 -0.1861
vn -0.2660 -0.9482 -0.1739
vn -0.7989 -0.5682 -0.1972
vn -0.7878 -0.2191 -0.5757
vn 0.1968 -0.3017 -0.9329
vn -0.5805 -0.7891 -0.2010
vn 0.1737 -0.6121 -0.7715
vn 0.0157 -0.5192 -0.8545
vn 0.8863 -0.4594 -0.0589
vn 0.9060 -0.4213 0.0398
vn 0.8646 -0.3567 0.3538
vn 0.4023 -0.3883 0.8291
vn 0.7075 -0.4879 0.5113
vn -0.0588 -0.6269 0.7769
vn -0.4906 -0.6874 0.5356
vn -0.7317 -0.6760 -0.0872
vn -0.5621 -0.1649 0.8105
vn -0.3921 -0.8816 -0.2630
vn -0.2411 0.4522 -0.8587
vn -0.2475 0.4504 -0.8579
vn 0.8964 -0.3598 -0.2589
vn 0.8213 0.2877 -0.4926
vn 0.7503 0.6572 0.0720
vn 0.8188 -0.1241 0.5604
vn 0.6820 0.4348 0.5881
vn 0.7977 0.3662 0.4792
vn -0.3203 -0.5127 0.7966
vn -0.3259 0.0218 0.9452
vn -0.5215 0.3803 0.7638
vn -0.9369 -0.3005 0.1784
vn -0.8989 0.4355 0.0477
vn -0.8497 0.5233 -0.0652
vn 0.1311 0.9801 -0.1492
vn -0.2287 0.9555 -0.1865
vn -0.1250 0.7025 -0.7006
vn 0.1392 0.7322 -0.6667
vn 0.0682 0.9971 -0.0327
vn 0.5274 0.8323 0.1704
vn 0.1589 0.9787 -0.1298
vn -0.1175 0.9893 -0.0865
vn 0.0024 0.8956 0.4449
vn -0.3002 0.9470 0.1146
vn -0.2953 0.9469 0.1272
vn -0.3595 0.9186 0.1640
vn 0.4311 0.8889 0.1547
vn -0.0192 0.9714 0.2366
vn -0.2870 0.8859 0.3645
usemtl Material.001
s off
f 1//1 14//1 13//1
f 2//2 14//2 16//2
f 1//3 13//3 18//3
f 1//4 18//4 20//4
f 1//5 20//5 17//5
f 2//6 16//6 23//6
f 3//7 15//7 25//7
f 4//8 19//8 27//8
f 5//9 21//9 29//9
f 6//10 22//10 31//10
f 2//11 23//11 26//11
f 3//12 25//12 28//12
f 4//13 27//13 30//13
f 5//14 29//14 32//14
f 6//15 31//15 24//15
f 7//16 33//16 38//16
f 8//17 34//17 40//17
f 9//18 35//18 41//18
f 10//19 36//19 42//19
f 11//20 37//20 39//20
f 39//21 42//21 12//21
f 39//22 37//22 42//22
f 37//23 10//23 42//23
f 42//24 41//24 12//24
f 42//25 36//25 41//25
f 36//26 9//26 41//26
f 41//27 40//27 12//27
f 41//28 35//28 40//28
f 35//29 8//29 40//29
f 40//30 38//30 12//30
f 40//31 34//31 38//31
f 34//32 7//32 38//32
f 38//33 39//33 12//33
f 38//34 33//34 39//34
f 33//35 11//35 39//35
f 24//36 37//36 11//36
f 24//37 31//37 37//37
f 31//38 10//38 37//38
f 32//39 36//39 10//39
f 32//40 29//40 36//40
f 29//41 9//41 36//41
f 30//42 35//42 9//42
f 30//43 27//43 35//43
f 27//44 8//44 35//44
f 28//45 34//45 8//45
f 28//46 25//46 34//46
f 25//47 7//47 34//47
f 26//48 33//48 7//48
f 26//49 23//49 33//49
f 23//50 11//50 33//50
f 31//51 32//51 10//51
f 31//52 22//52 32//52
f 22//53 5//53 32//53
f 29//54 30//54 9//54
f 29//55 21//55 30//55
f 21//56 4//56 30//56
f 27//57 28//57 8//57
f 27//58 19//58 28//58
f 19//59 3//59 28//59
f 25//60 26//60 7//60
f 25//61 15//61 26//61
f 15//62 2//62 26//62
f 23//63 24//63 11//63
f 23//64 16//64 24//64
f 16//65 6//65 24//65
f 17//66 22//66 6//66
f 17//67 20//67 22//67
f 20//68 5//68 22//68
f 20//69 21//69 5//69
f 20//70 18//70 21//70
f 18//71 4//71 21//71
f 18//72 19//72 4//72
f 18//73 13//73 19//73
f 13//74 3//74 19//74
f 16//75 17//75 6//75
f 16//76 14//76 17//76
f 14//77 1//77 17//77
f 13//78 15//78 3//78
f 13//79 14//79 15//79
f 14//80 2//80 15//80
