# Blender v2.80 (sub 75) OBJ File: 'FruitHunterContinued.blend'
# www.blender.org
mtllib table.mtl
o planc.002_Plane.016
v -1.763285 1.679021 -0.678126
v -1.763285 1.676729 0.704997
v -1.667879 1.679021 -0.678126
v -1.667879 1.676729 0.704997
v -1.763284 1.304533 -0.282970
v -1.763285 1.299778 0.325827
v -1.667879 1.304533 -0.282970
v -1.667879 1.299778 0.325827
v -1.763285 1.616138 -0.676161
v -1.667879 1.616138 -0.676161
v -1.763285 1.607411 0.708109
v -1.667879 1.607411 0.708109
v -1.815093 1.679436 0.032792
v -1.815093 1.676215 0.297691
v -1.719687 1.679436 0.032792
v -1.719687 1.676215 0.297691
v -1.815093 0.015203 1.424753
v -1.815093 0.014360 1.703917
v -1.719687 0.015203 1.424753
v -1.719687 0.014360 1.703917
v -1.718308 0.998717 1.761588
v -1.718308 0.791192 1.561892
v -1.604300 0.998717 1.761588
v -1.604300 0.791192 1.561892
v -1.718308 0.931710 1.759783
v -1.604300 0.931710 1.759783
v -2.169184 1.755738 0.193955
v -2.169184 1.755738 0.472381
v -2.169184 1.694642 0.193955
v -2.169184 1.694642 0.472381
v 0.017693 1.755738 0.193955
v 0.017693 1.694642 0.193955
v 0.017693 1.755738 0.472381
v 0.017693 1.694642 0.472381
v -2.169184 1.755738 0.498334
v -2.169184 1.755738 0.776760
v -2.169184 1.694642 0.498334
v -2.169184 1.694642 0.776760
v 0.017693 1.755738 0.498334
v 0.017693 1.694642 0.498334
v 0.017693 1.755738 0.776760
v 0.017693 1.694642 0.776760
v -2.169184 1.070603 1.191699
v -2.169184 1.070603 1.470125
v -2.169184 1.009507 1.191699
v -2.169184 1.009508 1.470125
v 0.017693 1.070603 1.191699
v 0.017693 1.009507 1.191699
v 0.017693 1.070603 1.470125
v 0.017693 1.009507 1.470126
v -2.169184 1.070603 1.489531
v -2.169184 1.070603 1.767958
v -2.169184 1.009507 1.489532
v -2.169184 1.009508 1.767958
v 0.017693 1.070603 1.489531
v 0.017693 1.009507 1.489532
v 0.017693 1.070603 1.767958
v 0.017693 1.009507 1.767958
v -2.169184 1.755738 -0.132623
v -2.169184 1.755738 0.174332
v -2.169184 1.694642 -0.132623
v -2.169184 1.694642 0.174332
v 0.017693 1.755738 -0.132623
v 0.017693 1.694642 -0.132622
v 0.017693 1.755738 0.174332
v 0.017693 1.694642 0.174332
v -1.763285 1.679021 0.686638
v -1.763284 1.676729 -0.696485
v -1.667879 1.679021 0.686638
v -1.667878 1.676729 -0.696485
v -1.763285 1.304533 0.291482
v -1.763284 1.299778 -0.317315
v -1.667879 1.304533 0.291482
v -1.667879 1.299778 -0.317315
v -1.763285 1.616138 0.684673
v -1.667879 1.616138 0.684673
v -1.763284 1.607411 -0.699597
v -1.667878 1.607411 -0.699597
v -1.815093 1.679436 -0.024280
v -1.815093 1.676215 -0.289179
v -1.719687 1.679436 -0.024280
v -1.719687 1.676215 -0.289179
v -1.815092 0.015203 -1.416241
v -1.815092 0.014360 -1.695405
v -1.719686 0.015203 -1.416241
v -1.719686 0.014360 -1.695405
v -1.718307 0.998717 -1.753076
v -1.718307 0.791192 -1.553380
v -1.604299 0.998717 -1.753076
v -1.604299 0.791192 -1.553380
v -1.718307 0.931710 -1.751271
v -1.604299 0.931710 -1.751271
v -1.718308 0.998717 0.004256
v -1.604301 0.998717 0.004256
v -1.718308 0.791192 0.004256
v -1.604301 0.791192 0.004256
v -1.604301 0.931710 0.004256
v -1.718308 0.931710 0.004256
v -2.169184 1.755738 -0.185443
v -2.169184 1.755738 -0.463869
v -2.169184 1.694642 -0.185443
v -2.169184 1.694642 -0.463869
v 0.017693 1.755738 -0.185441
v 0.017693 1.694642 -0.185442
v 0.017693 1.755738 -0.463868
v 0.017693 1.694642 -0.463868
v -2.169184 1.755738 -0.489822
v -2.169183 1.755738 -0.768248
v -2.169184 1.694642 -0.489822
v -2.169183 1.694642 -0.768248
v 0.017693 1.755738 -0.489820
v 0.017693 1.694642 -0.489821
v 0.017694 1.755738 -0.768247
v 0.017694 1.694642 -0.768247
v -2.169183 1.070603 -1.183187
v -2.169183 1.070603 -1.461614
v -2.169183 1.009507 -1.183187
v -2.169183 1.009508 -1.461614
v 0.017694 1.070603 -1.183186
v 0.017694 1.009507 -1.183186
v 0.017694 1.070603 -1.461612
v 0.017694 1.009507 -1.461612
v -2.169183 1.070603 -1.481019
v -2.169183 1.070603 -1.759446
v -2.169183 1.009507 -1.481020
v -2.169183 1.009508 -1.759446
v 0.017694 1.070603 -1.481018
v 0.017694 1.009507 -1.481018
v 0.017694 1.070603 -1.759445
v 0.017694 1.009507 -1.759445
v -2.169184 1.755738 0.141135
v -2.169184 1.755738 -0.165820
v -2.169184 1.694642 0.141134
v -2.169184 1.694642 -0.165820
v 0.017693 1.755738 0.141136
v 0.017693 1.694642 0.141136
v 0.017693 1.755738 -0.165819
v 0.017693 1.694642 -0.165819
v 1.756163 1.679021 -0.678125
v 1.756162 1.676728 0.704998
v 1.660757 1.679021 -0.678125
v 1.660756 1.676728 0.704998
v 1.756162 1.304532 -0.282968
v 1.756162 1.299778 0.325828
v 1.660757 1.304532 -0.282968
v 1.660756 1.299778 0.325828
v 1.756163 1.616138 -0.676160
v 1.660757 1.616138 -0.676160
v 1.756162 1.607411 0.708110
v 1.660756 1.607411 0.708110
v 1.807971 1.679435 0.032793
v 1.807971 1.676215 0.297693
v 1.712565 1.679435 0.032793
v 1.712565 1.676215 0.297693
v 1.807970 0.015203 1.424755
v 1.807969 0.014359 1.703918
v 1.712564 0.015203 1.424755
v 1.712564 0.014359 1.703918
v 1.711185 0.998717 1.761589
v 1.711185 0.791192 1.561893
v 1.597177 0.998717 1.761589
v 1.597177 0.791192 1.561893
v 1.711185 0.931710 1.759784
v 1.597177 0.931710 1.759784
v 2.162061 1.755738 0.193956
v 2.162061 1.755738 0.472383
v 2.162061 1.694642 0.193956
v 2.162061 1.694642 0.472383
v -0.024816 1.755738 0.193955
v -0.024816 1.694642 0.193955
v -0.024816 1.755738 0.472381
v -0.024816 1.694642 0.472381
v 2.162061 1.755738 0.498335
v 2.162061 1.755738 0.776762
v 2.162061 1.694642 0.498335
v 2.162061 1.694642 0.776762
v -0.024816 1.755738 0.498334
v -0.024816 1.694642 0.498334
v -0.024816 1.755738 0.776760
v -0.024816 1.694642 0.776760
v 2.162061 1.070603 1.191700
v 2.162061 1.070603 1.470127
v 2.162061 1.009507 1.191700
v 2.162061 1.009507 1.470127
v -0.024816 1.070603 1.191699
v -0.024816 1.009507 1.191699
v -0.024816 1.070603 1.470125
v -0.024816 1.009507 1.470126
v 2.162060 1.070603 1.489533
v 2.162060 1.070603 1.767959
v 2.162060 1.009507 1.489533
v 2.162060 1.009507 1.767959
v -0.024816 1.070603 1.489531
v -0.024816 1.009507 1.489532
v -0.024817 1.070603 1.767958
v -0.024817 1.009507 1.767958
v 2.162062 1.755738 -0.132621
v 2.162062 1.755738 0.174333
v 2.162062 1.694642 -0.132621
v 2.162062 1.694642 0.174333
v -0.024815 1.755738 -0.132623
v -0.024815 1.694642 -0.132622
v -0.024815 1.755738 0.174332
v -0.024815 1.694642 0.174332
v 1.756162 1.679021 0.686639
v 1.756162 1.676728 -0.696483
v 1.660756 1.679021 0.686639
v 1.660757 1.676728 -0.696483
v 1.756162 1.304532 0.291483
v 1.756162 1.299778 -0.317313
v 1.660756 1.304532 0.291483
v 1.660756 1.299778 -0.317314
v 1.756162 1.616138 0.684674
v 1.660756 1.616138 0.684674
v 1.756162 1.607411 -0.699596
v 1.660757 1.607411 -0.699596
v 1.807971 1.679435 -0.024279
v 1.807971 1.676215 -0.289178
v 1.712565 1.679435 -0.024279
v 1.712565 1.676215 -0.289178
v 1.807971 0.015203 -1.416240
v 1.807971 0.014359 -1.695403
v 1.712565 0.015203 -1.416240
v 1.712565 0.014359 -1.695403
v 1.711186 0.998717 -1.753075
v 1.711186 0.791192 -1.553379
v 1.597178 0.998717 -1.753075
v 1.597178 0.791192 -1.553379
v 1.711186 0.931710 -1.751269
v 1.597178 0.931710 -1.751270
v 1.711186 0.998717 0.004257
v 1.597178 0.998717 0.004257
v 1.711186 0.791192 0.004257
v 1.597178 0.791192 0.004257
v 1.597178 0.931710 0.004257
v 1.711186 0.931710 0.004257
v 2.162062 1.755738 -0.185441
v 2.162062 1.755738 -0.463868
v 2.162062 1.694642 -0.185442
v 2.162062 1.694642 -0.463868
v -0.024815 1.755738 -0.185441
v -0.024815 1.694642 -0.185442
v -0.024815 1.755738 -0.463868
v -0.024815 1.694642 -0.463868
v 2.162062 1.755738 -0.489820
v 2.162062 1.755738 -0.768247
v 2.162062 1.694642 -0.489821
v 2.162062 1.694642 -0.768247
v -0.024815 1.755738 -0.489820
v -0.024815 1.694642 -0.489821
v -0.024815 1.755738 -0.768247
v -0.024815 1.694642 -0.768247
v 2.162062 1.070603 -1.183186
v 2.162062 1.070603 -1.461612
v 2.162062 1.009507 -1.183186
v 2.162062 1.009507 -1.461612
v -0.024815 1.070603 -1.183186
v -0.024815 1.009507 -1.183186
v -0.024815 1.070603 -1.461612
v -0.024815 1.009507 -1.461612
v 2.162061 1.070603 -1.481018
v 2.162062 1.070603 -1.759445
v 2.162061 1.009507 -1.481018
v 2.162062 1.009507 -1.759445
v -0.024815 1.070603 -1.481018
v -0.024815 1.009507 -1.481018
v -0.024815 1.070603 -1.759445
v -0.024815 1.009507 -1.759445
v 2.162062 1.755738 0.141136
v 2.162062 1.755738 -0.165819
v 2.162062 1.694642 0.141136
v 2.162062 1.694642 -0.165819
v -0.024815 1.755738 0.141136
v -0.024815 1.694642 0.141136
v -0.024815 1.755738 -0.165819
v -0.024815 1.694642 -0.165819
vt 0.829633 0.000000
vt 0.829633 1.000000
vt 1.000000 1.000000
vt 1.000000 0.000000
vt 0.829633 0.000000
vt 1.000000 0.000000
vt 1.000000 1.000000
vt 0.829633 1.000000
vt 0.089910 0.000000
vt 0.089910 1.000000
vt 0.089910 1.000000
vt 0.089910 0.000000
vt 0.089910 0.000000
vt 0.089910 1.000000
vt 1.000000 1.000000
vt 1.000000 0.000000
vt 0.089910 0.000000
vt 1.000000 0.000000
vt 1.000000 1.000000
vt 0.089910 1.000000
vt 0.544955 0.262783
vt 0.544955 1.000000
vt 1.000000 1.000000
vt 1.000000 0.262783
vt 0.544955 0.262783
vt 1.000000 0.262783
vt 1.000000 1.000000
vt 0.544955 1.000000
vt 0.544955 0.000000
vt 1.000000 0.000000
vt 1.000000 0.000000
vt 0.544955 0.000000
vt 0.089910 0.000000
vt 0.089910 1.000000
vt 0.089910 1.000000
vt 0.089910 0.000000
vt 0.544955 1.000000
vt 0.544955 1.000000
vt 0.544955 0.000000
vt 0.544955 0.000000
vt 0.089910 0.000000
vt 0.089910 1.000000
vt 0.089910 1.000000
vt 0.089910 0.000000
vt 0.544955 1.000000
vt 0.544955 1.000000
vt 0.544955 0.000000
vt 0.544955 0.000000
vt 0.089910 0.000000
vt 0.089910 1.000000
vt 0.089910 1.000000
vt 0.089910 0.000000
vt 0.544955 1.000000
vt 0.544955 1.000000
vt 0.544955 0.000000
vt 0.544955 0.000000
vt 0.089910 0.000000
vt 0.089910 1.000000
vt 0.089910 1.000000
vt 0.089910 0.000000
vt 0.544955 1.000000
vt 0.544955 1.000000
vt 0.544955 0.000000
vt 0.544955 0.000000
vt 0.089910 0.000000
vt 0.089910 1.000000
vt 0.089910 1.000000
vt 0.089910 0.000000
vt 0.544955 1.000000
vt 0.544955 1.000000
vt 0.544955 0.000000
vt 0.544955 0.000000
vt 0.829633 0.000000
vt 1.000000 0.000000
vt 1.000000 1.000000
vt 0.829633 1.000000
vt 0.829633 0.000000
vt 0.829633 1.000000
vt 1.000000 1.000000
vt 1.000000 0.000000
vt 0.089910 0.000000
vt 0.089910 0.000000
vt 0.089910 1.000000
vt 0.089910 1.000000
vt 0.089910 0.000000
vt 1.000000 0.000000
vt 1.000000 1.000000
vt 0.089910 1.000000
vt 0.089910 0.000000
vt 0.089910 1.000000
vt 1.000000 1.000000
vt 1.000000 0.000000
vt 1.000000 0.262783
vt 1.000000 1.000000
vt 1.000000 1.000000
vt 1.000000 0.262783
vt 1.000000 0.000000
vt 1.000000 0.000000
vt 0.089910 0.000000
vt 0.089910 0.000000
vt 0.089910 1.000000
vt 0.089910 1.000000
vt 0.544955 1.000000
vt 0.544955 1.000000
vt 0.544955 0.000000
vt 0.544955 0.000000
vt 0.089910 0.000000
vt 0.089910 0.000000
vt 0.089910 1.000000
vt 0.089910 1.000000
vt 0.544955 1.000000
vt 0.544955 1.000000
vt 0.544955 0.000000
vt 0.544955 0.000000
vt 0.089910 0.000000
vt 0.089910 0.000000
vt 0.089910 1.000000
vt 0.089910 1.000000
vt 0.544955 1.000000
vt 0.544955 1.000000
vt 0.544955 0.000000
vt 0.544955 0.000000
vt 0.089910 0.000000
vt 0.089910 0.000000
vt 0.089910 1.000000
vt 0.089910 1.000000
vt 0.544955 1.000000
vt 0.544955 1.000000
vt 0.544955 0.000000
vt 0.544955 0.000000
vt 0.089910 0.000000
vt 0.089910 0.000000
vt 0.089910 1.000000
vt 0.089910 1.000000
vt 0.544955 1.000000
vt 0.544955 1.000000
vt 0.544955 0.000000
vt 0.544955 0.000000
vt 0.829633 0.000000
vt 1.000000 0.000000
vt 1.000000 1.000000
vt 0.829633 1.000000
vt 0.829633 0.000000
vt 0.829633 1.000000
vt 1.000000 1.000000
vt 1.000000 0.000000
vt 0.089910 0.000000
vt 0.089910 0.000000
vt 0.089910 1.000000
vt 0.089910 1.000000
vt 0.089910 0.000000
vt 1.000000 0.000000
vt 1.000000 1.000000
vt 0.089910 1.000000
vt 0.089910 0.000000
vt 0.089910 1.000000
vt 1.000000 1.000000
vt 1.000000 0.000000
vt 0.544955 0.262783
vt 1.000000 0.262783
vt 1.000000 1.000000
vt 0.544955 1.000000
vt 0.544955 0.262783
vt 0.544955 1.000000
vt 1.000000 1.000000
vt 1.000000 0.262783
vt 0.544955 0.000000
vt 0.544955 0.000000
vt 1.000000 0.000000
vt 1.000000 0.000000
vt 0.089910 0.000000
vt 0.089910 0.000000
vt 0.089910 1.000000
vt 0.089910 1.000000
vt 0.544955 1.000000
vt 0.544955 1.000000
vt 0.544955 0.000000
vt 0.544955 0.000000
vt 0.089910 0.000000
vt 0.089910 0.000000
vt 0.089910 1.000000
vt 0.089910 1.000000
vt 0.544955 1.000000
vt 0.544955 1.000000
vt 0.544955 0.000000
vt 0.544955 0.000000
vt 0.089910 0.000000
vt 0.089910 0.000000
vt 0.089910 1.000000
vt 0.089910 1.000000
vt 0.544955 1.000000
vt 0.544955 1.000000
vt 0.544955 0.000000
vt 0.544955 0.000000
vt 0.089910 0.000000
vt 0.089910 0.000000
vt 0.089910 1.000000
vt 0.089910 1.000000
vt 0.544955 1.000000
vt 0.544955 1.000000
vt 0.544955 0.000000
vt 0.544955 0.000000
vt 0.089910 0.000000
vt 0.089910 0.000000
vt 0.089910 1.000000
vt 0.089910 1.000000
vt 0.544955 1.000000
vt 0.544955 1.000000
vt 0.544955 0.000000
vt 0.544955 0.000000
vt 0.829633 0.000000
vt 0.829633 1.000000
vt 1.000000 1.000000
vt 1.000000 0.000000
vt 0.829633 0.000000
vt 1.000000 0.000000
vt 1.000000 1.000000
vt 0.829633 1.000000
vt 0.089910 0.000000
vt 0.089910 1.000000
vt 0.089910 1.000000
vt 0.089910 0.000000
vt 0.089910 0.000000
vt 0.089910 1.000000
vt 1.000000 1.000000
vt 1.000000 0.000000
vt 0.089910 0.000000
vt 1.000000 0.000000
vt 1.000000 1.000000
vt 0.089910 1.000000
vt 1.000000 1.000000
vt 1.000000 0.262783
vt 1.000000 0.262783
vt 1.000000 1.000000
vt 1.000000 0.000000
vt 1.000000 0.000000
vt 0.089910 0.000000
vt 0.089910 1.000000
vt 0.089910 1.000000
vt 0.089910 0.000000
vt 0.544955 1.000000
vt 0.544955 1.000000
vt 0.544955 0.000000
vt 0.544955 0.000000
vt 0.089910 0.000000
vt 0.089910 1.000000
vt 0.089910 1.000000
vt 0.089910 0.000000
vt 0.544955 1.000000
vt 0.544955 1.000000
vt 0.544955 0.000000
vt 0.544955 0.000000
vt 0.089910 0.000000
vt 0.089910 1.000000
vt 0.089910 1.000000
vt 0.089910 0.000000
vt 0.544955 1.000000
vt 0.544955 1.000000
vt 0.544955 0.000000
vt 0.544955 0.000000
vt 0.089910 0.000000
vt 0.089910 1.000000
vt 0.089910 1.000000
vt 0.089910 0.000000
vt 0.544955 1.000000
vt 0.544955 1.000000
vt 0.544955 0.000000
vt 0.544955 0.000000
vt 0.089910 0.000000
vt 0.089910 1.000000
vt 0.089910 1.000000
vt 0.089910 0.000000
vt 0.544955 1.000000
vt 0.544955 1.000000
vt 0.544955 0.000000
vt 0.544955 0.000000
vn -1.0000 0.0000 -0.0000
vn 1.0000 0.0000 0.0000
vn -0.0000 1.0000 0.0017
vn 0.0000 -1.0000 -0.0078
vn 0.0000 -0.0312 -0.9995
vn -0.0000 -0.7791 0.6269
vn -0.0000 0.0449 0.9990
vn 0.0000 -0.7837 -0.6211
vn -0.0000 0.9999 0.0122
vn -0.0000 -1.0000 -0.0030
vn 0.0000 -0.6416 -0.7671
vn 0.0000 0.6460 0.7634
vn -0.0000 -0.8154 0.5790
vn -0.0000 1.0000 0.0000
vn -0.0000 -0.0269 0.9996
vn 0.0000 -1.0000 -0.0000
vn -0.0000 0.0000 1.0000
vn 0.0000 -0.0000 -1.0000
vn 0.0000 1.0000 -0.0017
vn -0.0000 -1.0000 0.0078
vn -0.0000 -0.0312 0.9995
vn 0.0000 -0.7791 -0.6269
vn 0.0000 0.0449 -0.9990
vn -0.0000 -0.7837 0.6211
vn 0.0000 0.9999 -0.0122
vn -0.0000 -1.0000 0.0030
vn 0.0000 -0.6416 0.7671
vn 0.0000 0.6460 -0.7634
vn 0.0000 -0.8154 -0.5790
vn 0.0000 -0.0269 -0.9996
usemtl wooden_fence.003
s off
f 9/1/1 11/2/1 2/3/1 1/4/1
f 10/5/2 3/6/2 4/7/2 12/8/2
f 1/4/3 2/3/3 4/7/3 3/6/3
f 7/9/4 8/10/4 6/11/4 5/12/4
f 9/1/5 1/4/5 3/6/5 10/5/5
f 11/2/6 6/11/6 8/10/6 12/8/6
f 2/3/7 11/2/7 12/8/7 4/7/7
f 5/12/8 9/1/8 10/5/8 7/9/8
f 7/9/2 10/5/2 12/8/2 8/10/2
f 5/12/1 6/11/1 11/2/1 9/1/1
f 17/13/1 18/14/1 14/15/1 13/16/1
f 19/17/2 15/18/2 16/19/2 20/20/2
f 13/16/9 14/15/9 16/19/9 15/18/9
f 19/17/10 20/20/10 18/14/10 17/13/10
f 17/13/11 13/16/11 15/18/11 19/17/11
f 14/15/12 18/14/12 20/20/12 16/19/12
f 98/21/1 95/22/1 22/23/1 25/24/1
f 97/25/2 26/26/2 24/27/2 96/28/2
f 25/24/13 22/23/13 24/27/13 26/26/13
f 93/29/14 21/30/14 23/31/14 94/32/14
f 21/30/15 25/24/15 26/26/15 23/31/15
f 94/32/2 23/31/2 26/26/2 97/25/2
f 93/29/1 98/21/1 25/24/1 21/30/1
f 22/23/16 95/22/16 96/28/16 24/27/16
f 29/33/1 30/34/1 28/35/1 27/36/1
f 33/37/17 28/35/17 30/34/17 34/38/17
f 27/36/18 31/39/18 32/40/18 29/33/18
f 29/33/16 32/40/16 34/38/16 30/34/16
f 27/36/14 28/35/14 33/37/14 31/39/14
f 37/41/1 38/42/1 36/43/1 35/44/1
f 41/45/17 36/43/17 38/42/17 42/46/17
f 35/44/18 39/47/18 40/48/18 37/41/18
f 37/41/16 40/48/16 42/46/16 38/42/16
f 35/44/14 36/43/14 41/45/14 39/47/14
f 45/49/1 46/50/1 44/51/1 43/52/1
f 49/53/17 44/51/17 46/50/17 50/54/17
f 43/52/18 47/55/18 48/56/18 45/49/18
f 45/49/16 48/56/16 50/54/16 46/50/16
f 43/52/14 44/51/14 49/53/14 47/55/14
f 53/57/1 54/58/1 52/59/1 51/60/1
f 57/61/17 52/59/17 54/58/17 58/62/17
f 51/60/18 55/63/18 56/64/18 53/57/18
f 53/57/16 56/64/16 58/62/16 54/58/16
f 51/60/14 52/59/14 57/61/14 55/63/14
f 61/65/1 62/66/1 60/67/1 59/68/1
f 65/69/17 60/67/17 62/66/17 66/70/17
f 59/68/18 63/71/18 64/72/18 61/65/18
f 61/65/16 64/72/16 66/70/16 62/66/16
f 59/68/14 60/67/14 65/69/14 63/71/14
f 75/73/1 67/74/1 68/75/1 77/76/1
f 76/77/2 78/78/2 70/79/2 69/80/2
f 67/74/19 69/80/19 70/79/19 68/75/19
f 73/81/20 71/82/20 72/83/20 74/84/20
f 75/73/21 76/77/21 69/80/21 67/74/21
f 77/76/22 78/78/22 74/84/22 72/83/22
f 68/75/23 70/79/23 78/78/23 77/76/23
f 71/82/24 73/81/24 76/77/24 75/73/24
f 73/81/2 74/84/2 78/78/2 76/77/2
f 71/82/1 75/73/1 77/76/1 72/83/1
f 83/85/1 79/86/1 80/87/1 84/88/1
f 85/89/2 86/90/2 82/91/2 81/92/2
f 79/86/25 81/92/25 82/91/25 80/87/25
f 85/89/26 83/85/26 84/88/26 86/90/26
f 83/85/27 85/89/27 81/92/27 79/86/27
f 80/87/28 82/91/28 86/90/28 84/88/28
f 98/21/1 91/93/1 88/94/1 95/22/1
f 97/25/2 96/28/2 90/95/2 92/96/2
f 91/93/29 92/96/29 90/95/29 88/94/29
f 93/29/14 94/32/14 89/97/14 87/98/14
f 87/98/30 89/97/30 92/96/30 91/93/30
f 94/32/2 97/25/2 92/96/2 89/97/2
f 93/29/1 87/98/1 91/93/1 98/21/1
f 88/94/16 90/95/16 96/28/16 95/22/16
f 101/99/1 99/100/1 100/101/1 102/102/1
f 105/103/18 106/104/18 102/102/18 100/101/18
f 99/100/17 101/99/17 104/105/17 103/106/17
f 101/99/16 102/102/16 106/104/16 104/105/16
f 99/100/14 103/106/14 105/103/14 100/101/14
f 109/107/1 107/108/1 108/109/1 110/110/1
f 113/111/18 114/112/18 110/110/18 108/109/18
f 107/108/17 109/107/17 112/113/17 111/114/17
f 109/107/16 110/110/16 114/112/16 112/113/16
f 107/108/14 111/114/14 113/111/14 108/109/14
f 117/115/1 115/116/1 116/117/1 118/118/1
f 121/119/18 122/120/18 118/118/18 116/117/18
f 115/116/17 117/115/17 120/121/17 119/122/17
f 117/115/16 118/118/16 122/120/16 120/121/16
f 115/116/14 119/122/14 121/119/14 116/117/14
f 125/123/1 123/124/1 124/125/1 126/126/1
f 129/127/18 130/128/18 126/126/18 124/125/18
f 123/124/17 125/123/17 128/129/17 127/130/17
f 125/123/16 126/126/16 130/128/16 128/129/16
f 123/124/14 127/130/14 129/127/14 124/125/14
f 133/131/1 131/132/1 132/133/1 134/134/1
f 137/135/18 138/136/18 134/134/18 132/133/18
f 131/132/17 133/131/17 136/137/17 135/138/17
f 133/131/16 134/134/16 138/136/16 136/137/16
f 131/132/14 135/138/14 137/135/14 132/133/14
f 147/139/2 139/140/2 140/141/2 149/142/2
f 148/143/1 150/144/1 142/145/1 141/146/1
f 139/140/3 141/146/3 142/145/3 140/141/3
f 145/147/4 143/148/4 144/149/4 146/150/4
f 147/139/5 148/143/5 141/146/5 139/140/5
f 149/142/6 150/144/6 146/150/6 144/149/6
f 140/141/7 142/145/7 150/144/7 149/142/7
f 143/148/8 145/147/8 148/143/8 147/139/8
f 145/147/1 146/150/1 150/144/1 148/143/1
f 143/148/2 147/139/2 149/142/2 144/149/2
f 155/151/2 151/152/2 152/153/2 156/154/2
f 157/155/1 158/156/1 154/157/1 153/158/1
f 151/152/9 153/158/9 154/157/9 152/153/9
f 157/155/10 155/151/10 156/154/10 158/156/10
f 155/151/11 157/155/11 153/158/11 151/152/11
f 152/153/12 154/157/12 158/156/12 156/154/12
f 236/159/2 163/160/2 160/161/2 233/162/2
f 235/163/1 234/164/1 162/165/1 164/166/1
f 163/160/13 164/166/13 162/165/13 160/161/13
f 231/167/14 232/168/14 161/169/14 159/170/14
f 159/170/15 161/169/15 164/166/15 163/160/15
f 232/168/1 235/163/1 164/166/1 161/169/1
f 231/167/2 159/170/2 163/160/2 236/159/2
f 160/161/16 162/165/16 234/164/16 233/162/16
f 167/171/2 165/172/2 166/173/2 168/174/2
f 171/175/17 172/176/17 168/174/17 166/173/17
f 165/172/18 167/171/18 170/177/18 169/178/18
f 167/171/16 168/174/16 172/176/16 170/177/16
f 165/172/14 169/178/14 171/175/14 166/173/14
f 175/179/2 173/180/2 174/181/2 176/182/2
f 179/183/17 180/184/17 176/182/17 174/181/17
f 173/180/18 175/179/18 178/185/18 177/186/18
f 175/179/16 176/182/16 180/184/16 178/185/16
f 173/180/14 177/186/14 179/183/14 174/181/14
f 183/187/2 181/188/2 182/189/2 184/190/2
f 187/191/17 188/192/17 184/190/17 182/189/17
f 181/188/18 183/187/18 186/193/18 185/194/18
f 183/187/16 184/190/16 188/192/16 186/193/16
f 181/188/14 185/194/14 187/191/14 182/189/14
f 191/195/2 189/196/2 190/197/2 192/198/2
f 195/199/17 196/200/17 192/198/17 190/197/17
f 189/196/18 191/195/18 194/201/18 193/202/18
f 191/195/16 192/198/16 196/200/16 194/201/16
f 189/196/14 193/202/14 195/199/14 190/197/14
f 199/203/2 197/204/2 198/205/2 200/206/2
f 203/207/17 204/208/17 200/206/17 198/205/17
f 197/204/18 199/203/18 202/209/18 201/210/18
f 199/203/16 200/206/16 204/208/16 202/209/16
f 197/204/14 201/210/14 203/207/14 198/205/14
f 213/211/2 215/212/2 206/213/2 205/214/2
f 214/215/1 207/216/1 208/217/1 216/218/1
f 205/214/19 206/213/19 208/217/19 207/216/19
f 211/219/20 212/220/20 210/221/20 209/222/20
f 213/211/21 205/214/21 207/216/21 214/215/21
f 215/212/22 210/221/22 212/220/22 216/218/22
f 206/213/23 215/212/23 216/218/23 208/217/23
f 209/222/24 213/211/24 214/215/24 211/219/24
f 211/219/1 214/215/1 216/218/1 212/220/1
f 209/222/2 210/221/2 215/212/2 213/211/2
f 221/223/2 222/224/2 218/225/2 217/226/2
f 223/227/1 219/228/1 220/229/1 224/230/1
f 217/226/25 218/225/25 220/229/25 219/228/25
f 223/227/26 224/230/26 222/224/26 221/223/26
f 221/223/27 217/226/27 219/228/27 223/227/27
f 218/225/28 222/224/28 224/230/28 220/229/28
f 236/159/2 233/162/2 226/231/2 229/232/2
f 235/163/1 230/233/1 228/234/1 234/164/1
f 229/232/29 226/231/29 228/234/29 230/233/29
f 231/167/14 225/235/14 227/236/14 232/168/14
f 225/235/30 229/232/30 230/233/30 227/236/30
f 232/168/1 227/236/1 230/233/1 235/163/1
f 231/167/2 236/159/2 229/232/2 225/235/2
f 226/231/16 233/162/16 234/164/16 228/234/16
f 239/237/2 240/238/2 238/239/2 237/240/2
f 243/241/18 238/239/18 240/238/18 244/242/18
f 237/240/17 241/243/17 242/244/17 239/237/17
f 239/237/16 242/244/16 244/242/16 240/238/16
f 237/240/14 238/239/14 243/241/14 241/243/14
f 247/245/2 248/246/2 246/247/2 245/248/2
f 251/249/18 246/247/18 248/246/18 252/250/18
f 245/248/17 249/251/17 250/252/17 247/245/17
f 247/245/16 250/252/16 252/250/16 248/246/16
f 245/248/14 246/247/14 251/249/14 249/251/14
f 255/253/2 256/254/2 254/255/2 253/256/2
f 259/257/18 254/255/18 256/254/18 260/258/18
f 253/256/17 257/259/17 258/260/17 255/253/17
f 255/253/16 258/260/16 260/258/16 256/254/16
f 253/256/14 254/255/14 259/257/14 257/259/14
f 263/261/2 264/262/2 262/263/2 261/264/2
f 267/265/18 262/263/18 264/262/18 268/266/18
f 261/264/17 265/267/17 266/268/17 263/261/17
f 263/261/16 266/268/16 268/266/16 264/262/16
f 261/264/14 262/263/14 267/265/14 265/267/14
f 271/269/2 272/270/2 270/271/2 269/272/2
f 275/273/18 270/271/18 272/270/18 276/274/18
f 269/272/17 273/275/17 274/276/17 271/269/17
f 271/269/16 274/276/16 276/274/16 272/270/16
f 269/272/14 270/271/14 275/273/14 273/275/14
