# Blender v2.81 (sub 16) OBJ File: 'torusX.blend'
# www.blender.org
mtllib torusX.mtl
o Torus
v -0.000000 -1.130000 -0.000000
v 0.093820 -1.084819 -0.000000
v 0.116991 -0.983298 -0.000000
v 0.052066 -0.901884 -0.000000
v -0.052066 -0.901884 -0.000000
v -0.116991 -0.983298 -0.000000
v -0.093820 -1.084819 -0.000000
v -0.000000 -1.000565 -0.525137
v 0.093820 -0.960559 -0.504140
v 0.116991 -0.870667 -0.456961
v 0.052066 -0.798579 -0.419126
v -0.052066 -0.798579 -0.419126
v -0.116992 -0.870667 -0.456961
v -0.093820 -0.960559 -0.504140
v -0.000000 -0.641913 -0.929972
v 0.093820 -0.616247 -0.892788
v 0.116991 -0.558577 -0.809238
v 0.052066 -0.512328 -0.742236
v -0.052066 -0.512328 -0.742236
v -0.116992 -0.558577 -0.809238
v -0.093820 -0.616247 -0.892788
v -0.000000 -0.136207 -1.121761
v 0.093819 -0.130761 -1.076909
v 0.116991 -0.118524 -0.976128
v 0.052066 -0.108710 -0.895308
v -0.052066 -0.108710 -0.895308
v -0.116992 -0.118524 -0.976128
v -0.093820 -0.130761 -1.076909
v -0.000000 0.400704 -1.056568
v 0.093819 0.384682 -1.014323
v 0.116991 0.348682 -0.919399
v 0.052066 0.319812 -0.843276
v -0.052066 0.319812 -0.843276
v -0.116992 0.348682 -0.919399
v -0.093820 0.384682 -1.014323
v -0.000000 0.845817 -0.749328
v 0.093819 0.811999 -0.719368
v 0.116991 0.736009 -0.652047
v 0.052066 0.675070 -0.598059
v -0.052066 0.675070 -0.598059
v -0.116992 0.736009 -0.652047
v -0.093820 0.811999 -0.719368
v -0.000000 1.097164 -0.270427
v 0.093819 1.053296 -0.259614
v 0.116991 0.954725 -0.235318
v 0.052066 0.875676 -0.215835
v -0.052066 0.875676 -0.215835
v -0.116992 0.954725 -0.235318
v -0.093820 1.053296 -0.259614
v -0.000000 1.097164 0.270426
v 0.093820 1.053296 0.259614
v 0.116991 0.954724 0.235318
v 0.052066 0.875677 0.215835
v -0.052066 0.875677 0.215835
v -0.116992 0.954724 0.235318
v -0.093820 1.053296 0.259614
v -0.000000 0.845817 0.749328
v 0.093820 0.811998 0.719368
v 0.116991 0.736009 0.652047
v 0.052066 0.675070 0.598059
v -0.052066 0.675070 0.598059
v -0.116992 0.736009 0.652047
v -0.093820 0.811998 0.719368
v -0.000000 0.400703 1.056568
v 0.093820 0.384682 1.014323
v 0.116991 0.348682 0.919399
v 0.052066 0.319812 0.843276
v -0.052066 0.319812 0.843276
v -0.116991 0.348682 0.919399
v -0.093820 0.384682 1.014323
v 0.000000 -0.136207 1.121761
v 0.093820 -0.130761 1.076909
v 0.116991 -0.118524 0.976128
v 0.052066 -0.108710 0.895308
v -0.052066 -0.108710 0.895308
v -0.116991 -0.118524 0.976128
v -0.093820 -0.130761 1.076909
v 0.000000 -0.641913 0.929972
v 0.093820 -0.616247 0.892789
v 0.116991 -0.558576 0.809238
v 0.052066 -0.512328 0.742236
v -0.052066 -0.512328 0.742236
v -0.116991 -0.558576 0.809238
v -0.093820 -0.616247 0.892789
v 0.000000 -1.000565 0.525137
v 0.093820 -0.960559 0.504141
v 0.116991 -0.870667 0.456961
v 0.052066 -0.798578 0.419126
v -0.052066 -0.798578 0.419126
v -0.116991 -0.870667 0.456961
v -0.093820 -0.960559 0.504141
vt 0.538462 0.571429
vt 0.615385 0.571429
vt 0.615385 0.714286
vt 0.538462 0.714286
vt 0.615385 0.857143
vt 0.538462 0.857143
vt 0.615385 1.000000
vt 0.538462 1.000000
vt 0.538462 -0.000000
vt 0.615385 -0.000000
vt 0.615385 0.142857
vt 0.538462 0.142857
vt 0.615385 0.285714
vt 0.538462 0.285714
vt 0.615385 0.428571
vt 0.538462 0.428571
vt 0.692308 0.571429
vt 0.692308 0.714286
vt 0.692308 0.857143
vt 0.692308 1.000000
vt 0.692308 -0.000000
vt 0.692308 0.142857
vt 0.692308 0.285714
vt 0.692308 0.428571
vt 0.769231 0.571429
vt 0.769231 0.714286
vt 0.769231 0.857143
vt 0.769231 1.000000
vt 0.769231 -0.000000
vt 0.769231 0.142857
vt 0.769231 0.285714
vt 0.769231 0.428571
vt 0.846154 0.571429
vt 0.846154 0.714286
vt 0.846154 0.857143
vt 0.846154 1.000000
vt 0.846154 -0.000000
vt 0.846154 0.142857
vt 0.846154 0.285714
vt 0.846154 0.428571
vt 0.923077 0.571429
vt 0.923077 0.714286
vt 0.923077 0.857143
vt 0.923077 1.000000
vt 0.923077 -0.000000
vt 0.923077 0.142857
vt 0.923077 0.285714
vt 0.923077 0.428571
vt 1.000000 0.571429
vt 1.000000 0.714286
vt 1.000000 0.857143
vt 1.000000 1.000000
vt 1.000000 -0.000000
vt 1.000000 0.142857
vt 1.000000 0.285714
vt 1.000000 0.428571
vt -0.000000 0.571429
vt 0.076923 0.571429
vt 0.076923 0.714286
vt -0.000000 0.714286
vt 0.076923 0.857143
vt -0.000000 0.857143
vt 0.076923 1.000000
vt -0.000000 1.000000
vt -0.000000 -0.000000
vt 0.076923 -0.000000
vt 0.076923 0.142857
vt -0.000000 0.142857
vt 0.076923 0.285714
vt -0.000000 0.285714
vt 0.076923 0.428571
vt -0.000000 0.428571
vt 0.153846 0.571429
vt 0.153846 0.714286
vt 0.153846 0.857143
vt 0.153846 1.000000
vt 0.153846 -0.000000
vt 0.153846 0.142857
vt 0.153846 0.285714
vt 0.153846 0.428571
vt 0.230769 0.571429
vt 0.230769 0.714286
vt 0.230769 0.857143
vt 0.230769 1.000000
vt 0.230769 -0.000000
vt 0.230769 0.142857
vt 0.230769 0.285714
vt 0.230769 0.428571
vt 0.307692 0.571429
vt 0.307692 0.714286
vt 0.307692 0.857143
vt 0.307692 1.000000
vt 0.307692 -0.000000
vt 0.307692 0.142857
vt 0.307692 0.285714
vt 0.307692 0.428571
vt 0.384615 0.571429
vt 0.384615 0.714286
vt 0.384615 0.857143
vt 0.384615 1.000000
vt 0.384615 -0.000000
vt 0.384615 0.142857
vt 0.384615 0.285714
vt 0.384615 0.428571
vt 0.461538 0.571429
vt 0.461538 0.714286
vt 0.461538 0.857143
vt 0.461538 1.000000
vt 0.461538 -0.000000
vt 0.461538 0.142857
vt 0.461538 0.285714
vt 0.461538 0.428571
vn 0.4236 -0.8795 -0.2168
vn 0.9735 -0.2222 -0.0548
vn 0.7728 0.6163 0.1519
vn 0.0000 0.9709 0.2393
vn -0.7728 0.6163 0.1519
vn -0.9735 -0.2222 -0.0548
vn -0.4236 -0.8795 -0.2168
vn 0.4236 -0.6781 -0.6007
vn 0.9735 -0.1713 -0.1517
vn 0.7728 0.4751 0.4209
vn 0.0000 0.7485 0.6631
vn -0.7728 0.4751 0.4209
vn -0.9735 -0.1713 -0.1517
vn -0.4236 -0.6781 -0.6007
vn 0.4236 -0.3212 -0.8470
vn 0.9735 -0.0811 -0.2140
vn 0.7728 0.2251 0.5935
vn 0.0000 0.3546 0.9350
vn -0.7728 0.2251 0.5935
vn -0.9735 -0.0811 -0.2140
vn -0.4236 -0.3212 -0.8470
vn 0.4236 0.1092 -0.8993
vn 0.9735 0.0276 -0.2272
vn 0.7728 -0.0765 0.6301
vn 0.0000 -0.1205 0.9927
vn -0.7728 -0.0765 0.6301
vn -0.9735 0.0276 -0.2272
vn -0.4236 0.1092 -0.8993
vn 0.4236 0.5146 -0.7455
vn 0.9735 0.1300 -0.1883
vn 0.7728 -0.3606 0.5223
vn 0.0000 -0.5681 0.8230
vn -0.7728 -0.3606 0.5223
vn -0.9735 0.1300 -0.1883
vn -0.4236 0.5146 -0.7455
vn 0.4236 0.8021 -0.4210
vn 0.9735 0.2026 -0.1063
vn 0.7728 -0.5620 0.2950
vn 0.0000 -0.8855 0.4647
vn -0.7728 -0.5620 0.2950
vn -0.9735 0.2026 -0.1063
vn -0.4236 0.8021 -0.4210
vn 0.4236 0.9059 -0.0000
vn 0.9735 0.2288 -0.0000
vn 0.7728 -0.6347 -0.0000
vn 0.0000 -1.0000 0.0000
vn -0.7728 -0.6347 0.0000
vn -0.9735 0.2288 0.0000
vn -0.4236 0.9059 -0.0000
vn 0.4236 0.8021 0.4210
vn 0.9735 0.2026 0.1063
vn 0.7728 -0.5620 -0.2950
vn 0.0000 -0.8855 -0.4647
vn -0.7728 -0.5620 -0.2950
vn -0.9735 0.2026 0.1063
vn -0.4236 0.8021 0.4210
vn 0.4236 0.5146 0.7455
vn 0.9735 0.1300 0.1883
vn 0.7728 -0.3605 -0.5223
vn 0.0000 -0.5681 -0.8230
vn -0.7728 -0.3605 -0.5223
vn -0.9735 0.1300 0.1883
vn -0.4236 0.5146 0.7455
vn 0.4236 0.1092 0.8993
vn 0.9735 0.0276 0.2272
vn 0.7728 -0.0765 -0.6301
vn 0.0000 -0.1205 -0.9927
vn -0.7728 -0.0765 -0.6301
vn -0.9735 0.0276 0.2272
vn -0.4236 0.1092 0.8993
vn 0.4236 -0.3212 0.8470
vn 0.9735 -0.0811 0.2140
vn 0.7728 0.2251 -0.5935
vn 0.0000 0.3546 -0.9350
vn -0.7728 0.2251 -0.5935
vn -0.9735 -0.0811 0.2140
vn -0.4236 -0.3212 0.8470
vn 0.4236 -0.6780 0.6007
vn 0.9735 -0.1713 0.1517
vn 0.7728 0.4751 -0.4209
vn 0.0000 0.7485 -0.6631
vn -0.7728 0.4751 -0.4209
vn -0.9735 -0.1713 0.1517
vn -0.4236 -0.6780 0.6007
vn 0.4236 -0.8795 0.2168
vn 0.9735 -0.2222 0.0548
vn 0.7728 0.6163 -0.1519
vn 0.0000 0.9709 -0.2393
vn -0.7728 0.6163 -0.1519
vn -0.9735 -0.2222 0.0548
vn -0.4236 -0.8795 0.2168
usemtl None
s off
f 1/1/1 8/2/1 9/3/1 2/4/1
f 2/4/2 9/3/2 10/5/2 3/6/2
f 3/6/3 10/5/3 11/7/3 4/8/3
f 4/9/4 11/10/4 12/11/4 5/12/4
f 5/12/5 12/11/5 13/13/5 6/14/5
f 6/14/6 13/13/6 14/15/6 7/16/6
f 7/16/7 14/15/7 8/2/7 1/1/7
f 8/2/8 15/17/8 16/18/8 9/3/8
f 9/3/9 16/18/9 17/19/9 10/5/9
f 10/5/10 17/19/10 18/20/10 11/7/10
f 11/10/11 18/21/11 19/22/11 12/11/11
f 12/11/12 19/22/12 20/23/12 13/13/12
f 13/13/13 20/23/13 21/24/13 14/15/13
f 14/15/14 21/24/14 15/17/14 8/2/14
f 15/17/15 22/25/15 23/26/15 16/18/15
f 16/18/16 23/26/16 24/27/16 17/19/16
f 17/19/17 24/27/17 25/28/17 18/20/17
f 18/21/18 25/29/18 26/30/18 19/22/18
f 19/22/19 26/30/19 27/31/19 20/23/19
f 20/23/20 27/31/20 28/32/20 21/24/20
f 21/24/21 28/32/21 22/25/21 15/17/21
f 22/25/22 29/33/22 30/34/22 23/26/22
f 23/26/23 30/34/23 31/35/23 24/27/23
f 24/27/24 31/35/24 32/36/24 25/28/24
f 25/29/25 32/37/25 33/38/25 26/30/25
f 26/30/26 33/38/26 34/39/26 27/31/26
f 27/31/27 34/39/27 35/40/27 28/32/27
f 28/32/28 35/40/28 29/33/28 22/25/28
f 29/33/29 36/41/29 37/42/29 30/34/29
f 30/34/30 37/42/30 38/43/30 31/35/30
f 31/35/31 38/43/31 39/44/31 32/36/31
f 32/37/32 39/45/32 40/46/32 33/38/32
f 33/38/33 40/46/33 41/47/33 34/39/33
f 34/39/34 41/47/34 42/48/34 35/40/34
f 35/40/35 42/48/35 36/41/35 29/33/35
f 36/41/36 43/49/36 44/50/36 37/42/36
f 37/42/37 44/50/37 45/51/37 38/43/37
f 38/43/38 45/51/38 46/52/38 39/44/38
f 39/45/39 46/53/39 47/54/39 40/46/39
f 40/46/40 47/54/40 48/55/40 41/47/40
f 41/47/41 48/55/41 49/56/41 42/48/41
f 42/48/42 49/56/42 43/49/42 36/41/42
f 43/57/43 50/58/43 51/59/43 44/60/43
f 44/60/44 51/59/44 52/61/44 45/62/44
f 45/62/45 52/61/45 53/63/45 46/64/45
f 46/65/46 53/66/46 54/67/46 47/68/46
f 47/68/47 54/67/47 55/69/47 48/70/47
f 48/70/48 55/69/48 56/71/48 49/72/48
f 49/72/49 56/71/49 50/58/49 43/57/49
f 50/58/50 57/73/50 58/74/50 51/59/50
f 51/59/51 58/74/51 59/75/51 52/61/51
f 52/61/52 59/75/52 60/76/52 53/63/52
f 53/66/53 60/77/53 61/78/53 54/67/53
f 54/67/54 61/78/54 62/79/54 55/69/54
f 55/69/55 62/79/55 63/80/55 56/71/55
f 56/71/56 63/80/56 57/73/56 50/58/56
f 57/73/57 64/81/57 65/82/57 58/74/57
f 58/74/58 65/82/58 66/83/58 59/75/58
f 59/75/59 66/83/59 67/84/59 60/76/59
f 60/77/60 67/85/60 68/86/60 61/78/60
f 61/78/61 68/86/61 69/87/61 62/79/61
f 62/79/62 69/87/62 70/88/62 63/80/62
f 63/80/63 70/88/63 64/81/63 57/73/63
f 64/81/64 71/89/64 72/90/64 65/82/64
f 65/82/65 72/90/65 73/91/65 66/83/65
f 66/83/66 73/91/66 74/92/66 67/84/66
f 67/85/67 74/93/67 75/94/67 68/86/67
f 68/86/68 75/94/68 76/95/68 69/87/68
f 69/87/69 76/95/69 77/96/69 70/88/69
f 70/88/70 77/96/70 71/89/70 64/81/70
f 71/89/71 78/97/71 79/98/71 72/90/71
f 72/90/72 79/98/72 80/99/72 73/91/72
f 73/91/73 80/99/73 81/100/73 74/92/73
f 74/93/74 81/101/74 82/102/74 75/94/74
f 75/94/75 82/102/75 83/103/75 76/95/75
f 76/95/76 83/103/76 84/104/76 77/96/76
f 77/96/77 84/104/77 78/97/77 71/89/77
f 78/97/78 85/105/78 86/106/78 79/98/78
f 79/98/79 86/106/79 87/107/79 80/99/79
f 80/99/80 87/107/80 88/108/80 81/100/80
f 81/101/81 88/109/81 89/110/81 82/102/81
f 82/102/82 89/110/82 90/111/82 83/103/82
f 83/103/83 90/111/83 91/112/83 84/104/83
f 84/104/84 91/112/84 85/105/84 78/97/84
f 85/105/85 1/1/85 2/4/85 86/106/85
f 86/106/86 2/4/86 3/6/86 87/107/86
f 87/107/87 3/6/87 4/8/87 88/108/87
f 88/109/88 4/9/88 5/12/88 89/110/88
f 89/110/89 5/12/89 6/14/89 90/111/89
f 90/111/90 6/14/90 7/16/90 91/112/90
f 91/112/91 7/16/91 1/1/91 85/105/91
