# Blender v2.79 (sub 0) OBJ File: 'Splitter.blend'
# www.blender.org
mtllib Splitter.mtl
o Cube.004_Cube.011
v 0.200000 0.800000 0.500000
v 0.200000 0.000000 -0.100000
v 0.200000 0.000000 -0.300000
v 0.200000 0.800000 0.300000
v 0.100000 0.800000 0.200000
v 0.100000 0.000000 -0.000000
v 0.100000 0.000000 -0.400000
v 0.100000 0.800000 0.600000
v 0.100000 0.000000 -0.100000
v 0.100000 0.000000 -0.300000
v 0.100000 1.700000 0.500000
v 0.100000 1.712500 0.500000
v 0.100000 1.712500 0.300000
v 0.100000 1.700000 0.300000
v 1.100000 1.712500 -0.400000
v 1.100000 1.700000 -0.400000
v 0.900000 1.700000 -0.400000
v 0.900000 1.712500 -0.400000
v 1.100000 1.712500 -0.500000
v 1.100000 1.700000 -0.500000
v 0.900000 1.700000 -0.500000
v 0.900000 1.712500 -0.500000
v 0.100000 1.712500 0.900000
v 0.100000 1.700000 0.900000
v 0.200000 1.712500 0.500000
v 0.200000 1.700000 0.500000
v 0.200000 1.712500 0.900000
v 0.200000 1.700000 0.900000
v 0.100000 1.712500 0.500000
v 0.100000 1.712500 0.900000
v 0.200000 1.712500 0.500000
v 0.200000 1.712500 0.900000
v 0.100000 1.725000 0.500000
v 0.100000 1.725000 0.900000
v 0.200000 1.725000 0.500000
v 0.200000 1.725000 0.900000
v 1.100000 1.712500 -0.900000
v 1.100000 1.700000 -0.900000
v 0.900000 1.700000 -0.900000
v 0.900000 1.712500 -0.900000
v 0.800000 1.712500 -0.500000
v 0.800000 1.700000 -0.500000
v 0.800000 1.712500 -0.900000
v 0.800000 1.700000 -0.900000
v 1.200000 1.712500 -0.500000
v 1.200000 1.700000 -0.500000
v 1.200000 1.712500 -0.900000
v 1.200000 1.700000 -0.900000
v 0.900000 1.725000 -0.500000
v 1.100000 1.725000 -0.500000
v 0.900000 1.725000 -0.900000
v 1.100000 1.725000 -0.900000
v 0.800000 1.725000 -0.500000
v 0.800000 1.725000 -0.900000
v 1.200000 1.725000 -0.900000
v 1.200000 1.725000 -0.500000
v 0.400000 0.800000 1.000000
v 0.600000 0.800000 -0.400000
v 0.600000 0.800000 -1.000000
v 0.500000 1.600000 1.000000
v 0.500000 1.600000 0.400000
v 1.500000 1.600000 -0.400000
v 0.500000 1.600000 -0.400000
v 1.500000 1.600000 -1.000000
v 0.500000 1.600000 -1.000000
v 0.500000 0.900000 1.000000
v 0.500000 0.900000 0.400000
v 1.500000 0.900000 -0.400000
v 0.500000 0.900000 -0.400000
v 1.500000 0.900000 -1.000000
v 0.500000 0.900000 -1.000000
v 1.400000 1.700000 -0.400000
v 1.400000 0.800000 -0.400000
v 1.400000 1.700000 -1.000000
v 1.400000 0.800000 -1.000000
v 1.400000 1.600000 -1.000000
v 1.400000 0.900000 -1.000000
v 0.400000 1.700000 1.000000
v 0.400000 1.700000 0.400000
v 0.400000 0.800000 0.400000
v 0.600000 1.700000 -1.000000
v 0.600000 1.700000 -0.400000
v 0.600000 1.600000 -1.000000
v 0.600000 0.900000 -1.000000
v 0.600000 1.000000 -1.000000
v 1.400000 1.000000 -1.000000
v 1.400000 1.600000 -0.900000
v 0.600000 1.600000 -0.900000
v 0.600000 1.000000 -0.900000
v 1.400000 1.000000 -0.900000
v 0.400000 1.600000 1.000000
v 0.400000 0.900000 1.000000
v 0.400000 1.000000 1.000000
v 0.400000 1.600000 0.900000
v 0.400000 1.000000 0.900000
v 0.000000 0.000000 -0.400000
v 0.000000 0.800000 0.200000
v 0.000000 0.000000 -0.000000
v 0.000000 0.800000 0.600000
v 0.000000 0.000000 -0.100000
v -0.200000 0.800000 0.500000
v -0.200000 0.000000 -0.100000
v 0.000000 0.000000 -0.300000
v -0.200000 0.000000 -0.300000
v -0.200000 0.800000 0.300000
v -0.100000 0.800000 0.200000
v -0.100000 0.000000 -0.000000
v -0.100000 0.000000 -0.400000
v -0.100000 0.800000 0.600000
v -0.100000 0.000000 -0.100000
v -0.100000 0.000000 -0.300000
v -0.100000 1.700000 0.500000
v -0.100000 1.712500 0.500000
v 0.000000 1.712500 0.500000
v -0.100000 1.712500 0.300000
v -0.100000 1.700000 0.300000
v 0.000000 1.700000 0.200000
v 0.000000 1.712500 0.200000
v -1.100000 1.712500 -0.400000
v -1.100000 1.700000 -0.400000
v -0.900000 1.700000 -0.400000
v -0.900000 1.712500 -0.400000
v -1.100000 1.712500 -0.500000
v -1.100000 1.700000 -0.500000
v -0.900000 1.700000 -0.500000
v -0.900000 1.712500 -0.500000
v -0.100000 1.712500 0.900000
v -0.100000 1.700000 0.900000
v 0.000000 1.700000 0.900000
v 0.000000 1.712500 0.900000
v -0.200000 1.712500 0.500000
v -0.200000 1.700000 0.500000
v -0.200000 1.712500 0.900000
v -0.200000 1.700000 0.900000
v 0.000000 1.712500 0.500000
v -0.100000 1.712500 0.500000
v 0.000000 1.712500 0.900000
v -0.100000 1.712500 0.900000
v -0.200000 1.712500 0.500000
v -0.200000 1.712500 0.900000
v 0.000000 1.725000 0.500000
v -0.100000 1.725000 0.500000
v 0.000000 1.725000 0.900000
v -0.100000 1.725000 0.900000
v -0.200000 1.725000 0.500000
v -0.200000 1.725000 0.900000
v -1.100000 1.712500 -0.900000
v -1.100000 1.700000 -0.900000
v -0.900000 1.700000 -0.900000
v -0.900000 1.712500 -0.900000
v -0.800000 1.712500 -0.500000
v -0.800000 1.700000 -0.500000
v -0.800000 1.712500 -0.900000
v -0.800000 1.700000 -0.900000
v -1.200000 1.712500 -0.500000
v -1.200000 1.700000 -0.500000
v -1.200000 1.712500 -0.900000
v -1.200000 1.700000 -0.900000
v -0.900000 1.725000 -0.500000
v -1.100000 1.725000 -0.500000
v -0.900000 1.725000 -0.900000
v -1.100000 1.725000 -0.900000
v -0.800000 1.725000 -0.500000
v -0.800000 1.725000 -0.900000
v -1.200000 1.725000 -0.900000
v -1.200000 1.725000 -0.500000
v 0.000000 0.800000 0.400000
v 0.000000 1.700000 1.000000
v 0.000000 1.700000 0.400000
v 0.000000 0.800000 1.000000
v -0.400000 0.800000 1.000000
v -0.600000 0.800000 -0.400000
v -0.600000 0.800000 -1.000000
v -0.500000 1.600000 1.000000
v 0.000000 1.600000 1.000000
v -0.500000 1.600000 0.400000
v 0.000000 1.700000 -0.000000
v -1.500000 1.600000 -0.400000
v -0.500000 1.600000 -0.400000
v -1.500000 1.600000 -1.000000
v -0.500000 1.600000 -1.000000
v -0.500000 0.900000 1.000000
v 0.000000 0.900000 1.000000
v -0.500000 0.900000 0.400000
v 0.000000 0.800000 -0.000000
v -1.500000 0.900000 -0.400000
v -0.500000 0.900000 -0.400000
v -1.500000 0.900000 -1.000000
v -0.500000 0.900000 -1.000000
v -1.400000 1.700000 -0.400000
v -1.400000 0.800000 -0.400000
v -1.400000 1.700000 -1.000000
v -1.400000 0.800000 -1.000000
v -1.400000 1.600000 -1.000000
v -1.400000 0.900000 -1.000000
v -0.400000 1.700000 1.000000
v -0.400000 1.700000 0.400000
v -0.400000 0.800000 0.400000
v -0.600000 1.700000 -1.000000
v -0.600000 1.700000 -0.400000
v -0.600000 1.600000 -1.000000
v -0.600000 0.900000 -1.000000
v -0.600000 1.000000 -1.000000
v -1.400000 1.000000 -1.000000
v -1.400000 1.600000 -0.900000
v -0.600000 1.600000 -0.900000
v -0.600000 1.000000 -0.900000
v -1.400000 1.000000 -0.900000
v -0.400000 1.600000 1.000000
v -0.400000 0.900000 1.000000
v -0.400000 1.000000 1.000000
v 0.000000 1.000000 1.000000
v 0.000000 1.600000 0.900000
v -0.400000 1.600000 0.900000
v -0.400000 1.000000 0.900000
v 0.000000 1.000000 0.900000
vn 1.0000 0.0000 0.0000
vn 0.0000 -1.0000 0.0000
vn 0.0000 -0.6000 0.8000
vn 0.0000 0.6000 -0.8000
vn 0.0000 1.0000 0.0000
vn -1.0000 -0.0000 0.0000
vn -0.6247 -0.0000 -0.7809
vn 0.6247 0.0000 0.7809
vn 0.6247 -0.0000 -0.7809
vn -0.6247 0.0000 0.7809
vn 0.6247 -0.4685 0.6247
vn 0.6247 0.4685 -0.6247
vn 0.5298 -0.5298 0.6623
vn 0.0000 0.0000 1.0000
vn 0.7071 -0.7071 0.0000
vn 0.0000 0.0000 -1.0000
vn -0.4851 0.4851 -0.7276
vn 0.5298 0.5298 0.6623
vn 0.7071 0.7071 0.0000
vn -0.7071 -0.7071 0.0000
vn -0.4851 -0.4851 -0.7276
vn -0.7071 0.7071 0.0000
vn -0.6247 -0.4685 0.6247
vn -0.6247 0.4685 -0.6247
vn -0.5298 -0.5298 0.6623
vn 0.4851 0.4851 -0.7276
vn -0.5298 0.5298 0.6623
vn 0.4851 -0.4851 -0.7276
vn 0.5735 0.0000 0.8192
vn -0.5547 0.0000 -0.8320
vn -0.5735 0.0000 0.8192
vn 0.5547 0.0000 -0.8320
usemtl Metal
s off
f 3//1 4//1 1//1 2//1
f 9//2 2//2 6//2
f 10//2 3//2 2//2 9//2
f 6//3 8//3 99//3 98//3
f 7//2 3//2 10//2
f 96//2 7//2 10//2 103//2
f 103//2 10//2 9//2 100//2
f 100//2 9//2 6//2 98//2
f 96//4 97//4 5//4 7//4
f 167//2 80//2 57//2 170//2
f 169//5 79//5 177//5
f 73//2 58//2 59//2 75//2
f 80//2 185//2 58//2 73//2
f 69//6 63//6 65//6 71//6
f 185//7 177//7 63//7 69//7
f 67//1 61//1 60//1 66//1
f 62//1 68//1 70//1 64//1
f 61//8 67//8 68//8 62//8
f 78//5 79//5 169//5 168//5
f 80//2 167//2 185//2
f 82//5 177//5 79//5 72//5
f 81//5 82//5 72//5 74//5
f 76//6 86//6 90//6 87//6
f 86//5 85//5 89//5 90//5
f 85//1 83//1 88//1 89//1
f 83//2 76//2 87//2 88//2
f 91//2 175//2 213//2 94//2
f 212//5 93//5 95//5 216//5
f 93//6 91//6 94//6 95//6
f 104//6 102//6 101//6 105//6
f 110//2 107//2 102//2
f 111//2 110//2 102//2 104//2
f 107//3 98//3 99//3 109//3
f 108//2 111//2 104//2
f 96//2 103//2 111//2 108//2
f 103//2 100//2 110//2 111//2
f 100//2 98//2 107//2 110//2
f 96//4 108//4 106//4 97//4
f 167//2 170//2 171//2 198//2
f 169//5 177//5 197//5
f 191//2 193//2 173//2 172//2
f 198//2 191//2 172//2 185//2
f 187//1 189//1 181//1 179//1
f 185//9 187//9 179//9 177//9
f 184//6 182//6 174//6 176//6
f 178//6 180//6 188//6 186//6
f 176//10 178//10 186//10 184//10
f 196//5 168//5 169//5 197//5
f 198//2 185//2 167//2
f 200//5 190//5 197//5 177//5
f 199//5 192//5 190//5 200//5
f 194//1 205//1 208//1 204//1
f 204//5 208//5 207//5 203//5
f 203//6 207//6 206//6 201//6
f 201//2 206//2 205//2 194//2
f 209//2 214//2 213//2 175//2
f 212//5 216//5 215//5 211//5
f 211//1 215//1 214//1 209//1
usemtl Red
f 1//11 8//11 6//11 2//11
f 5//12 4//12 3//12 7//12
f 67//13 80//13 73//13 68//13
f 66//14 92//14 183//14 170//14 57//14
f 68//15 73//15 75//15 70//15
f 77//16 70//16 75//16
f 67//15 66//15 57//15 80//15
f 177//17 82//17 63//17
f 72//18 79//18 61//18 62//18
f 74//16 64//16 76//16
f 76//16 64//16 70//16 86//16
f 60//14 91//14 93//14 66//14
f 65//16 83//16 85//16 71//16
f 71//16 84//16 77//16 75//16 59//16
f 60//14 78//14 168//14 175//14 91//14
f 72//19 62//19 64//19 74//19
f 60//19 61//19 79//19 78//19
f 58//20 69//20 71//20 59//20
f 58//21 185//21 69//21
f 63//22 82//22 81//22 65//22
f 65//16 81//16 83//16
f 84//16 85//16 86//16 77//16
f 83//16 81//16 74//16 76//16
f 71//16 85//16 84//16
f 86//16 70//16 77//16
f 92//14 93//14 212//14 183//14
f 66//14 93//14 92//14
f 101//23 102//23 107//23 109//23
f 106//24 108//24 104//24 105//24
f 184//25 186//25 191//25 198//25
f 182//14 171//14 170//14 183//14 210//14
f 186//20 188//20 193//20 191//20
f 195//16 193//16 188//16
f 184//20 198//20 171//20 182//20
f 177//26 179//26 200//26
f 190//27 178//27 176//27 197//27
f 192//16 194//16 180//16
f 194//16 204//16 188//16 180//16
f 174//14 182//14 211//14 209//14
f 181//16 189//16 203//16 201//16
f 189//16 173//16 193//16 195//16 202//16
f 174//14 209//14 175//14 168//14 196//14
f 190//22 192//22 180//22 178//22
f 174//22 196//22 197//22 176//22
f 172//15 173//15 189//15 187//15
f 172//28 187//28 185//28
f 179//19 181//19 199//19 200//19
f 181//16 201//16 199//16
f 202//16 195//16 204//16 203//16
f 201//16 194//16 192//16 199//16
f 189//16 202//16 203//16
f 204//16 195//16 188//16
f 210//14 183//14 212//14 211//14
f 182//14 210//14 211//14
usemtl Blue
f 12//1 11//1 14//1 13//1
f 13//29 14//29 16//29 15//29
f 114//5 12//5 13//5 118//5
f 118//5 13//5 15//5 18//5
f 17//6 18//6 22//6 21//6
f 15//1 16//1 20//1 19//1
f 18//5 15//5 19//5 22//5
f 21//14 22//14 41//14 42//14
f 23//14 130//14 129//14 24//14
f 25//14 12//14 29//14 31//14
f 26//1 25//1 27//1 28//1
f 11//16 12//16 25//16 26//16
f 23//14 24//14 28//14 27//14
f 31//16 29//16 33//16 35//16
f 29//16 135//16 141//16 33//16
f 27//14 25//14 31//14 32//14
f 23//14 27//14 32//14 30//14
f 12//14 114//14 135//14 29//14
f 130//14 23//14 30//14 137//14
f 33//5 141//5 143//5 34//5
f 33//5 34//5 36//5 35//5
f 137//14 30//14 34//14 143//14
f 30//14 32//14 36//14 34//14
f 32//1 31//1 35//1 36//1
f 38//16 39//16 40//16 37//16
f 19//14 20//14 46//14 45//14
f 47//16 37//16 52//16 55//16
f 42//6 41//6 43//6 44//6
f 37//16 40//16 51//16 52//16
f 40//16 39//16 44//16 43//16
f 45//1 46//1 48//1 47//1
f 38//16 37//16 47//16 48//16
f 40//16 43//16 54//16 51//16
f 49//5 50//5 52//5 51//5
f 49//5 51//5 54//5 53//5
f 52//5 50//5 56//5 55//5
f 41//14 22//14 49//14 53//14
f 19//14 45//14 56//14 50//14
f 43//6 41//6 53//6 54//6
f 45//1 47//1 55//1 56//1
f 22//14 19//14 50//14 49//14
f 17//30 117//30 118//30 18//30
f 113//6 115//6 116//6 112//6
f 115//31 119//31 120//31 116//31
f 114//5 118//5 115//5 113//5
f 118//5 122//5 119//5 115//5
f 121//1 125//1 126//1 122//1
f 119//6 123//6 124//6 120//6
f 122//5 126//5 123//5 119//5
f 125//14 152//14 151//14 126//14
f 127//14 128//14 129//14 130//14
f 131//14 139//14 136//14 113//14
f 132//6 134//6 133//6 131//6
f 112//16 132//16 131//16 113//16
f 127//14 133//14 134//14 128//14
f 139//16 145//16 142//16 136//16
f 136//16 142//16 141//16 135//16
f 133//14 140//14 139//14 131//14
f 127//14 138//14 140//14 133//14
f 113//14 136//14 135//14 114//14
f 130//14 137//14 138//14 127//14
f 142//5 144//5 143//5 141//5
f 142//5 145//5 146//5 144//5
f 137//14 143//14 144//14 138//14
f 138//14 144//14 146//14 140//14
f 140//6 146//6 145//6 139//6
f 148//16 147//16 150//16 149//16
f 123//14 155//14 156//14 124//14
f 157//16 165//16 162//16 147//16
f 152//1 154//1 153//1 151//1
f 147//16 162//16 161//16 150//16
f 150//16 153//16 154//16 149//16
f 155//6 157//6 158//6 156//6
f 148//16 158//16 157//16 147//16
f 150//16 161//16 164//16 153//16
f 159//5 161//5 162//5 160//5
f 159//5 163//5 164//5 161//5
f 162//5 165//5 166//5 160//5
f 151//14 163//14 159//14 126//14
f 123//14 160//14 166//14 155//14
f 153//1 164//1 163//1 151//1
f 155//6 166//6 165//6 157//6
f 126//14 159//14 160//14 123//14
f 121//32 122//32 118//32 117//32
usemtl Black
f 90//16 89//16 88//16 87//16
f 216//14 95//14 94//14 213//14
f 208//16 205//16 206//16 207//16
f 216//14 213//14 214//14 215//14
